<mxfile host="app.diagrams.net" agent="Mozilla/5.0 (Windows NT 10.0; Win64; x64) AppleWebKit/537.36 (KHTML, like Gecko) Chrome/128.0.0.0 Safari/537.36 Edg/128.0.0.0" version="24.7.8">
  <diagram id="C5RBs43oDa-KdzZeNtuy" name="Page-1">
    <mxGraphModel dx="1901" dy="1055" grid="1" gridSize="10" guides="1" tooltips="1" connect="1" arrows="1" fold="1" page="1" pageScale="10" pageWidth="827" pageHeight="1169" math="0" shadow="0">
      <root>
        <mxCell id="WIyWlLk6GJQsqaUBKTNV-0" />
        <mxCell id="WIyWlLk6GJQsqaUBKTNV-1" parent="WIyWlLk6GJQsqaUBKTNV-0" />
        <mxCell id="lhZ-Mh_XOBsZGG9vvXFF-29" value="" style="endArrow=classic;html=1;rounded=0;exitX=0.5;exitY=1;exitDx=0;exitDy=0;entryX=0.5;entryY=0;entryDx=0;entryDy=0;" edge="1" parent="WIyWlLk6GJQsqaUBKTNV-1" source="lhZ-Mh_XOBsZGG9vvXFF-119" target="lhZ-Mh_XOBsZGG9vvXFF-31">
          <mxGeometry width="50" height="50" relative="1" as="geometry">
            <mxPoint x="139.99999999999955" y="825" as="sourcePoint" />
            <mxPoint x="136.2194117271024" y="925.0082383776025" as="targetPoint" />
          </mxGeometry>
        </mxCell>
        <mxCell id="lhZ-Mh_XOBsZGG9vvXFF-31" value="Цикл по всем корректным приказам" style="shape=hexagon;perimeter=hexagonPerimeter2;whiteSpace=wrap;html=1;fixedSize=1;" vertex="1" parent="WIyWlLk6GJQsqaUBKTNV-1">
          <mxGeometry x="85" y="965" width="120" height="80" as="geometry" />
        </mxCell>
        <mxCell id="lhZ-Mh_XOBsZGG9vvXFF-32" value="" style="endArrow=classic;html=1;rounded=0;exitX=0.5;exitY=1;exitDx=0;exitDy=0;" edge="1" parent="WIyWlLk6GJQsqaUBKTNV-1" source="lhZ-Mh_XOBsZGG9vvXFF-31" target="lhZ-Mh_XOBsZGG9vvXFF-33">
          <mxGeometry width="50" height="50" relative="1" as="geometry">
            <mxPoint x="225" y="1285" as="sourcePoint" />
            <mxPoint x="275" y="1235" as="targetPoint" />
          </mxGeometry>
        </mxCell>
        <mxCell id="lhZ-Mh_XOBsZGG9vvXFF-131" style="edgeStyle=orthogonalEdgeStyle;rounded=0;orthogonalLoop=1;jettySize=auto;html=1;entryX=0.5;entryY=0;entryDx=0;entryDy=0;" edge="1" parent="WIyWlLk6GJQsqaUBKTNV-1" source="lhZ-Mh_XOBsZGG9vvXFF-33" target="lhZ-Mh_XOBsZGG9vvXFF-130">
          <mxGeometry relative="1" as="geometry" />
        </mxCell>
        <mxCell id="lhZ-Mh_XOBsZGG9vvXFF-33" value="Переход на обработчик неправильного сканирования погрузчика" style="rounded=1;whiteSpace=wrap;html=1;fillColor=#f5f5f5;fontColor=#333333;strokeColor=#666666;" vertex="1" parent="WIyWlLk6GJQsqaUBKTNV-1">
          <mxGeometry x="75" y="1265" width="140" height="70" as="geometry" />
        </mxCell>
        <mxCell id="lhZ-Mh_XOBsZGG9vvXFF-85" style="edgeStyle=orthogonalEdgeStyle;rounded=0;orthogonalLoop=1;jettySize=auto;html=1;entryX=0.5;entryY=0;entryDx=0;entryDy=0;" edge="1" parent="WIyWlLk6GJQsqaUBKTNV-1" source="lhZ-Mh_XOBsZGG9vvXFF-82" target="lhZ-Mh_XOBsZGG9vvXFF-84">
          <mxGeometry relative="1" as="geometry" />
        </mxCell>
        <mxCell id="lhZ-Mh_XOBsZGG9vvXFF-82" value="Сообщение об ошибке (уже что-то отсканировано)" style="rounded=0;whiteSpace=wrap;html=1;" vertex="1" parent="WIyWlLk6GJQsqaUBKTNV-1">
          <mxGeometry x="3114" y="830" width="120" height="60" as="geometry" />
        </mxCell>
        <mxCell id="lhZ-Mh_XOBsZGG9vvXFF-84" value="Завершение работы" style="rounded=1;whiteSpace=wrap;html=1;fillColor=#60a917;strokeColor=#2D7600;fontColor=#ffffff;" vertex="1" parent="WIyWlLk6GJQsqaUBKTNV-1">
          <mxGeometry x="3114" y="920" width="120" height="60" as="geometry" />
        </mxCell>
        <mxCell id="lhZ-Mh_XOBsZGG9vvXFF-89" style="edgeStyle=orthogonalEdgeStyle;rounded=0;orthogonalLoop=1;jettySize=auto;html=1;entryX=0.5;entryY=0;entryDx=0;entryDy=0;" edge="1" parent="WIyWlLk6GJQsqaUBKTNV-1" source="lhZ-Mh_XOBsZGG9vvXFF-86" target="lhZ-Mh_XOBsZGG9vvXFF-88">
          <mxGeometry relative="1" as="geometry" />
        </mxCell>
        <mxCell id="lhZ-Mh_XOBsZGG9vvXFF-86" value="Начало работы обработчика сканирования ячейки" style="rounded=1;whiteSpace=wrap;html=1;fontSize=12;glass=0;strokeWidth=1;shadow=0;" vertex="1" parent="WIyWlLk6GJQsqaUBKTNV-1">
          <mxGeometry x="70" y="30" width="150" height="60" as="geometry" />
        </mxCell>
        <mxCell id="lhZ-Mh_XOBsZGG9vvXFF-91" style="edgeStyle=orthogonalEdgeStyle;rounded=0;orthogonalLoop=1;jettySize=auto;html=1;entryX=0;entryY=0.5;entryDx=0;entryDy=0;" edge="1" parent="WIyWlLk6GJQsqaUBKTNV-1" source="lhZ-Mh_XOBsZGG9vvXFF-88" target="lhZ-Mh_XOBsZGG9vvXFF-90">
          <mxGeometry relative="1" as="geometry" />
        </mxCell>
        <mxCell id="lhZ-Mh_XOBsZGG9vvXFF-97" style="edgeStyle=orthogonalEdgeStyle;rounded=0;orthogonalLoop=1;jettySize=auto;html=1;entryX=0.5;entryY=0;entryDx=0;entryDy=0;" edge="1" parent="WIyWlLk6GJQsqaUBKTNV-1" source="lhZ-Mh_XOBsZGG9vvXFF-88" target="lhZ-Mh_XOBsZGG9vvXFF-95">
          <mxGeometry relative="1" as="geometry" />
        </mxCell>
        <mxCell id="lhZ-Mh_XOBsZGG9vvXFF-88" value="Переменная, отвечающая за отображение экрана выбора вариантов причин смены ячейки куда равна _" style="shape=parallelogram;perimeter=parallelogramPerimeter;whiteSpace=wrap;html=1;fixedSize=1;" vertex="1" parent="WIyWlLk6GJQsqaUBKTNV-1">
          <mxGeometry x="45" y="140" width="200" height="70" as="geometry" />
        </mxCell>
        <mxCell id="lhZ-Mh_XOBsZGG9vvXFF-90" value="Завершение работы" style="rounded=1;whiteSpace=wrap;html=1;fillColor=#60a917;strokeColor=#2D7600;fontColor=#ffffff;" vertex="1" parent="WIyWlLk6GJQsqaUBKTNV-1">
          <mxGeometry x="320" y="145" width="120" height="60" as="geometry" />
        </mxCell>
        <mxCell id="lhZ-Mh_XOBsZGG9vvXFF-99" style="edgeStyle=orthogonalEdgeStyle;rounded=0;orthogonalLoop=1;jettySize=auto;html=1;entryX=0.5;entryY=0;entryDx=0;entryDy=0;" edge="1" parent="WIyWlLk6GJQsqaUBKTNV-1" source="lhZ-Mh_XOBsZGG9vvXFF-95" target="lhZ-Mh_XOBsZGG9vvXFF-98">
          <mxGeometry relative="1" as="geometry" />
        </mxCell>
        <mxCell id="lhZ-Mh_XOBsZGG9vvXFF-95" value="Scanned = FullAddressAsString&lt;div&gt;MoveOrder.Line = First&lt;/div&gt;" style="rounded=0;whiteSpace=wrap;html=1;" vertex="1" parent="WIyWlLk6GJQsqaUBKTNV-1">
          <mxGeometry x="55" y="230" width="180" height="40" as="geometry" />
        </mxCell>
        <mxCell id="lhZ-Mh_XOBsZGG9vvXFF-103" style="edgeStyle=orthogonalEdgeStyle;rounded=0;orthogonalLoop=1;jettySize=auto;html=1;entryX=0;entryY=0.5;entryDx=0;entryDy=0;" edge="1" parent="WIyWlLk6GJQsqaUBKTNV-1" source="lhZ-Mh_XOBsZGG9vvXFF-98" target="lhZ-Mh_XOBsZGG9vvXFF-102">
          <mxGeometry relative="1" as="geometry" />
        </mxCell>
        <mxCell id="lhZ-Mh_XOBsZGG9vvXFF-112" style="edgeStyle=orthogonalEdgeStyle;rounded=0;orthogonalLoop=1;jettySize=auto;html=1;entryX=0.5;entryY=0;entryDx=0;entryDy=0;" edge="1" parent="WIyWlLk6GJQsqaUBKTNV-1" source="lhZ-Mh_XOBsZGG9vvXFF-98" target="lhZ-Mh_XOBsZGG9vvXFF-111">
          <mxGeometry relative="1" as="geometry" />
        </mxCell>
        <mxCell id="lhZ-Mh_XOBsZGG9vvXFF-98" value="&lt;span style=&quot;color: rgb(0, 0, 0); font-family: Helvetica; font-size: 12px; font-style: normal; font-variant-ligatures: normal; font-variant-caps: normal; font-weight: 400; letter-spacing: normal; orphans: 2; text-align: center; text-indent: 0px; text-transform: none; widows: 2; word-spacing: 0px; -webkit-text-stroke-width: 0px; white-space: normal; background-color: rgb(251, 251, 251); text-decoration-thickness: initial; text-decoration-style: initial; text-decoration-color: initial; display: inline !important; float: none;&quot;&gt;Приказ на перемещение не корректен&lt;/span&gt;" style="shape=parallelogram;perimeter=parallelogramPerimeter;whiteSpace=wrap;html=1;fixedSize=1;" vertex="1" parent="WIyWlLk6GJQsqaUBKTNV-1">
          <mxGeometry x="45" y="325" width="200" height="60" as="geometry" />
        </mxCell>
        <mxCell id="lhZ-Mh_XOBsZGG9vvXFF-100" value="Завершение работы" style="rounded=1;whiteSpace=wrap;html=1;fillColor=#60a917;strokeColor=#2D7600;fontColor=#ffffff;" vertex="1" parent="WIyWlLk6GJQsqaUBKTNV-1">
          <mxGeometry x="320" y="420" width="120" height="60" as="geometry" />
        </mxCell>
        <mxCell id="lhZ-Mh_XOBsZGG9vvXFF-104" style="edgeStyle=orthogonalEdgeStyle;rounded=0;orthogonalLoop=1;jettySize=auto;html=1;entryX=0.5;entryY=0;entryDx=0;entryDy=0;" edge="1" parent="WIyWlLk6GJQsqaUBKTNV-1" source="lhZ-Mh_XOBsZGG9vvXFF-102" target="lhZ-Mh_XOBsZGG9vvXFF-100">
          <mxGeometry relative="1" as="geometry" />
        </mxCell>
        <mxCell id="lhZ-Mh_XOBsZGG9vvXFF-102" value="Сообщение об ошибке (csScanned)" style="rounded=0;whiteSpace=wrap;html=1;" vertex="1" parent="WIyWlLk6GJQsqaUBKTNV-1">
          <mxGeometry x="320" y="325" width="120" height="60" as="geometry" />
        </mxCell>
        <mxCell id="lhZ-Mh_XOBsZGG9vvXFF-109" style="edgeStyle=orthogonalEdgeStyle;rounded=0;orthogonalLoop=1;jettySize=auto;html=1;entryX=0;entryY=0.5;entryDx=0;entryDy=0;" edge="1" parent="WIyWlLk6GJQsqaUBKTNV-1" source="lhZ-Mh_XOBsZGG9vvXFF-106" target="lhZ-Mh_XOBsZGG9vvXFF-108">
          <mxGeometry relative="1" as="geometry" />
        </mxCell>
        <mxCell id="lhZ-Mh_XOBsZGG9vvXFF-114" style="edgeStyle=orthogonalEdgeStyle;rounded=0;orthogonalLoop=1;jettySize=auto;html=1;entryX=0.5;entryY=0;entryDx=0;entryDy=0;" edge="1" parent="WIyWlLk6GJQsqaUBKTNV-1" source="lhZ-Mh_XOBsZGG9vvXFF-106" target="lhZ-Mh_XOBsZGG9vvXFF-110">
          <mxGeometry relative="1" as="geometry" />
        </mxCell>
        <mxCell id="lhZ-Mh_XOBsZGG9vvXFF-106" value="Тип приказа = приказ на перемещение" style="shape=parallelogram;perimeter=parallelogramPerimeter;whiteSpace=wrap;html=1;fixedSize=1;" vertex="1" parent="WIyWlLk6GJQsqaUBKTNV-1">
          <mxGeometry x="45" y="510" width="200" height="50" as="geometry" />
        </mxCell>
        <mxCell id="lhZ-Mh_XOBsZGG9vvXFF-108" value="Сохраняем информацию об SSCC приказа" style="rounded=0;whiteSpace=wrap;html=1;" vertex="1" parent="WIyWlLk6GJQsqaUBKTNV-1">
          <mxGeometry x="305" y="505" width="150" height="60" as="geometry" />
        </mxCell>
        <mxCell id="lhZ-Mh_XOBsZGG9vvXFF-122" style="edgeStyle=orthogonalEdgeStyle;rounded=0;orthogonalLoop=1;jettySize=auto;html=1;entryX=0.5;entryY=0;entryDx=0;entryDy=0;" edge="1" parent="WIyWlLk6GJQsqaUBKTNV-1" source="lhZ-Mh_XOBsZGG9vvXFF-110" target="lhZ-Mh_XOBsZGG9vvXFF-119">
          <mxGeometry relative="1" as="geometry" />
        </mxCell>
        <mxCell id="lhZ-Mh_XOBsZGG9vvXFF-110" value="Групповая расстановка при приходе, сканируем ячейку: находим ячейку в строках приказа" style="shape=parallelogram;perimeter=parallelogramPerimeter;whiteSpace=wrap;html=1;fixedSize=1;" vertex="1" parent="WIyWlLk6GJQsqaUBKTNV-1">
          <mxGeometry x="23.75" y="635" width="242.5" height="60" as="geometry" />
        </mxCell>
        <mxCell id="lhZ-Mh_XOBsZGG9vvXFF-113" style="edgeStyle=orthogonalEdgeStyle;rounded=0;orthogonalLoop=1;jettySize=auto;html=1;entryX=0.5;entryY=0;entryDx=0;entryDy=0;" edge="1" parent="WIyWlLk6GJQsqaUBKTNV-1" source="lhZ-Mh_XOBsZGG9vvXFF-111" target="lhZ-Mh_XOBsZGG9vvXFF-106">
          <mxGeometry relative="1" as="geometry" />
        </mxCell>
        <mxCell id="lhZ-Mh_XOBsZGG9vvXFF-111" value="InputStamp = False" style="rounded=0;whiteSpace=wrap;html=1;" vertex="1" parent="WIyWlLk6GJQsqaUBKTNV-1">
          <mxGeometry x="85" y="420" width="120" height="30" as="geometry" />
        </mxCell>
        <mxCell id="lhZ-Mh_XOBsZGG9vvXFF-116" value="" style="endArrow=classic;html=1;rounded=0;exitX=0.5;exitY=1;exitDx=0;exitDy=0;entryX=0.5;entryY=0;entryDx=0;entryDy=0;" edge="1" parent="WIyWlLk6GJQsqaUBKTNV-1" source="lhZ-Mh_XOBsZGG9vvXFF-108" target="lhZ-Mh_XOBsZGG9vvXFF-110">
          <mxGeometry width="50" height="50" relative="1" as="geometry">
            <mxPoint x="590" y="560" as="sourcePoint" />
            <mxPoint x="640" y="510" as="targetPoint" />
          </mxGeometry>
        </mxCell>
        <mxCell id="lhZ-Mh_XOBsZGG9vvXFF-128" style="edgeStyle=orthogonalEdgeStyle;rounded=0;orthogonalLoop=1;jettySize=auto;html=1;entryX=0.5;entryY=0;entryDx=0;entryDy=0;" edge="1" parent="WIyWlLk6GJQsqaUBKTNV-1" source="lhZ-Mh_XOBsZGG9vvXFF-117" target="lhZ-Mh_XOBsZGG9vvXFF-126">
          <mxGeometry relative="1" as="geometry" />
        </mxCell>
        <mxCell id="lhZ-Mh_XOBsZGG9vvXFF-117" value="Групповая расстановка при приходе, сканируем ячейку: находим ячейку в строках приказа" style="rounded=1;whiteSpace=wrap;html=1;" vertex="1" parent="WIyWlLk6GJQsqaUBKTNV-1">
          <mxGeometry x="2899" y="620" width="170" height="70" as="geometry" />
        </mxCell>
        <mxCell id="lhZ-Mh_XOBsZGG9vvXFF-425" style="edgeStyle=orthogonalEdgeStyle;rounded=0;orthogonalLoop=1;jettySize=auto;html=1;" edge="1" parent="WIyWlLk6GJQsqaUBKTNV-1" source="lhZ-Mh_XOBsZGG9vvXFF-119" target="lhZ-Mh_XOBsZGG9vvXFF-421">
          <mxGeometry relative="1" as="geometry" />
        </mxCell>
        <mxCell id="lhZ-Mh_XOBsZGG9vvXFF-119" value="Приказ взят, или (тип приказа = перемещение из зоны упаковки и мы не ждем сканировани SSCC)" style="shape=parallelogram;perimeter=parallelogramPerimeter;whiteSpace=wrap;html=1;fixedSize=1;" vertex="1" parent="WIyWlLk6GJQsqaUBKTNV-1">
          <mxGeometry x="17.5" y="735" width="255" height="90" as="geometry" />
        </mxCell>
        <mxCell id="lhZ-Mh_XOBsZGG9vvXFF-125" style="edgeStyle=orthogonalEdgeStyle;rounded=0;orthogonalLoop=1;jettySize=auto;html=1;entryX=0;entryY=0.5;entryDx=0;entryDy=0;" edge="1" parent="WIyWlLk6GJQsqaUBKTNV-1" source="lhZ-Mh_XOBsZGG9vvXFF-123" target="lhZ-Mh_XOBsZGG9vvXFF-82">
          <mxGeometry relative="1" as="geometry" />
        </mxCell>
        <mxCell id="lhZ-Mh_XOBsZGG9vvXFF-133" style="edgeStyle=orthogonalEdgeStyle;rounded=0;orthogonalLoop=1;jettySize=auto;html=1;entryX=0.5;entryY=0;entryDx=0;entryDy=0;" edge="1" parent="WIyWlLk6GJQsqaUBKTNV-1" source="lhZ-Mh_XOBsZGG9vvXFF-123" target="lhZ-Mh_XOBsZGG9vvXFF-132">
          <mxGeometry relative="1" as="geometry" />
        </mxCell>
        <mxCell id="lhZ-Mh_XOBsZGG9vvXFF-123" value="У приказа отсканирована ячейка-куда" style="shape=parallelogram;perimeter=parallelogramPerimeter;whiteSpace=wrap;html=1;fixedSize=1;" vertex="1" parent="WIyWlLk6GJQsqaUBKTNV-1">
          <mxGeometry x="2924" y="820" width="120" height="80" as="geometry" />
        </mxCell>
        <mxCell id="lhZ-Mh_XOBsZGG9vvXFF-129" style="edgeStyle=orthogonalEdgeStyle;rounded=0;orthogonalLoop=1;jettySize=auto;html=1;entryX=0.5;entryY=0;entryDx=0;entryDy=0;" edge="1" parent="WIyWlLk6GJQsqaUBKTNV-1" source="lhZ-Mh_XOBsZGG9vvXFF-126" target="lhZ-Mh_XOBsZGG9vvXFF-123">
          <mxGeometry relative="1" as="geometry" />
        </mxCell>
        <mxCell id="lhZ-Mh_XOBsZGG9vvXFF-126" value="MoveOrder.Line = First" style="rounded=0;whiteSpace=wrap;html=1;fillColor=#fff2cc;strokeColor=#d6b656;" vertex="1" parent="WIyWlLk6GJQsqaUBKTNV-1">
          <mxGeometry x="2924" y="720" width="120" height="60" as="geometry" />
        </mxCell>
        <mxCell id="lhZ-Mh_XOBsZGG9vvXFF-130" value="Завершение работы" style="rounded=1;whiteSpace=wrap;html=1;fillColor=#60a917;strokeColor=#2D7600;fontColor=#ffffff;" vertex="1" parent="WIyWlLk6GJQsqaUBKTNV-1">
          <mxGeometry x="85" y="1405" width="120" height="60" as="geometry" />
        </mxCell>
        <mxCell id="lhZ-Mh_XOBsZGG9vvXFF-137" style="edgeStyle=orthogonalEdgeStyle;rounded=0;orthogonalLoop=1;jettySize=auto;html=1;entryX=0;entryY=0.5;entryDx=0;entryDy=0;" edge="1" parent="WIyWlLk6GJQsqaUBKTNV-1" source="lhZ-Mh_XOBsZGG9vvXFF-132" target="lhZ-Mh_XOBsZGG9vvXFF-135">
          <mxGeometry relative="1" as="geometry" />
        </mxCell>
        <mxCell id="lhZ-Mh_XOBsZGG9vvXFF-139" style="edgeStyle=orthogonalEdgeStyle;rounded=0;orthogonalLoop=1;jettySize=auto;html=1;entryX=0.5;entryY=0;entryDx=0;entryDy=0;" edge="1" parent="WIyWlLk6GJQsqaUBKTNV-1" source="lhZ-Mh_XOBsZGG9vvXFF-132" target="lhZ-Mh_XOBsZGG9vvXFF-138">
          <mxGeometry relative="1" as="geometry" />
        </mxCell>
        <mxCell id="lhZ-Mh_XOBsZGG9vvXFF-132" value="Проверка на совпадение ячейки текущего приказа" style="shape=parallelogram;perimeter=parallelogramPerimeter;whiteSpace=wrap;html=1;fixedSize=1;" vertex="1" parent="WIyWlLk6GJQsqaUBKTNV-1">
          <mxGeometry x="2896.5" y="990" width="175" height="90" as="geometry" />
        </mxCell>
        <mxCell id="lhZ-Mh_XOBsZGG9vvXFF-134" style="edgeStyle=orthogonalEdgeStyle;rounded=0;orthogonalLoop=1;jettySize=auto;html=1;entryX=0.5;entryY=0;entryDx=0;entryDy=0;" edge="1" source="lhZ-Mh_XOBsZGG9vvXFF-135" target="lhZ-Mh_XOBsZGG9vvXFF-136" parent="WIyWlLk6GJQsqaUBKTNV-1">
          <mxGeometry relative="1" as="geometry" />
        </mxCell>
        <mxCell id="lhZ-Mh_XOBsZGG9vvXFF-135" value="Сообщение об ошибке" style="rounded=0;whiteSpace=wrap;html=1;" vertex="1" parent="WIyWlLk6GJQsqaUBKTNV-1">
          <mxGeometry x="3114" y="1005" width="120" height="60" as="geometry" />
        </mxCell>
        <mxCell id="lhZ-Mh_XOBsZGG9vvXFF-136" value="Завершение работы" style="rounded=1;whiteSpace=wrap;html=1;fillColor=#60a917;strokeColor=#2D7600;fontColor=#ffffff;" vertex="1" parent="WIyWlLk6GJQsqaUBKTNV-1">
          <mxGeometry x="3114" y="1095" width="120" height="60" as="geometry" />
        </mxCell>
        <mxCell id="lhZ-Mh_XOBsZGG9vvXFF-141" style="edgeStyle=orthogonalEdgeStyle;rounded=0;orthogonalLoop=1;jettySize=auto;html=1;entryX=0;entryY=0.5;entryDx=0;entryDy=0;" edge="1" parent="WIyWlLk6GJQsqaUBKTNV-1" source="lhZ-Mh_XOBsZGG9vvXFF-138" target="lhZ-Mh_XOBsZGG9vvXFF-140">
          <mxGeometry relative="1" as="geometry" />
        </mxCell>
        <mxCell id="lhZ-Mh_XOBsZGG9vvXFF-168" style="edgeStyle=orthogonalEdgeStyle;rounded=0;orthogonalLoop=1;jettySize=auto;html=1;entryX=0.5;entryY=0;entryDx=0;entryDy=0;" edge="1" parent="WIyWlLk6GJQsqaUBKTNV-1" source="lhZ-Mh_XOBsZGG9vvXFF-138" target="lhZ-Mh_XOBsZGG9vvXFF-167">
          <mxGeometry relative="1" as="geometry" />
        </mxCell>
        <mxCell id="lhZ-Mh_XOBsZGG9vvXFF-138" value="EnabledArrangeAll = true и&lt;div&gt;ClickedLineKey = NULL и&lt;/div&gt;&lt;div&gt;LastSSCC != NULL и&lt;/div&gt;&lt;div&gt;У приказа не отсканирована ячейка-куда и&lt;/div&gt;&lt;div&gt;У приказа не отсканирован SSCC&lt;/div&gt;" style="shape=parallelogram;perimeter=parallelogramPerimeter;whiteSpace=wrap;html=1;fixedSize=1;" vertex="1" parent="WIyWlLk6GJQsqaUBKTNV-1">
          <mxGeometry x="2844" y="1220" width="280" height="90" as="geometry" />
        </mxCell>
        <mxCell id="lhZ-Mh_XOBsZGG9vvXFF-145" style="edgeStyle=orthogonalEdgeStyle;rounded=0;orthogonalLoop=1;jettySize=auto;html=1;entryX=0;entryY=0.5;entryDx=0;entryDy=0;" edge="1" parent="WIyWlLk6GJQsqaUBKTNV-1" source="lhZ-Mh_XOBsZGG9vvXFF-140" target="lhZ-Mh_XOBsZGG9vvXFF-143">
          <mxGeometry relative="1" as="geometry" />
        </mxCell>
        <mxCell id="lhZ-Mh_XOBsZGG9vvXFF-147" style="edgeStyle=orthogonalEdgeStyle;rounded=0;orthogonalLoop=1;jettySize=auto;html=1;entryX=0.5;entryY=0;entryDx=0;entryDy=0;" edge="1" parent="WIyWlLk6GJQsqaUBKTNV-1" source="lhZ-Mh_XOBsZGG9vvXFF-140" target="lhZ-Mh_XOBsZGG9vvXFF-146">
          <mxGeometry relative="1" as="geometry" />
        </mxCell>
        <mxCell id="lhZ-Mh_XOBsZGG9vvXFF-140" value="Сканированные данные содержат код склада и&lt;div&gt;&lt;div&gt;код склада приказа не равен коду из сканированных данных&lt;/div&gt;&lt;/div&gt;" style="shape=parallelogram;perimeter=parallelogramPerimeter;whiteSpace=wrap;html=1;fixedSize=1;" vertex="1" parent="WIyWlLk6GJQsqaUBKTNV-1">
          <mxGeometry x="3179" y="1240" width="320" height="50" as="geometry" />
        </mxCell>
        <mxCell id="lhZ-Mh_XOBsZGG9vvXFF-142" style="edgeStyle=orthogonalEdgeStyle;rounded=0;orthogonalLoop=1;jettySize=auto;html=1;entryX=0.5;entryY=0;entryDx=0;entryDy=0;" edge="1" source="lhZ-Mh_XOBsZGG9vvXFF-143" target="lhZ-Mh_XOBsZGG9vvXFF-144" parent="WIyWlLk6GJQsqaUBKTNV-1">
          <mxGeometry relative="1" as="geometry" />
        </mxCell>
        <mxCell id="lhZ-Mh_XOBsZGG9vvXFF-143" value="Сообщение об ошибке (Адрес содержит код другого склада. Замена невозможна)" style="rounded=0;whiteSpace=wrap;html=1;" vertex="1" parent="WIyWlLk6GJQsqaUBKTNV-1">
          <mxGeometry x="3619" y="1218" width="150" height="95" as="geometry" />
        </mxCell>
        <mxCell id="lhZ-Mh_XOBsZGG9vvXFF-144" value="Завершение работы" style="rounded=1;whiteSpace=wrap;html=1;fillColor=#60a917;strokeColor=#2D7600;fontColor=#ffffff;" vertex="1" parent="WIyWlLk6GJQsqaUBKTNV-1">
          <mxGeometry x="3634" y="1348" width="120" height="60" as="geometry" />
        </mxCell>
        <mxCell id="lhZ-Mh_XOBsZGG9vvXFF-149" style="edgeStyle=orthogonalEdgeStyle;rounded=0;orthogonalLoop=1;jettySize=auto;html=1;entryX=0.5;entryY=0;entryDx=0;entryDy=0;" edge="1" parent="WIyWlLk6GJQsqaUBKTNV-1" source="lhZ-Mh_XOBsZGG9vvXFF-146" target="lhZ-Mh_XOBsZGG9vvXFF-148">
          <mxGeometry relative="1" as="geometry" />
        </mxCell>
        <mxCell id="lhZ-Mh_XOBsZGG9vvXFF-154" style="edgeStyle=orthogonalEdgeStyle;rounded=0;orthogonalLoop=1;jettySize=auto;html=1;exitX=1;exitY=0.5;exitDx=0;exitDy=0;entryX=0;entryY=0.5;entryDx=0;entryDy=0;" edge="1" parent="WIyWlLk6GJQsqaUBKTNV-1" source="lhZ-Mh_XOBsZGG9vvXFF-146" target="lhZ-Mh_XOBsZGG9vvXFF-152">
          <mxGeometry relative="1" as="geometry" />
        </mxCell>
        <mxCell id="lhZ-Mh_XOBsZGG9vvXFF-146" value="Вопрос пользователю:&lt;div&gt;Отсканирована ячейка #. Продолжить размещение всех товаров паллеты в ячейку?&lt;br&gt;&lt;/div&gt;" style="shape=parallelogram;perimeter=parallelogramPerimeter;whiteSpace=wrap;html=1;fixedSize=1;" vertex="1" parent="WIyWlLk6GJQsqaUBKTNV-1">
          <mxGeometry x="3199" y="1420" width="280" height="90" as="geometry" />
        </mxCell>
        <mxCell id="lhZ-Mh_XOBsZGG9vvXFF-148" value="Завершение работы" style="rounded=1;whiteSpace=wrap;html=1;fillColor=#60a917;strokeColor=#2D7600;fontColor=#ffffff;" vertex="1" parent="WIyWlLk6GJQsqaUBKTNV-1">
          <mxGeometry x="3279" y="1550" width="120" height="60" as="geometry" />
        </mxCell>
        <mxCell id="lhZ-Mh_XOBsZGG9vvXFF-150" value="switch" style="swimlane;fontStyle=0;childLayout=stackLayout;horizontal=1;startSize=30;horizontalStack=0;resizeParent=1;resizeParentMax=0;resizeLast=0;collapsible=1;marginBottom=0;whiteSpace=wrap;html=1;" vertex="1" parent="WIyWlLk6GJQsqaUBKTNV-1">
          <mxGeometry x="3584" y="1430" width="220" height="120" as="geometry" />
        </mxCell>
        <mxCell id="lhZ-Mh_XOBsZGG9vvXFF-151" value="ArrangeAllSSCCToCell = AllRecalc" style="text;strokeColor=none;fillColor=none;align=left;verticalAlign=middle;spacingLeft=4;spacingRight=4;overflow=hidden;points=[[0,0.5],[1,0.5]];portConstraint=eastwest;rotatable=0;whiteSpace=wrap;html=1;" vertex="1" parent="lhZ-Mh_XOBsZGG9vvXFF-150">
          <mxGeometry y="30" width="220" height="30" as="geometry" />
        </mxCell>
        <mxCell id="lhZ-Mh_XOBsZGG9vvXFF-152" value="ArrangeAllSSCCToCell = AllConfirmed" style="text;strokeColor=none;fillColor=none;align=left;verticalAlign=middle;spacingLeft=4;spacingRight=4;overflow=hidden;points=[[0,0.5],[1,0.5]];portConstraint=eastwest;rotatable=0;whiteSpace=wrap;html=1;" vertex="1" parent="lhZ-Mh_XOBsZGG9vvXFF-150">
          <mxGeometry y="60" width="220" height="30" as="geometry" />
        </mxCell>
        <mxCell id="lhZ-Mh_XOBsZGG9vvXFF-153" value="Default" style="text;strokeColor=none;fillColor=none;align=left;verticalAlign=middle;spacingLeft=4;spacingRight=4;overflow=hidden;points=[[0,0.5],[1,0.5]];portConstraint=eastwest;rotatable=0;whiteSpace=wrap;html=1;" vertex="1" parent="lhZ-Mh_XOBsZGG9vvXFF-150">
          <mxGeometry y="90" width="220" height="30" as="geometry" />
        </mxCell>
        <mxCell id="lhZ-Mh_XOBsZGG9vvXFF-164" style="edgeStyle=orthogonalEdgeStyle;rounded=0;orthogonalLoop=1;jettySize=auto;html=1;exitX=1;exitY=0.5;exitDx=0;exitDy=0;entryX=0;entryY=0.5;entryDx=0;entryDy=0;" edge="1" parent="WIyWlLk6GJQsqaUBKTNV-1" source="lhZ-Mh_XOBsZGG9vvXFF-155" target="lhZ-Mh_XOBsZGG9vvXFF-162">
          <mxGeometry relative="1" as="geometry" />
        </mxCell>
        <mxCell id="lhZ-Mh_XOBsZGG9vvXFF-155" value="RecalculateCellTo = true&lt;div&gt;RecalcAllSSCCRunning = true&lt;br&gt;&lt;/div&gt;&lt;div&gt;Звук:Ок&lt;/div&gt;" style="rounded=0;whiteSpace=wrap;html=1;" vertex="1" parent="WIyWlLk6GJQsqaUBKTNV-1">
          <mxGeometry x="3939" y="1440" width="180" height="50" as="geometry" />
        </mxCell>
        <mxCell id="lhZ-Mh_XOBsZGG9vvXFF-165" style="edgeStyle=orthogonalEdgeStyle;rounded=0;orthogonalLoop=1;jettySize=auto;html=1;entryX=0;entryY=0.5;entryDx=0;entryDy=0;" edge="1" parent="WIyWlLk6GJQsqaUBKTNV-1" source="lhZ-Mh_XOBsZGG9vvXFF-156" target="lhZ-Mh_XOBsZGG9vvXFF-162">
          <mxGeometry relative="1" as="geometry" />
        </mxCell>
        <mxCell id="lhZ-Mh_XOBsZGG9vvXFF-156" value="&lt;div&gt;Звук: приказ выполнен&lt;/div&gt;" style="rounded=0;whiteSpace=wrap;html=1;" vertex="1" parent="WIyWlLk6GJQsqaUBKTNV-1">
          <mxGeometry x="3939" y="1510" width="180" height="20" as="geometry" />
        </mxCell>
        <mxCell id="lhZ-Mh_XOBsZGG9vvXFF-166" style="edgeStyle=orthogonalEdgeStyle;rounded=0;orthogonalLoop=1;jettySize=auto;html=1;entryX=0;entryY=0.5;entryDx=0;entryDy=0;" edge="1" parent="WIyWlLk6GJQsqaUBKTNV-1" source="lhZ-Mh_XOBsZGG9vvXFF-157" target="lhZ-Mh_XOBsZGG9vvXFF-162">
          <mxGeometry relative="1" as="geometry" />
        </mxCell>
        <mxCell id="lhZ-Mh_XOBsZGG9vvXFF-157" value="Сообщение об ошибке (Произошла ошибка при подтверждении размещения паллеты. Должен быть один склад-куда у всех строк)" style="rounded=0;whiteSpace=wrap;html=1;" vertex="1" parent="WIyWlLk6GJQsqaUBKTNV-1">
          <mxGeometry x="3954" y="1550" width="150" height="95" as="geometry" />
        </mxCell>
        <mxCell id="lhZ-Mh_XOBsZGG9vvXFF-158" style="edgeStyle=orthogonalEdgeStyle;rounded=0;orthogonalLoop=1;jettySize=auto;html=1;entryX=0;entryY=0.5;entryDx=0;entryDy=0;" edge="1" parent="WIyWlLk6GJQsqaUBKTNV-1" source="lhZ-Mh_XOBsZGG9vvXFF-151" target="lhZ-Mh_XOBsZGG9vvXFF-155">
          <mxGeometry relative="1" as="geometry" />
        </mxCell>
        <mxCell id="lhZ-Mh_XOBsZGG9vvXFF-159" style="edgeStyle=orthogonalEdgeStyle;rounded=0;orthogonalLoop=1;jettySize=auto;html=1;entryX=0;entryY=0.5;entryDx=0;entryDy=0;" edge="1" parent="WIyWlLk6GJQsqaUBKTNV-1" source="lhZ-Mh_XOBsZGG9vvXFF-152" target="lhZ-Mh_XOBsZGG9vvXFF-156">
          <mxGeometry relative="1" as="geometry" />
        </mxCell>
        <mxCell id="lhZ-Mh_XOBsZGG9vvXFF-160" style="edgeStyle=orthogonalEdgeStyle;rounded=0;orthogonalLoop=1;jettySize=auto;html=1;entryX=0;entryY=0.5;entryDx=0;entryDy=0;" edge="1" parent="WIyWlLk6GJQsqaUBKTNV-1" source="lhZ-Mh_XOBsZGG9vvXFF-153" target="lhZ-Mh_XOBsZGG9vvXFF-157">
          <mxGeometry relative="1" as="geometry" />
        </mxCell>
        <mxCell id="lhZ-Mh_XOBsZGG9vvXFF-161" value="Завершение работы" style="rounded=1;whiteSpace=wrap;html=1;fillColor=#008a00;strokeColor=#005700;fontColor=#ffffff;gradientColor=default;gradientDirection=west;" vertex="1" parent="WIyWlLk6GJQsqaUBKTNV-1">
          <mxGeometry x="4369" y="1500" width="120" height="60" as="geometry" />
        </mxCell>
        <mxCell id="lhZ-Mh_XOBsZGG9vvXFF-163" style="edgeStyle=orthogonalEdgeStyle;rounded=0;orthogonalLoop=1;jettySize=auto;html=1;entryX=0;entryY=0.5;entryDx=0;entryDy=0;" edge="1" parent="WIyWlLk6GJQsqaUBKTNV-1" source="lhZ-Mh_XOBsZGG9vvXFF-162" target="lhZ-Mh_XOBsZGG9vvXFF-161">
          <mxGeometry relative="1" as="geometry" />
        </mxCell>
        <mxCell id="lhZ-Mh_XOBsZGG9vvXFF-162" value="Сигнал: Данные на терминале были изменены" style="rounded=0;whiteSpace=wrap;html=1;" vertex="1" parent="WIyWlLk6GJQsqaUBKTNV-1">
          <mxGeometry x="4209" y="1500" width="120" height="60" as="geometry" />
        </mxCell>
        <mxCell id="lhZ-Mh_XOBsZGG9vvXFF-294" style="edgeStyle=orthogonalEdgeStyle;rounded=0;orthogonalLoop=1;jettySize=auto;html=1;" edge="1" parent="WIyWlLk6GJQsqaUBKTNV-1" source="lhZ-Mh_XOBsZGG9vvXFF-167" target="lhZ-Mh_XOBsZGG9vvXFF-293">
          <mxGeometry relative="1" as="geometry" />
        </mxCell>
        <mxCell id="lhZ-Mh_XOBsZGG9vvXFF-167" value="Включено групповое размещение №2" style="shape=parallelogram;perimeter=parallelogramPerimeter;whiteSpace=wrap;html=1;fixedSize=1;" vertex="1" parent="WIyWlLk6GJQsqaUBKTNV-1">
          <mxGeometry x="2857.5" y="1689.75" width="255" height="40" as="geometry" />
        </mxCell>
        <mxCell id="lhZ-Mh_XOBsZGG9vvXFF-172" style="edgeStyle=orthogonalEdgeStyle;rounded=0;orthogonalLoop=1;jettySize=auto;html=1;exitX=1;exitY=0.5;exitDx=0;exitDy=0;entryX=0;entryY=0.5;entryDx=0;entryDy=0;" edge="1" parent="WIyWlLk6GJQsqaUBKTNV-1" source="lhZ-Mh_XOBsZGG9vvXFF-169" target="lhZ-Mh_XOBsZGG9vvXFF-171">
          <mxGeometry relative="1" as="geometry" />
        </mxCell>
        <mxCell id="lhZ-Mh_XOBsZGG9vvXFF-176" style="edgeStyle=orthogonalEdgeStyle;rounded=0;orthogonalLoop=1;jettySize=auto;html=1;entryX=0.5;entryY=0;entryDx=0;entryDy=0;" edge="1" parent="WIyWlLk6GJQsqaUBKTNV-1" source="lhZ-Mh_XOBsZGG9vvXFF-169" target="lhZ-Mh_XOBsZGG9vvXFF-175">
          <mxGeometry relative="1" as="geometry" />
        </mxCell>
        <mxCell id="lhZ-Mh_XOBsZGG9vvXFF-169" value="Тележка не не найдена и&lt;div&gt;не отсканирована&lt;/div&gt;" style="shape=parallelogram;perimeter=parallelogramPerimeter;whiteSpace=wrap;html=1;fixedSize=1;" vertex="1" parent="WIyWlLk6GJQsqaUBKTNV-1">
          <mxGeometry x="4420" y="1677.75" width="202.5" height="60" as="geometry" />
        </mxCell>
        <mxCell id="lhZ-Mh_XOBsZGG9vvXFF-174" style="edgeStyle=orthogonalEdgeStyle;rounded=0;orthogonalLoop=1;jettySize=auto;html=1;entryX=0.5;entryY=0;entryDx=0;entryDy=0;" edge="1" parent="WIyWlLk6GJQsqaUBKTNV-1" source="lhZ-Mh_XOBsZGG9vvXFF-171" target="lhZ-Mh_XOBsZGG9vvXFF-173">
          <mxGeometry relative="1" as="geometry" />
        </mxCell>
        <mxCell id="lhZ-Mh_XOBsZGG9vvXFF-171" value="Сообщение об ошибке" style="rounded=0;whiteSpace=wrap;html=1;" vertex="1" parent="WIyWlLk6GJQsqaUBKTNV-1">
          <mxGeometry x="4655" y="1689" width="150" height="37.5" as="geometry" />
        </mxCell>
        <mxCell id="lhZ-Mh_XOBsZGG9vvXFF-173" value="Завершение работы" style="rounded=1;whiteSpace=wrap;html=1;fillColor=#60a917;strokeColor=#2D7600;fontColor=#ffffff;" vertex="1" parent="WIyWlLk6GJQsqaUBKTNV-1">
          <mxGeometry x="4670" y="1747.75" width="120" height="60" as="geometry" />
        </mxCell>
        <mxCell id="lhZ-Mh_XOBsZGG9vvXFF-181" style="edgeStyle=orthogonalEdgeStyle;rounded=0;orthogonalLoop=1;jettySize=auto;html=1;entryX=0.5;entryY=0;entryDx=0;entryDy=0;" edge="1" parent="WIyWlLk6GJQsqaUBKTNV-1" source="lhZ-Mh_XOBsZGG9vvXFF-175" target="lhZ-Mh_XOBsZGG9vvXFF-179">
          <mxGeometry relative="1" as="geometry" />
        </mxCell>
        <mxCell id="lhZ-Mh_XOBsZGG9vvXFF-190" style="edgeStyle=orthogonalEdgeStyle;rounded=0;orthogonalLoop=1;jettySize=auto;html=1;entryX=0;entryY=0.5;entryDx=0;entryDy=0;" edge="1" parent="WIyWlLk6GJQsqaUBKTNV-1" source="lhZ-Mh_XOBsZGG9vvXFF-175" target="lhZ-Mh_XOBsZGG9vvXFF-177">
          <mxGeometry relative="1" as="geometry" />
        </mxCell>
        <mxCell id="lhZ-Mh_XOBsZGG9vvXFF-175" value="Цикл по всем корректным приказам" style="shape=hexagon;perimeter=hexagonPerimeter2;whiteSpace=wrap;html=1;fixedSize=1;" vertex="1" parent="WIyWlLk6GJQsqaUBKTNV-1">
          <mxGeometry x="4461.25" y="1877.75" width="120" height="80" as="geometry" />
        </mxCell>
        <mxCell id="lhZ-Mh_XOBsZGG9vvXFF-184" style="edgeStyle=orthogonalEdgeStyle;rounded=0;orthogonalLoop=1;jettySize=auto;html=1;entryX=0.5;entryY=0;entryDx=0;entryDy=0;" edge="1" parent="WIyWlLk6GJQsqaUBKTNV-1" source="lhZ-Mh_XOBsZGG9vvXFF-177" target="lhZ-Mh_XOBsZGG9vvXFF-183">
          <mxGeometry relative="1" as="geometry" />
        </mxCell>
        <mxCell id="lhZ-Mh_XOBsZGG9vvXFF-177" value="SetNextLine(MoveOrder)" style="rounded=0;whiteSpace=wrap;html=1;" vertex="1" parent="WIyWlLk6GJQsqaUBKTNV-1">
          <mxGeometry x="4696.25" y="1899" width="167.5" height="40" as="geometry" />
        </mxCell>
        <mxCell id="lhZ-Mh_XOBsZGG9vvXFF-182" style="edgeStyle=orthogonalEdgeStyle;rounded=0;orthogonalLoop=1;jettySize=auto;html=1;entryX=0.5;entryY=0;entryDx=0;entryDy=0;" edge="1" parent="WIyWlLk6GJQsqaUBKTNV-1" source="lhZ-Mh_XOBsZGG9vvXFF-179" target="lhZ-Mh_XOBsZGG9vvXFF-180">
          <mxGeometry relative="1" as="geometry" />
        </mxCell>
        <mxCell id="lhZ-Mh_XOBsZGG9vvXFF-179" value="Сообщение об ошибке" style="rounded=0;whiteSpace=wrap;html=1;" vertex="1" parent="WIyWlLk6GJQsqaUBKTNV-1">
          <mxGeometry x="4446.25" y="2047.75" width="150" height="37.5" as="geometry" />
        </mxCell>
        <mxCell id="lhZ-Mh_XOBsZGG9vvXFF-180" value="Завершение работы" style="rounded=1;whiteSpace=wrap;html=1;fillColor=#60a917;strokeColor=#2D7600;fontColor=#ffffff;" vertex="1" parent="WIyWlLk6GJQsqaUBKTNV-1">
          <mxGeometry x="4461.25" y="2127.75" width="120" height="60" as="geometry" />
        </mxCell>
        <mxCell id="lhZ-Mh_XOBsZGG9vvXFF-189" style="edgeStyle=orthogonalEdgeStyle;rounded=0;orthogonalLoop=1;jettySize=auto;html=1;exitX=0.5;exitY=1;exitDx=0;exitDy=0;entryX=0.5;entryY=0;entryDx=0;entryDy=0;" edge="1" parent="WIyWlLk6GJQsqaUBKTNV-1" source="lhZ-Mh_XOBsZGG9vvXFF-183" target="lhZ-Mh_XOBsZGG9vvXFF-179">
          <mxGeometry relative="1" as="geometry" />
        </mxCell>
        <mxCell id="lhZ-Mh_XOBsZGG9vvXFF-193" style="edgeStyle=orthogonalEdgeStyle;rounded=0;orthogonalLoop=1;jettySize=auto;html=1;exitX=1;exitY=0.5;exitDx=0;exitDy=0;entryX=0;entryY=0.5;entryDx=0;entryDy=0;" edge="1" parent="WIyWlLk6GJQsqaUBKTNV-1" source="lhZ-Mh_XOBsZGG9vvXFF-183" target="lhZ-Mh_XOBsZGG9vvXFF-191">
          <mxGeometry relative="1" as="geometry">
            <Array as="points">
              <mxPoint x="4930" y="2024" />
              <mxPoint x="4930" y="1973" />
            </Array>
          </mxGeometry>
        </mxCell>
        <mxCell id="lhZ-Mh_XOBsZGG9vvXFF-183" value="ClickedLineKey == NULL или&lt;div&gt;MoveOrder.LineKey == ClickedLineKey&lt;/div&gt;" style="shape=parallelogram;perimeter=parallelogramPerimeter;whiteSpace=wrap;html=1;fixedSize=1;" vertex="1" parent="WIyWlLk6GJQsqaUBKTNV-1">
          <mxGeometry x="4655" y="1989" width="250" height="70" as="geometry" />
        </mxCell>
        <mxCell id="lhZ-Mh_XOBsZGG9vvXFF-192" style="edgeStyle=orthogonalEdgeStyle;rounded=0;orthogonalLoop=1;jettySize=auto;html=1;entryX=0.5;entryY=0;entryDx=0;entryDy=0;" edge="1" parent="WIyWlLk6GJQsqaUBKTNV-1" source="lhZ-Mh_XOBsZGG9vvXFF-191" target="lhZ-Mh_XOBsZGG9vvXFF-175">
          <mxGeometry relative="1" as="geometry">
            <mxPoint x="5006.25" y="1817.75" as="targetPoint" />
            <Array as="points">
              <mxPoint x="5166.25" y="1977.75" />
              <mxPoint x="5166.25" y="1817.75" />
              <mxPoint x="4521.25" y="1817.75" />
            </Array>
          </mxGeometry>
        </mxCell>
        <mxCell id="lhZ-Mh_XOBsZGG9vvXFF-196" style="edgeStyle=orthogonalEdgeStyle;rounded=0;orthogonalLoop=1;jettySize=auto;html=1;exitX=0.5;exitY=1;exitDx=0;exitDy=0;entryX=0.5;entryY=0;entryDx=0;entryDy=0;" edge="1" parent="WIyWlLk6GJQsqaUBKTNV-1" source="lhZ-Mh_XOBsZGG9vvXFF-191" target="lhZ-Mh_XOBsZGG9vvXFF-194">
          <mxGeometry relative="1" as="geometry" />
        </mxCell>
        <mxCell id="lhZ-Mh_XOBsZGG9vvXFF-191" value="Тележка не найдена и&lt;div&gt;приказ не взят&lt;/div&gt;" style="shape=parallelogram;perimeter=parallelogramPerimeter;whiteSpace=wrap;html=1;fixedSize=1;" vertex="1" parent="WIyWlLk6GJQsqaUBKTNV-1">
          <mxGeometry x="4961.25" y="1942.75" width="160" height="60" as="geometry" />
        </mxCell>
        <mxCell id="lhZ-Mh_XOBsZGG9vvXFF-195" style="edgeStyle=orthogonalEdgeStyle;rounded=0;orthogonalLoop=1;jettySize=auto;html=1;exitX=1;exitY=0.5;exitDx=0;exitDy=0;entryX=0.5;entryY=0;entryDx=0;entryDy=0;" edge="1" parent="WIyWlLk6GJQsqaUBKTNV-1" source="lhZ-Mh_XOBsZGG9vvXFF-194" target="lhZ-Mh_XOBsZGG9vvXFF-175">
          <mxGeometry relative="1" as="geometry">
            <mxPoint x="4526.25" y="1817.75" as="targetPoint" />
            <Array as="points">
              <mxPoint x="5166.25" y="2047.75" />
              <mxPoint x="5166.25" y="1817.75" />
              <mxPoint x="4521.25" y="1817.75" />
            </Array>
          </mxGeometry>
        </mxCell>
        <mxCell id="lhZ-Mh_XOBsZGG9vvXFF-198" style="edgeStyle=orthogonalEdgeStyle;rounded=0;orthogonalLoop=1;jettySize=auto;html=1;entryX=0.5;entryY=0;entryDx=0;entryDy=0;" edge="1" parent="WIyWlLk6GJQsqaUBKTNV-1" source="lhZ-Mh_XOBsZGG9vvXFF-194" target="lhZ-Mh_XOBsZGG9vvXFF-197">
          <mxGeometry relative="1" as="geometry" />
        </mxCell>
        <mxCell id="lhZ-Mh_XOBsZGG9vvXFF-194" value="Тележка найдена и&lt;div&gt;длина номер SSCC = 18&lt;/div&gt;" style="shape=parallelogram;perimeter=parallelogramPerimeter;whiteSpace=wrap;html=1;fixedSize=1;" vertex="1" parent="WIyWlLk6GJQsqaUBKTNV-1">
          <mxGeometry x="4958.75" y="2017.75" width="165" height="60" as="geometry" />
        </mxCell>
        <mxCell id="lhZ-Mh_XOBsZGG9vvXFF-200" style="edgeStyle=orthogonalEdgeStyle;rounded=0;orthogonalLoop=1;jettySize=auto;html=1;entryX=0;entryY=0.5;entryDx=0;entryDy=0;" edge="1" parent="WIyWlLk6GJQsqaUBKTNV-1" source="lhZ-Mh_XOBsZGG9vvXFF-197" target="lhZ-Mh_XOBsZGG9vvXFF-199">
          <mxGeometry relative="1" as="geometry" />
        </mxCell>
        <mxCell id="lhZ-Mh_XOBsZGG9vvXFF-204" style="edgeStyle=orthogonalEdgeStyle;rounded=0;orthogonalLoop=1;jettySize=auto;html=1;entryX=0.5;entryY=0;entryDx=0;entryDy=0;" edge="1" parent="WIyWlLk6GJQsqaUBKTNV-1" source="lhZ-Mh_XOBsZGG9vvXFF-197" target="lhZ-Mh_XOBsZGG9vvXFF-203">
          <mxGeometry relative="1" as="geometry" />
        </mxCell>
        <mxCell id="lhZ-Mh_XOBsZGG9vvXFF-197" value="Отсканированная ячейка является ячейкой перехвата" style="shape=parallelogram;perimeter=parallelogramPerimeter;whiteSpace=wrap;html=1;fixedSize=1;" vertex="1" parent="WIyWlLk6GJQsqaUBKTNV-1">
          <mxGeometry x="4943.75" y="2117.75" width="195" height="80" as="geometry" />
        </mxCell>
        <mxCell id="lhZ-Mh_XOBsZGG9vvXFF-202" style="edgeStyle=orthogonalEdgeStyle;rounded=0;orthogonalLoop=1;jettySize=auto;html=1;entryX=0.5;entryY=0;entryDx=0;entryDy=0;" edge="1" parent="WIyWlLk6GJQsqaUBKTNV-1" source="lhZ-Mh_XOBsZGG9vvXFF-199" target="lhZ-Mh_XOBsZGG9vvXFF-201">
          <mxGeometry relative="1" as="geometry" />
        </mxCell>
        <mxCell id="lhZ-Mh_XOBsZGG9vvXFF-199" value="ChooseOrderDirection = false&lt;div&gt;MoveOrder.SetInterceptCellScanned&lt;br&gt;&lt;/div&gt;&lt;div&gt;ShowGroupArrangement = false&lt;br&gt;&lt;/div&gt;&lt;div&gt;Сигнал: данные на терминале изменились&lt;/div&gt;&lt;div&gt;звук: приказ выполнен&lt;/div&gt;" style="rounded=0;whiteSpace=wrap;html=1;" vertex="1" parent="WIyWlLk6GJQsqaUBKTNV-1">
          <mxGeometry x="5206.25" y="2107.75" width="220" height="100" as="geometry" />
        </mxCell>
        <mxCell id="lhZ-Mh_XOBsZGG9vvXFF-201" value="Завершение работы" style="rounded=1;whiteSpace=wrap;html=1;fillColor=#008a00;strokeColor=#005700;fontColor=#ffffff;" vertex="1" parent="WIyWlLk6GJQsqaUBKTNV-1">
          <mxGeometry x="5256.25" y="2247.75" width="120" height="60" as="geometry" />
        </mxCell>
        <mxCell id="lhZ-Mh_XOBsZGG9vvXFF-207" style="edgeStyle=orthogonalEdgeStyle;rounded=0;orthogonalLoop=1;jettySize=auto;html=1;entryX=0.5;entryY=0;entryDx=0;entryDy=0;" edge="1" parent="WIyWlLk6GJQsqaUBKTNV-1" source="lhZ-Mh_XOBsZGG9vvXFF-203" target="lhZ-Mh_XOBsZGG9vvXFF-175">
          <mxGeometry relative="1" as="geometry">
            <mxPoint x="4516.25" y="1817.75" as="targetPoint" />
            <Array as="points">
              <mxPoint x="5466.25" y="2377.75" />
              <mxPoint x="5466.25" y="1817.75" />
              <mxPoint x="4521.25" y="1817.75" />
            </Array>
          </mxGeometry>
        </mxCell>
        <mxCell id="lhZ-Mh_XOBsZGG9vvXFF-209" style="edgeStyle=orthogonalEdgeStyle;rounded=0;orthogonalLoop=1;jettySize=auto;html=1;exitX=0.5;exitY=1;exitDx=0;exitDy=0;entryX=0.5;entryY=0;entryDx=0;entryDy=0;" edge="1" parent="WIyWlLk6GJQsqaUBKTNV-1" source="lhZ-Mh_XOBsZGG9vvXFF-203" target="lhZ-Mh_XOBsZGG9vvXFF-208">
          <mxGeometry relative="1" as="geometry" />
        </mxCell>
        <mxCell id="lhZ-Mh_XOBsZGG9vvXFF-203" value="Нужно пересчитать ячейку-куда приказа" style="shape=parallelogram;perimeter=parallelogramPerimeter;whiteSpace=wrap;html=1;fixedSize=1;" vertex="1" parent="WIyWlLk6GJQsqaUBKTNV-1">
          <mxGeometry x="4967.51" y="2357.75" width="147.5" height="40" as="geometry" />
        </mxCell>
        <mxCell id="lhZ-Mh_XOBsZGG9vvXFF-210" style="edgeStyle=orthogonalEdgeStyle;rounded=0;orthogonalLoop=1;jettySize=auto;html=1;exitX=1;exitY=0.5;exitDx=0;exitDy=0;entryX=0.5;entryY=0;entryDx=0;entryDy=0;" edge="1" parent="WIyWlLk6GJQsqaUBKTNV-1" source="lhZ-Mh_XOBsZGG9vvXFF-208" target="lhZ-Mh_XOBsZGG9vvXFF-175">
          <mxGeometry relative="1" as="geometry">
            <mxPoint x="4516.25" y="1817.75" as="targetPoint" />
            <Array as="points">
              <mxPoint x="5466.25" y="2437.75" />
              <mxPoint x="5466.25" y="1817.75" />
              <mxPoint x="4521.25" y="1817.75" />
            </Array>
          </mxGeometry>
        </mxCell>
        <mxCell id="lhZ-Mh_XOBsZGG9vvXFF-212" style="edgeStyle=orthogonalEdgeStyle;rounded=0;orthogonalLoop=1;jettySize=auto;html=1;entryX=0.5;entryY=0;entryDx=0;entryDy=0;" edge="1" parent="WIyWlLk6GJQsqaUBKTNV-1" source="lhZ-Mh_XOBsZGG9vvXFF-208" target="lhZ-Mh_XOBsZGG9vvXFF-211">
          <mxGeometry relative="1" as="geometry" />
        </mxCell>
        <mxCell id="lhZ-Mh_XOBsZGG9vvXFF-208" value="Приказ не корректен" style="shape=parallelogram;perimeter=parallelogramPerimeter;whiteSpace=wrap;html=1;fixedSize=1;" vertex="1" parent="WIyWlLk6GJQsqaUBKTNV-1">
          <mxGeometry x="4967.51" y="2417.75" width="147.5" height="40" as="geometry" />
        </mxCell>
        <mxCell id="lhZ-Mh_XOBsZGG9vvXFF-213" style="edgeStyle=orthogonalEdgeStyle;rounded=0;orthogonalLoop=1;jettySize=auto;html=1;entryX=0.5;entryY=0;entryDx=0;entryDy=0;" edge="1" parent="WIyWlLk6GJQsqaUBKTNV-1" source="lhZ-Mh_XOBsZGG9vvXFF-211" target="lhZ-Mh_XOBsZGG9vvXFF-175">
          <mxGeometry relative="1" as="geometry">
            <mxPoint x="4526.25" y="1817.75" as="targetPoint" />
            <Array as="points">
              <mxPoint x="5466.25" y="2502.75" />
              <mxPoint x="5466.25" y="1817.75" />
              <mxPoint x="4521.25" y="1817.75" />
            </Array>
          </mxGeometry>
        </mxCell>
        <mxCell id="lhZ-Mh_XOBsZGG9vvXFF-216" style="edgeStyle=orthogonalEdgeStyle;rounded=0;orthogonalLoop=1;jettySize=auto;html=1;entryX=0.5;entryY=0;entryDx=0;entryDy=0;" edge="1" parent="WIyWlLk6GJQsqaUBKTNV-1" source="lhZ-Mh_XOBsZGG9vvXFF-211" target="lhZ-Mh_XOBsZGG9vvXFF-215">
          <mxGeometry relative="1" as="geometry" />
        </mxCell>
        <mxCell id="lhZ-Mh_XOBsZGG9vvXFF-211" value="CartIsScanned = true&lt;div&gt;MoveOrder.FindSSCC = false&lt;br&gt;&lt;/div&gt;&lt;div&gt;CartsNotFinded = false&lt;/div&gt;" style="shape=parallelogram;perimeter=parallelogramPerimeter;whiteSpace=wrap;html=1;fixedSize=1;" vertex="1" parent="WIyWlLk6GJQsqaUBKTNV-1">
          <mxGeometry x="4946.88" y="2477.75" width="188.75" height="50" as="geometry" />
        </mxCell>
        <mxCell id="lhZ-Mh_XOBsZGG9vvXFF-246" style="edgeStyle=orthogonalEdgeStyle;rounded=0;orthogonalLoop=1;jettySize=auto;html=1;entryX=0;entryY=0.5;entryDx=0;entryDy=0;" edge="1" parent="WIyWlLk6GJQsqaUBKTNV-1" source="lhZ-Mh_XOBsZGG9vvXFF-215" target="lhZ-Mh_XOBsZGG9vvXFF-245">
          <mxGeometry relative="1" as="geometry" />
        </mxCell>
        <mxCell id="lhZ-Mh_XOBsZGG9vvXFF-255" style="edgeStyle=orthogonalEdgeStyle;rounded=0;orthogonalLoop=1;jettySize=auto;html=1;exitX=0.5;exitY=1;exitDx=0;exitDy=0;entryX=0.5;entryY=0;entryDx=0;entryDy=0;" edge="1" parent="WIyWlLk6GJQsqaUBKTNV-1" source="lhZ-Mh_XOBsZGG9vvXFF-215" target="lhZ-Mh_XOBsZGG9vvXFF-254">
          <mxGeometry relative="1" as="geometry" />
        </mxCell>
        <mxCell id="lhZ-Mh_XOBsZGG9vvXFF-215" value="GetChooseCellAnswer или&lt;div&gt;IsEnableTrainingMode и&lt;br&gt;&lt;/div&gt;&lt;div&gt;(IsSSCCScanned или&lt;/div&gt;&lt;div&gt;&lt;span style=&quot;background-color: initial;&quot;&gt;GetLineKey() = m_nClickedLineKey&lt;/span&gt;&lt;span style=&quot;background-color: initial;&quot;&gt;) и&lt;/span&gt;&lt;br&gt;&lt;/div&gt;&lt;div&gt;&lt;span style=&quot;background-color: initial;&quot;&gt;CompareCellToNoStrictly&lt;/span&gt;&lt;/div&gt;" style="shape=parallelogram;perimeter=parallelogramPerimeter;whiteSpace=wrap;html=1;fixedSize=1;" vertex="1" parent="WIyWlLk6GJQsqaUBKTNV-1">
          <mxGeometry x="4946.88" y="2577.75" width="188.75" height="100" as="geometry" />
        </mxCell>
        <mxCell id="lhZ-Mh_XOBsZGG9vvXFF-222" style="edgeStyle=orthogonalEdgeStyle;rounded=0;orthogonalLoop=1;jettySize=auto;html=1;entryX=0.5;entryY=0;entryDx=0;entryDy=0;" edge="1" source="lhZ-Mh_XOBsZGG9vvXFF-223" target="lhZ-Mh_XOBsZGG9vvXFF-224" parent="WIyWlLk6GJQsqaUBKTNV-1">
          <mxGeometry relative="1" as="geometry" />
        </mxCell>
        <mxCell id="lhZ-Mh_XOBsZGG9vvXFF-223" value="Сообщение об ошибке (Адрес содержит код другого склада. Замена невозможна)" style="rounded=0;whiteSpace=wrap;html=1;" vertex="1" parent="WIyWlLk6GJQsqaUBKTNV-1">
          <mxGeometry x="5661.25" y="2580.25" width="150" height="95" as="geometry" />
        </mxCell>
        <mxCell id="lhZ-Mh_XOBsZGG9vvXFF-224" value="Завершение работы" style="rounded=1;whiteSpace=wrap;html=1;fillColor=#60a917;strokeColor=#2D7600;fontColor=#ffffff;" vertex="1" parent="WIyWlLk6GJQsqaUBKTNV-1">
          <mxGeometry x="5676.25" y="2717.75" width="120" height="60" as="geometry" />
        </mxCell>
        <mxCell id="lhZ-Mh_XOBsZGG9vvXFF-225" style="edgeStyle=orthogonalEdgeStyle;rounded=0;orthogonalLoop=1;jettySize=auto;html=1;entryX=0.5;entryY=0;entryDx=0;entryDy=0;" edge="1" source="lhZ-Mh_XOBsZGG9vvXFF-227" target="lhZ-Mh_XOBsZGG9vvXFF-228" parent="WIyWlLk6GJQsqaUBKTNV-1">
          <mxGeometry relative="1" as="geometry" />
        </mxCell>
        <mxCell id="lhZ-Mh_XOBsZGG9vvXFF-251" style="edgeStyle=orthogonalEdgeStyle;rounded=0;orthogonalLoop=1;jettySize=auto;html=1;exitX=1;exitY=0.5;exitDx=0;exitDy=0;entryX=0;entryY=0.5;entryDx=0;entryDy=0;" edge="1" parent="WIyWlLk6GJQsqaUBKTNV-1" source="lhZ-Mh_XOBsZGG9vvXFF-227" target="lhZ-Mh_XOBsZGG9vvXFF-250">
          <mxGeometry relative="1" as="geometry" />
        </mxCell>
        <mxCell id="lhZ-Mh_XOBsZGG9vvXFF-227" value="Вопрос пользователю:&lt;div&gt;Отсканирована ячейка #. Продолжить размещение всех товаров паллеты в ячейку?&lt;br&gt;&lt;/div&gt;" style="shape=parallelogram;perimeter=parallelogramPerimeter;whiteSpace=wrap;html=1;fixedSize=1;" vertex="1" parent="WIyWlLk6GJQsqaUBKTNV-1">
          <mxGeometry x="5196.25" y="2710.25" width="280" height="90" as="geometry" />
        </mxCell>
        <mxCell id="lhZ-Mh_XOBsZGG9vvXFF-228" value="Завершение работы" style="rounded=1;whiteSpace=wrap;html=1;fillColor=#60a917;strokeColor=#2D7600;fontColor=#ffffff;" vertex="1" parent="WIyWlLk6GJQsqaUBKTNV-1">
          <mxGeometry x="5276.25" y="2840.25" width="120" height="60" as="geometry" />
        </mxCell>
        <mxCell id="lhZ-Mh_XOBsZGG9vvXFF-248" style="edgeStyle=orthogonalEdgeStyle;rounded=0;orthogonalLoop=1;jettySize=auto;html=1;exitX=1;exitY=0.5;exitDx=0;exitDy=0;entryX=0;entryY=0.5;entryDx=0;entryDy=0;" edge="1" parent="WIyWlLk6GJQsqaUBKTNV-1" source="lhZ-Mh_XOBsZGG9vvXFF-245" target="lhZ-Mh_XOBsZGG9vvXFF-223">
          <mxGeometry relative="1" as="geometry" />
        </mxCell>
        <mxCell id="lhZ-Mh_XOBsZGG9vvXFF-249" style="edgeStyle=orthogonalEdgeStyle;rounded=0;orthogonalLoop=1;jettySize=auto;html=1;entryX=0.5;entryY=0;entryDx=0;entryDy=0;" edge="1" parent="WIyWlLk6GJQsqaUBKTNV-1" source="lhZ-Mh_XOBsZGG9vvXFF-245" target="lhZ-Mh_XOBsZGG9vvXFF-227">
          <mxGeometry relative="1" as="geometry" />
        </mxCell>
        <mxCell id="lhZ-Mh_XOBsZGG9vvXFF-245" value="Сканированные данные содержат код склада и&lt;div&gt;&lt;div&gt;код склада приказа не равен коду из сканированных данных&lt;/div&gt;&lt;/div&gt;" style="shape=parallelogram;perimeter=parallelogramPerimeter;whiteSpace=wrap;html=1;fixedSize=1;" vertex="1" parent="WIyWlLk6GJQsqaUBKTNV-1">
          <mxGeometry x="5176.25" y="2602.75" width="320" height="50" as="geometry" />
        </mxCell>
        <mxCell id="lhZ-Mh_XOBsZGG9vvXFF-253" style="edgeStyle=orthogonalEdgeStyle;rounded=0;orthogonalLoop=1;jettySize=auto;html=1;entryX=0.5;entryY=0;entryDx=0;entryDy=0;" edge="1" parent="WIyWlLk6GJQsqaUBKTNV-1" source="lhZ-Mh_XOBsZGG9vvXFF-250" target="lhZ-Mh_XOBsZGG9vvXFF-252">
          <mxGeometry relative="1" as="geometry" />
        </mxCell>
        <mxCell id="lhZ-Mh_XOBsZGG9vvXFF-250" value="RecalculateCellTo = true&lt;div&gt;MoveOrder.ChangeCellTo&lt;br&gt;&lt;/div&gt;&lt;div&gt;звук: Ок&lt;/div&gt;&lt;div&gt;сигнал: данные на терминале изменились&lt;/div&gt;" style="rounded=0;whiteSpace=wrap;html=1;" vertex="1" parent="WIyWlLk6GJQsqaUBKTNV-1">
          <mxGeometry x="5496.25" y="2707.75" width="150" height="95" as="geometry" />
        </mxCell>
        <mxCell id="lhZ-Mh_XOBsZGG9vvXFF-252" value="Завершение работы" style="rounded=1;whiteSpace=wrap;html=1;fillColor=#008a00;strokeColor=#005700;fontColor=#ffffff;" vertex="1" parent="WIyWlLk6GJQsqaUBKTNV-1">
          <mxGeometry x="5511.25" y="2840.25" width="120" height="60" as="geometry" />
        </mxCell>
        <mxCell id="lhZ-Mh_XOBsZGG9vvXFF-256" style="edgeStyle=orthogonalEdgeStyle;rounded=0;orthogonalLoop=1;jettySize=auto;html=1;exitX=0.5;exitY=1;exitDx=0;exitDy=0;" edge="1" parent="WIyWlLk6GJQsqaUBKTNV-1" source="lhZ-Mh_XOBsZGG9vvXFF-254" target="lhZ-Mh_XOBsZGG9vvXFF-175">
          <mxGeometry relative="1" as="geometry">
            <mxPoint x="4521" y="1880" as="targetPoint" />
            <mxPoint x="4946.25" y="3367.75" as="sourcePoint" />
            <Array as="points">
              <mxPoint x="5041" y="3750" />
              <mxPoint x="5860" y="3750" />
              <mxPoint x="5860" y="1820" />
              <mxPoint x="4521" y="1820" />
            </Array>
          </mxGeometry>
        </mxCell>
        <mxCell id="lhZ-Mh_XOBsZGG9vvXFF-258" style="edgeStyle=orthogonalEdgeStyle;rounded=0;orthogonalLoop=1;jettySize=auto;html=1;exitX=1;exitY=0.5;exitDx=0;exitDy=0;entryX=0;entryY=0.5;entryDx=0;entryDy=0;" edge="1" parent="WIyWlLk6GJQsqaUBKTNV-1" source="lhZ-Mh_XOBsZGG9vvXFF-254" target="lhZ-Mh_XOBsZGG9vvXFF-257">
          <mxGeometry relative="1" as="geometry" />
        </mxCell>
        <mxCell id="lhZ-Mh_XOBsZGG9vvXFF-254" value="Отсканирована ячейка-куда" style="shape=parallelogram;perimeter=parallelogramPerimeter;whiteSpace=wrap;html=1;fixedSize=1;" vertex="1" parent="WIyWlLk6GJQsqaUBKTNV-1">
          <mxGeometry x="4941.57" y="2977.75" width="199.37" height="40" as="geometry" />
        </mxCell>
        <mxCell id="lhZ-Mh_XOBsZGG9vvXFF-260" style="edgeStyle=orthogonalEdgeStyle;rounded=0;orthogonalLoop=1;jettySize=auto;html=1;" edge="1" parent="WIyWlLk6GJQsqaUBKTNV-1" source="lhZ-Mh_XOBsZGG9vvXFF-257" target="lhZ-Mh_XOBsZGG9vvXFF-259">
          <mxGeometry relative="1" as="geometry" />
        </mxCell>
        <mxCell id="lhZ-Mh_XOBsZGG9vvXFF-257" value="ChooseOrderDirection = false&lt;div&gt;MoveOrder.SetCellToScanned&lt;br&gt;&lt;/div&gt;&lt;div&gt;ShowGroupArrangement = false&lt;br&gt;&lt;/div&gt;" style="rounded=0;whiteSpace=wrap;html=1;" vertex="1" parent="WIyWlLk6GJQsqaUBKTNV-1">
          <mxGeometry x="5286.25" y="2967.75" width="260" height="60" as="geometry" />
        </mxCell>
        <mxCell id="lhZ-Mh_XOBsZGG9vvXFF-262" style="edgeStyle=orthogonalEdgeStyle;rounded=0;orthogonalLoop=1;jettySize=auto;html=1;exitX=1;exitY=0.5;exitDx=0;exitDy=0;entryX=0;entryY=0.5;entryDx=0;entryDy=0;" edge="1" parent="WIyWlLk6GJQsqaUBKTNV-1" source="lhZ-Mh_XOBsZGG9vvXFF-259" target="lhZ-Mh_XOBsZGG9vvXFF-261">
          <mxGeometry relative="1" as="geometry" />
        </mxCell>
        <mxCell id="lhZ-Mh_XOBsZGG9vvXFF-267" style="edgeStyle=orthogonalEdgeStyle;rounded=0;orthogonalLoop=1;jettySize=auto;html=1;entryX=0.5;entryY=0;entryDx=0;entryDy=0;" edge="1" parent="WIyWlLk6GJQsqaUBKTNV-1" source="lhZ-Mh_XOBsZGG9vvXFF-259" target="lhZ-Mh_XOBsZGG9vvXFF-263">
          <mxGeometry relative="1" as="geometry" />
        </mxCell>
        <mxCell id="lhZ-Mh_XOBsZGG9vvXFF-259" value="Есть миссинг" style="shape=parallelogram;perimeter=parallelogramPerimeter;whiteSpace=wrap;html=1;fixedSize=1;" vertex="1" parent="WIyWlLk6GJQsqaUBKTNV-1">
          <mxGeometry x="5346.25" y="3067.75" width="140" height="30" as="geometry" />
        </mxCell>
        <mxCell id="lhZ-Mh_XOBsZGG9vvXFF-261" value="MoveOrder.MarkAsMissing" style="rounded=0;whiteSpace=wrap;html=1;" vertex="1" parent="WIyWlLk6GJQsqaUBKTNV-1">
          <mxGeometry x="5571.25" y="3052.75" width="180" height="60" as="geometry" />
        </mxCell>
        <mxCell id="lhZ-Mh_XOBsZGG9vvXFF-269" style="edgeStyle=orthogonalEdgeStyle;rounded=0;orthogonalLoop=1;jettySize=auto;html=1;entryX=0;entryY=0.5;entryDx=0;entryDy=0;" edge="1" parent="WIyWlLk6GJQsqaUBKTNV-1" source="lhZ-Mh_XOBsZGG9vvXFF-263" target="lhZ-Mh_XOBsZGG9vvXFF-268">
          <mxGeometry relative="1" as="geometry" />
        </mxCell>
        <mxCell id="lhZ-Mh_XOBsZGG9vvXFF-273" style="edgeStyle=orthogonalEdgeStyle;rounded=0;orthogonalLoop=1;jettySize=auto;html=1;entryX=0.5;entryY=0;entryDx=0;entryDy=0;" edge="1" parent="WIyWlLk6GJQsqaUBKTNV-1" source="lhZ-Mh_XOBsZGG9vvXFF-263" target="lhZ-Mh_XOBsZGG9vvXFF-270">
          <mxGeometry relative="1" as="geometry" />
        </mxCell>
        <mxCell id="lhZ-Mh_XOBsZGG9vvXFF-263" value="Кол-во в приказе изменилось" style="shape=parallelogram;perimeter=parallelogramPerimeter;whiteSpace=wrap;html=1;fixedSize=1;" vertex="1" parent="WIyWlLk6GJQsqaUBKTNV-1">
          <mxGeometry x="5313.75" y="3157.75" width="205" height="30" as="geometry" />
        </mxCell>
        <mxCell id="lhZ-Mh_XOBsZGG9vvXFF-264" value="" style="endArrow=classic;html=1;rounded=0;entryX=0.5;entryY=0;entryDx=0;entryDy=0;exitX=0.5;exitY=1;exitDx=0;exitDy=0;" edge="1" parent="WIyWlLk6GJQsqaUBKTNV-1" source="lhZ-Mh_XOBsZGG9vvXFF-261" target="lhZ-Mh_XOBsZGG9vvXFF-263">
          <mxGeometry width="50" height="50" relative="1" as="geometry">
            <mxPoint x="5036.25" y="3167.75" as="sourcePoint" />
            <mxPoint x="5086.25" y="3117.75" as="targetPoint" />
          </mxGeometry>
        </mxCell>
        <mxCell id="lhZ-Mh_XOBsZGG9vvXFF-268" value="MoveOrder.SetAimQty&lt;div&gt;EditingCountInitialized&lt;br&gt;&lt;/div&gt;&lt;div&gt;EditingCount&lt;br&gt;&lt;/div&gt;" style="rounded=0;whiteSpace=wrap;html=1;" vertex="1" parent="WIyWlLk6GJQsqaUBKTNV-1">
          <mxGeometry x="5568.75" y="3147.75" width="185" height="50" as="geometry" />
        </mxCell>
        <mxCell id="lhZ-Mh_XOBsZGG9vvXFF-277" style="edgeStyle=orthogonalEdgeStyle;rounded=0;orthogonalLoop=1;jettySize=auto;html=1;entryX=0;entryY=0.5;entryDx=0;entryDy=0;" edge="1" parent="WIyWlLk6GJQsqaUBKTNV-1" source="lhZ-Mh_XOBsZGG9vvXFF-270" target="lhZ-Mh_XOBsZGG9vvXFF-276">
          <mxGeometry relative="1" as="geometry" />
        </mxCell>
        <mxCell id="lhZ-Mh_XOBsZGG9vvXFF-341" style="edgeStyle=orthogonalEdgeStyle;rounded=0;orthogonalLoop=1;jettySize=auto;html=1;" edge="1" parent="WIyWlLk6GJQsqaUBKTNV-1" source="lhZ-Mh_XOBsZGG9vvXFF-270" target="lhZ-Mh_XOBsZGG9vvXFF-340">
          <mxGeometry relative="1" as="geometry" />
        </mxCell>
        <mxCell id="lhZ-Mh_XOBsZGG9vvXFF-270" value="IsMustInputQtyAtArrangement" style="shape=parallelogram;perimeter=parallelogramPerimeter;whiteSpace=wrap;html=1;fixedSize=1;" vertex="1" parent="WIyWlLk6GJQsqaUBKTNV-1">
          <mxGeometry x="5313.75" y="3257.75" width="205" height="30" as="geometry" />
        </mxCell>
        <mxCell id="lhZ-Mh_XOBsZGG9vvXFF-275" value="" style="endArrow=classic;html=1;rounded=0;exitX=0.5;exitY=1;exitDx=0;exitDy=0;entryX=0.5;entryY=0;entryDx=0;entryDy=0;" edge="1" parent="WIyWlLk6GJQsqaUBKTNV-1" source="lhZ-Mh_XOBsZGG9vvXFF-268" target="lhZ-Mh_XOBsZGG9vvXFF-270">
          <mxGeometry width="50" height="50" relative="1" as="geometry">
            <mxPoint x="5036.25" y="3167.75" as="sourcePoint" />
            <mxPoint x="5086.25" y="3117.75" as="targetPoint" />
          </mxGeometry>
        </mxCell>
        <mxCell id="lhZ-Mh_XOBsZGG9vvXFF-339" style="edgeStyle=orthogonalEdgeStyle;rounded=0;orthogonalLoop=1;jettySize=auto;html=1;" edge="1" parent="WIyWlLk6GJQsqaUBKTNV-1" source="lhZ-Mh_XOBsZGG9vvXFF-276" target="lhZ-Mh_XOBsZGG9vvXFF-280">
          <mxGeometry relative="1" as="geometry">
            <Array as="points">
              <mxPoint x="5661" y="3390" />
              <mxPoint x="5416" y="3390" />
            </Array>
          </mxGeometry>
        </mxCell>
        <mxCell id="lhZ-Mh_XOBsZGG9vvXFF-276" value="SetWaitingConfirmOrSetConfirmed" style="rounded=1;whiteSpace=wrap;html=1;fillColor=#eeeeee;strokeColor=#36393d;" vertex="1" parent="WIyWlLk6GJQsqaUBKTNV-1">
          <mxGeometry x="5548.75" y="3240.25" width="225" height="65" as="geometry" />
        </mxCell>
        <mxCell id="lhZ-Mh_XOBsZGG9vvXFF-279" value="звук: приказ выполнен" style="rounded=0;whiteSpace=wrap;html=1;" vertex="1" parent="WIyWlLk6GJQsqaUBKTNV-1">
          <mxGeometry x="5557.25" y="3450" width="120" height="60" as="geometry" />
        </mxCell>
        <mxCell id="lhZ-Mh_XOBsZGG9vvXFF-282" style="edgeStyle=orthogonalEdgeStyle;rounded=0;orthogonalLoop=1;jettySize=auto;html=1;entryX=0;entryY=0.5;entryDx=0;entryDy=0;" edge="1" parent="WIyWlLk6GJQsqaUBKTNV-1" source="lhZ-Mh_XOBsZGG9vvXFF-280" target="lhZ-Mh_XOBsZGG9vvXFF-279">
          <mxGeometry relative="1" as="geometry" />
        </mxCell>
        <mxCell id="lhZ-Mh_XOBsZGG9vvXFF-284" style="edgeStyle=orthogonalEdgeStyle;rounded=0;orthogonalLoop=1;jettySize=auto;html=1;entryX=0.5;entryY=0;entryDx=0;entryDy=0;" edge="1" parent="WIyWlLk6GJQsqaUBKTNV-1" source="lhZ-Mh_XOBsZGG9vvXFF-280" target="lhZ-Mh_XOBsZGG9vvXFF-283">
          <mxGeometry relative="1" as="geometry" />
        </mxCell>
        <mxCell id="lhZ-Mh_XOBsZGG9vvXFF-280" value="Приказ подтвержден" style="shape=parallelogram;perimeter=parallelogramPerimeter;whiteSpace=wrap;html=1;fixedSize=1;" vertex="1" parent="WIyWlLk6GJQsqaUBKTNV-1">
          <mxGeometry x="5342.25" y="3460" width="148.74" height="40" as="geometry" />
        </mxCell>
        <mxCell id="lhZ-Mh_XOBsZGG9vvXFF-287" style="edgeStyle=orthogonalEdgeStyle;rounded=0;orthogonalLoop=1;jettySize=auto;html=1;entryX=0.5;entryY=0;entryDx=0;entryDy=0;" edge="1" parent="WIyWlLk6GJQsqaUBKTNV-1" source="lhZ-Mh_XOBsZGG9vvXFF-283" target="lhZ-Mh_XOBsZGG9vvXFF-286">
          <mxGeometry relative="1" as="geometry" />
        </mxCell>
        <mxCell id="lhZ-Mh_XOBsZGG9vvXFF-283" value="звук: Ок" style="rounded=0;whiteSpace=wrap;html=1;" vertex="1" parent="WIyWlLk6GJQsqaUBKTNV-1">
          <mxGeometry x="5355.99" y="3530" width="120" height="40" as="geometry" />
        </mxCell>
        <mxCell id="lhZ-Mh_XOBsZGG9vvXFF-286" value="Завершение работы" style="rounded=1;whiteSpace=wrap;html=1;fillColor=#008a00;strokeColor=#005700;fontColor=#ffffff;" vertex="1" parent="WIyWlLk6GJQsqaUBKTNV-1">
          <mxGeometry x="5355.99" y="3650" width="120" height="60" as="geometry" />
        </mxCell>
        <mxCell id="lhZ-Mh_XOBsZGG9vvXFF-288" value="" style="endArrow=classic;html=1;rounded=0;exitX=0.5;exitY=1;exitDx=0;exitDy=0;entryX=0.5;entryY=0;entryDx=0;entryDy=0;" edge="1" parent="WIyWlLk6GJQsqaUBKTNV-1" source="lhZ-Mh_XOBsZGG9vvXFF-279" target="lhZ-Mh_XOBsZGG9vvXFF-286">
          <mxGeometry width="50" height="50" relative="1" as="geometry">
            <mxPoint x="5157.25" y="3370" as="sourcePoint" />
            <mxPoint x="5207.25" y="3320" as="targetPoint" />
          </mxGeometry>
        </mxCell>
        <mxCell id="lhZ-Mh_XOBsZGG9vvXFF-290" value="" style="endArrow=classic;html=1;rounded=0;exitX=1;exitY=0.5;exitDx=0;exitDy=0;entryX=0;entryY=0.5;entryDx=0;entryDy=0;" edge="1" parent="WIyWlLk6GJQsqaUBKTNV-1" source="lhZ-Mh_XOBsZGG9vvXFF-167" target="lhZ-Mh_XOBsZGG9vvXFF-169">
          <mxGeometry relative="1" as="geometry">
            <mxPoint x="3030" y="1800" as="sourcePoint" />
            <mxPoint x="3130" y="1800" as="targetPoint" />
          </mxGeometry>
        </mxCell>
        <mxCell id="lhZ-Mh_XOBsZGG9vvXFF-291" value="Label" style="edgeLabel;resizable=0;html=1;;align=center;verticalAlign=middle;" connectable="0" vertex="1" parent="lhZ-Mh_XOBsZGG9vvXFF-290">
          <mxGeometry relative="1" as="geometry" />
        </mxCell>
        <mxCell id="lhZ-Mh_XOBsZGG9vvXFF-292" value="Вроде, не используется" style="edgeLabel;html=1;align=center;verticalAlign=middle;resizable=0;points=[];" vertex="1" connectable="0" parent="lhZ-Mh_XOBsZGG9vvXFF-290">
          <mxGeometry x="-0.0198" y="-1" relative="1" as="geometry">
            <mxPoint x="1" as="offset" />
          </mxGeometry>
        </mxCell>
        <mxCell id="lhZ-Mh_XOBsZGG9vvXFF-296" style="edgeStyle=orthogonalEdgeStyle;rounded=0;orthogonalLoop=1;jettySize=auto;html=1;" edge="1" parent="WIyWlLk6GJQsqaUBKTNV-1" source="lhZ-Mh_XOBsZGG9vvXFF-293" target="lhZ-Mh_XOBsZGG9vvXFF-295">
          <mxGeometry relative="1" as="geometry" />
        </mxCell>
        <mxCell id="lhZ-Mh_XOBsZGG9vvXFF-301" style="edgeStyle=orthogonalEdgeStyle;rounded=0;orthogonalLoop=1;jettySize=auto;html=1;" edge="1" parent="WIyWlLk6GJQsqaUBKTNV-1" source="lhZ-Mh_XOBsZGG9vvXFF-293" target="lhZ-Mh_XOBsZGG9vvXFF-300">
          <mxGeometry relative="1" as="geometry" />
        </mxCell>
        <mxCell id="lhZ-Mh_XOBsZGG9vvXFF-293" value="Цикл по всем корректным приказам" style="shape=hexagon;perimeter=hexagonPerimeter2;whiteSpace=wrap;html=1;fixedSize=1;" vertex="1" parent="WIyWlLk6GJQsqaUBKTNV-1">
          <mxGeometry x="2912.5" y="1808.75" width="145" height="80" as="geometry" />
        </mxCell>
        <mxCell id="lhZ-Mh_XOBsZGG9vvXFF-298" style="edgeStyle=orthogonalEdgeStyle;rounded=0;orthogonalLoop=1;jettySize=auto;html=1;" edge="1" parent="WIyWlLk6GJQsqaUBKTNV-1" source="lhZ-Mh_XOBsZGG9vvXFF-295" target="lhZ-Mh_XOBsZGG9vvXFF-297">
          <mxGeometry relative="1" as="geometry" />
        </mxCell>
        <mxCell id="lhZ-Mh_XOBsZGG9vvXFF-295" value="SetNextLine(MoveOrder)" style="rounded=0;whiteSpace=wrap;html=1;" vertex="1" parent="WIyWlLk6GJQsqaUBKTNV-1">
          <mxGeometry x="3125" y="1828.13" width="195" height="41.25" as="geometry" />
        </mxCell>
        <mxCell id="lhZ-Mh_XOBsZGG9vvXFF-302" style="edgeStyle=orthogonalEdgeStyle;rounded=0;orthogonalLoop=1;jettySize=auto;html=1;entryX=0.5;entryY=0;entryDx=0;entryDy=0;" edge="1" parent="WIyWlLk6GJQsqaUBKTNV-1" source="lhZ-Mh_XOBsZGG9vvXFF-297" target="lhZ-Mh_XOBsZGG9vvXFF-300">
          <mxGeometry relative="1" as="geometry">
            <Array as="points">
              <mxPoint x="3223" y="1990" />
              <mxPoint x="2985" y="1990" />
            </Array>
          </mxGeometry>
        </mxCell>
        <mxCell id="lhZ-Mh_XOBsZGG9vvXFF-313" style="edgeStyle=orthogonalEdgeStyle;rounded=0;orthogonalLoop=1;jettySize=auto;html=1;" edge="1" parent="WIyWlLk6GJQsqaUBKTNV-1" source="lhZ-Mh_XOBsZGG9vvXFF-297" target="lhZ-Mh_XOBsZGG9vvXFF-312">
          <mxGeometry relative="1" as="geometry" />
        </mxCell>
        <mxCell id="lhZ-Mh_XOBsZGG9vvXFF-297" value="Не отсканирована ячейка-куда" style="shape=parallelogram;perimeter=parallelogramPerimeter;whiteSpace=wrap;html=1;fixedSize=1;" vertex="1" parent="WIyWlLk6GJQsqaUBKTNV-1">
          <mxGeometry x="3152.5" y="1899" width="140" height="70" as="geometry" />
        </mxCell>
        <mxCell id="lhZ-Mh_XOBsZGG9vvXFF-306" style="edgeStyle=orthogonalEdgeStyle;rounded=0;orthogonalLoop=1;jettySize=auto;html=1;" edge="1" parent="WIyWlLk6GJQsqaUBKTNV-1" source="lhZ-Mh_XOBsZGG9vvXFF-300" target="lhZ-Mh_XOBsZGG9vvXFF-304">
          <mxGeometry relative="1" as="geometry" />
        </mxCell>
        <mxCell id="lhZ-Mh_XOBsZGG9vvXFF-309" style="edgeStyle=orthogonalEdgeStyle;rounded=0;orthogonalLoop=1;jettySize=auto;html=1;" edge="1" parent="WIyWlLk6GJQsqaUBKTNV-1" source="lhZ-Mh_XOBsZGG9vvXFF-300" target="lhZ-Mh_XOBsZGG9vvXFF-308">
          <mxGeometry relative="1" as="geometry" />
        </mxCell>
        <mxCell id="lhZ-Mh_XOBsZGG9vvXFF-300" value="&lt;div&gt;Выход из цикла был досрочным&lt;/div&gt;" style="shape=parallelogram;perimeter=parallelogramPerimeter;whiteSpace=wrap;html=1;fixedSize=1;" vertex="1" parent="WIyWlLk6GJQsqaUBKTNV-1">
          <mxGeometry x="2857.5" y="2047.75" width="255" height="40" as="geometry" />
        </mxCell>
        <mxCell id="lhZ-Mh_XOBsZGG9vvXFF-307" style="edgeStyle=orthogonalEdgeStyle;rounded=0;orthogonalLoop=1;jettySize=auto;html=1;" edge="1" parent="WIyWlLk6GJQsqaUBKTNV-1" source="lhZ-Mh_XOBsZGG9vvXFF-304" target="lhZ-Mh_XOBsZGG9vvXFF-305">
          <mxGeometry relative="1" as="geometry" />
        </mxCell>
        <mxCell id="lhZ-Mh_XOBsZGG9vvXFF-304" value="Сообщение об ошибке" style="rounded=0;whiteSpace=wrap;html=1;" vertex="1" parent="WIyWlLk6GJQsqaUBKTNV-1">
          <mxGeometry x="2925" y="2117.75" width="120" height="60" as="geometry" />
        </mxCell>
        <mxCell id="lhZ-Mh_XOBsZGG9vvXFF-305" value="Завершение работы" style="rounded=1;whiteSpace=wrap;html=1;fillColor=#60a917;strokeColor=#2D7600;fontColor=#ffffff;" vertex="1" parent="WIyWlLk6GJQsqaUBKTNV-1">
          <mxGeometry x="2925" y="2207.75" width="120" height="60" as="geometry" />
        </mxCell>
        <mxCell id="lhZ-Mh_XOBsZGG9vvXFF-311" style="edgeStyle=orthogonalEdgeStyle;rounded=0;orthogonalLoop=1;jettySize=auto;html=1;" edge="1" parent="WIyWlLk6GJQsqaUBKTNV-1" source="lhZ-Mh_XOBsZGG9vvXFF-308" target="lhZ-Mh_XOBsZGG9vvXFF-310">
          <mxGeometry relative="1" as="geometry" />
        </mxCell>
        <mxCell id="lhZ-Mh_XOBsZGG9vvXFF-308" value="MoveOrder.Line = 1&lt;div&gt;Сообщение об ошибке&lt;/div&gt;" style="rounded=0;whiteSpace=wrap;html=1;" vertex="1" parent="WIyWlLk6GJQsqaUBKTNV-1">
          <mxGeometry x="3150" y="2038" width="120" height="60" as="geometry" />
        </mxCell>
        <mxCell id="lhZ-Mh_XOBsZGG9vvXFF-310" value="Завершение работы" style="rounded=1;whiteSpace=wrap;html=1;fillColor=#60a917;strokeColor=#2D7600;fontColor=#ffffff;" vertex="1" parent="WIyWlLk6GJQsqaUBKTNV-1">
          <mxGeometry x="3150" y="2129.25" width="120" height="60" as="geometry" />
        </mxCell>
        <mxCell id="lhZ-Mh_XOBsZGG9vvXFF-314" style="edgeStyle=orthogonalEdgeStyle;rounded=0;orthogonalLoop=1;jettySize=auto;html=1;entryX=0.5;entryY=0;entryDx=0;entryDy=0;" edge="1" parent="WIyWlLk6GJQsqaUBKTNV-1" source="lhZ-Mh_XOBsZGG9vvXFF-312" target="lhZ-Mh_XOBsZGG9vvXFF-300">
          <mxGeometry relative="1" as="geometry">
            <Array as="points">
              <mxPoint x="3460" y="1990" />
              <mxPoint x="2985" y="1990" />
            </Array>
          </mxGeometry>
        </mxCell>
        <mxCell id="lhZ-Mh_XOBsZGG9vvXFF-316" style="edgeStyle=orthogonalEdgeStyle;rounded=0;orthogonalLoop=1;jettySize=auto;html=1;" edge="1" parent="WIyWlLk6GJQsqaUBKTNV-1" source="lhZ-Mh_XOBsZGG9vvXFF-312" target="lhZ-Mh_XOBsZGG9vvXFF-315">
          <mxGeometry relative="1" as="geometry" />
        </mxCell>
        <mxCell id="lhZ-Mh_XOBsZGG9vvXFF-312" value="ClickedLineKey == NULL или&lt;div&gt;MoveOrder.LineKey == ClickedLineKey&lt;/div&gt;" style="shape=parallelogram;perimeter=parallelogramPerimeter;whiteSpace=wrap;html=1;fixedSize=1;" vertex="1" parent="WIyWlLk6GJQsqaUBKTNV-1">
          <mxGeometry x="3335" y="1899" width="250" height="70" as="geometry" />
        </mxCell>
        <mxCell id="lhZ-Mh_XOBsZGG9vvXFF-318" style="edgeStyle=orthogonalEdgeStyle;rounded=0;orthogonalLoop=1;jettySize=auto;html=1;" edge="1" parent="WIyWlLk6GJQsqaUBKTNV-1" source="lhZ-Mh_XOBsZGG9vvXFF-315" target="lhZ-Mh_XOBsZGG9vvXFF-317">
          <mxGeometry relative="1" as="geometry" />
        </mxCell>
        <mxCell id="lhZ-Mh_XOBsZGG9vvXFF-330" style="edgeStyle=orthogonalEdgeStyle;rounded=0;orthogonalLoop=1;jettySize=auto;html=1;" edge="1" parent="WIyWlLk6GJQsqaUBKTNV-1" source="lhZ-Mh_XOBsZGG9vvXFF-315" target="lhZ-Mh_XOBsZGG9vvXFF-329">
          <mxGeometry relative="1" as="geometry" />
        </mxCell>
        <mxCell id="lhZ-Mh_XOBsZGG9vvXFF-315" value="Отсканирована ячейка перехвата" style="shape=parallelogram;perimeter=parallelogramPerimeter;whiteSpace=wrap;html=1;fixedSize=1;" vertex="1" parent="WIyWlLk6GJQsqaUBKTNV-1">
          <mxGeometry x="3620" y="1913.5" width="250" height="41" as="geometry" />
        </mxCell>
        <mxCell id="lhZ-Mh_XOBsZGG9vvXFF-320" style="edgeStyle=orthogonalEdgeStyle;rounded=0;orthogonalLoop=1;jettySize=auto;html=1;" edge="1" parent="WIyWlLk6GJQsqaUBKTNV-1" source="lhZ-Mh_XOBsZGG9vvXFF-317" target="lhZ-Mh_XOBsZGG9vvXFF-319">
          <mxGeometry relative="1" as="geometry" />
        </mxCell>
        <mxCell id="lhZ-Mh_XOBsZGG9vvXFF-323" style="edgeStyle=orthogonalEdgeStyle;rounded=0;orthogonalLoop=1;jettySize=auto;html=1;" edge="1" parent="WIyWlLk6GJQsqaUBKTNV-1" source="lhZ-Mh_XOBsZGG9vvXFF-317" target="lhZ-Mh_XOBsZGG9vvXFF-321">
          <mxGeometry relative="1" as="geometry" />
        </mxCell>
        <mxCell id="lhZ-Mh_XOBsZGG9vvXFF-317" value="ShowGroupArrangement и !ChooseOrderDirection" style="shape=parallelogram;perimeter=parallelogramPerimeter;whiteSpace=wrap;html=1;fixedSize=1;" vertex="1" parent="WIyWlLk6GJQsqaUBKTNV-1">
          <mxGeometry x="3905" y="1913.5" width="205" height="41" as="geometry" />
        </mxCell>
        <mxCell id="lhZ-Mh_XOBsZGG9vvXFF-324" style="edgeStyle=orthogonalEdgeStyle;rounded=0;orthogonalLoop=1;jettySize=auto;html=1;" edge="1" parent="WIyWlLk6GJQsqaUBKTNV-1" source="lhZ-Mh_XOBsZGG9vvXFF-319" target="lhZ-Mh_XOBsZGG9vvXFF-322">
          <mxGeometry relative="1" as="geometry" />
        </mxCell>
        <mxCell id="lhZ-Mh_XOBsZGG9vvXFF-319" value="MultiInterceptScanned = true&lt;div&gt;InterceptCellNo = objScannedData.CellAddressAsString&lt;br&gt;&lt;/div&gt;" style="rounded=0;whiteSpace=wrap;html=1;" vertex="1" parent="WIyWlLk6GJQsqaUBKTNV-1">
          <mxGeometry x="4140" y="1904" width="250" height="60" as="geometry" />
        </mxCell>
        <mxCell id="lhZ-Mh_XOBsZGG9vvXFF-328" style="edgeStyle=orthogonalEdgeStyle;rounded=0;orthogonalLoop=1;jettySize=auto;html=1;" edge="1" parent="WIyWlLk6GJQsqaUBKTNV-1" source="lhZ-Mh_XOBsZGG9vvXFF-321" target="lhZ-Mh_XOBsZGG9vvXFF-327">
          <mxGeometry relative="1" as="geometry" />
        </mxCell>
        <mxCell id="lhZ-Mh_XOBsZGG9vvXFF-321" value="ChooseOrderDirection = false&lt;div&gt;MoveOrder.SetInterceptCellScanned&lt;br&gt;&lt;/div&gt;&lt;div&gt;ShowGroupArrangement = false&lt;br&gt;&lt;/div&gt;&lt;div&gt;Сигнал: Данные на терминале были изменены&lt;br&gt;&lt;/div&gt;" style="rounded=0;whiteSpace=wrap;html=1;" vertex="1" parent="WIyWlLk6GJQsqaUBKTNV-1">
          <mxGeometry x="3896.25" y="2067.75" width="222.5" height="82.25" as="geometry" />
        </mxCell>
        <mxCell id="lhZ-Mh_XOBsZGG9vvXFF-326" style="edgeStyle=orthogonalEdgeStyle;rounded=0;orthogonalLoop=1;jettySize=auto;html=1;" edge="1" parent="WIyWlLk6GJQsqaUBKTNV-1" source="lhZ-Mh_XOBsZGG9vvXFF-322" target="lhZ-Mh_XOBsZGG9vvXFF-325">
          <mxGeometry relative="1" as="geometry" />
        </mxCell>
        <mxCell id="lhZ-Mh_XOBsZGG9vvXFF-322" value="ScannedGoodsOnInterceptCell" style="rounded=1;whiteSpace=wrap;html=1;" vertex="1" parent="WIyWlLk6GJQsqaUBKTNV-1">
          <mxGeometry x="4172.5" y="1987.75" width="185" height="60" as="geometry" />
        </mxCell>
        <mxCell id="lhZ-Mh_XOBsZGG9vvXFF-325" value="Завершение работы" style="rounded=1;whiteSpace=wrap;html=1;fillColor=#60a917;strokeColor=#2D7600;fontColor=#ffffff;gradientColor=default;gradientDirection=west;" vertex="1" parent="WIyWlLk6GJQsqaUBKTNV-1">
          <mxGeometry x="4205" y="2085.25" width="120" height="60" as="geometry" />
        </mxCell>
        <mxCell id="lhZ-Mh_XOBsZGG9vvXFF-327" value="Завершение работы" style="rounded=1;whiteSpace=wrap;html=1;fillColor=#008a00;strokeColor=#005700;fontColor=#ffffff;" vertex="1" parent="WIyWlLk6GJQsqaUBKTNV-1">
          <mxGeometry x="3947.5" y="2187.75" width="120" height="60" as="geometry" />
        </mxCell>
        <mxCell id="lhZ-Mh_XOBsZGG9vvXFF-332" style="edgeStyle=orthogonalEdgeStyle;rounded=0;orthogonalLoop=1;jettySize=auto;html=1;" edge="1" parent="WIyWlLk6GJQsqaUBKTNV-1" source="lhZ-Mh_XOBsZGG9vvXFF-329" target="lhZ-Mh_XOBsZGG9vvXFF-331">
          <mxGeometry relative="1" as="geometry" />
        </mxCell>
        <mxCell id="lhZ-Mh_XOBsZGG9vvXFF-335" style="edgeStyle=orthogonalEdgeStyle;rounded=0;orthogonalLoop=1;jettySize=auto;html=1;" edge="1" parent="WIyWlLk6GJQsqaUBKTNV-1" source="lhZ-Mh_XOBsZGG9vvXFF-329" target="lhZ-Mh_XOBsZGG9vvXFF-333">
          <mxGeometry relative="1" as="geometry" />
        </mxCell>
        <mxCell id="lhZ-Mh_XOBsZGG9vvXFF-329" value="MultiInterceptScanned" style="shape=parallelogram;perimeter=parallelogramPerimeter;whiteSpace=wrap;html=1;fixedSize=1;" vertex="1" parent="WIyWlLk6GJQsqaUBKTNV-1">
          <mxGeometry x="3620" y="2280" width="250" height="41" as="geometry" />
        </mxCell>
        <mxCell id="lhZ-Mh_XOBsZGG9vvXFF-331" value="Завершение работы" style="rounded=1;whiteSpace=wrap;html=1;fillColor=#60a917;strokeColor=#2D7600;fontColor=#ffffff;" vertex="1" parent="WIyWlLk6GJQsqaUBKTNV-1">
          <mxGeometry x="3905" y="2270.5" width="120" height="60" as="geometry" />
        </mxCell>
        <mxCell id="lhZ-Mh_XOBsZGG9vvXFF-334" style="edgeStyle=orthogonalEdgeStyle;rounded=0;orthogonalLoop=1;jettySize=auto;html=1;" edge="1" parent="WIyWlLk6GJQsqaUBKTNV-1" source="lhZ-Mh_XOBsZGG9vvXFF-333" target="lhZ-Mh_XOBsZGG9vvXFF-293">
          <mxGeometry relative="1" as="geometry">
            <Array as="points">
              <mxPoint x="4410" y="2378" />
              <mxPoint x="4410" y="1770" />
              <mxPoint x="2985" y="1770" />
            </Array>
          </mxGeometry>
        </mxCell>
        <mxCell id="lhZ-Mh_XOBsZGG9vvXFF-337" style="edgeStyle=orthogonalEdgeStyle;rounded=0;orthogonalLoop=1;jettySize=auto;html=1;" edge="1" parent="WIyWlLk6GJQsqaUBKTNV-1" source="lhZ-Mh_XOBsZGG9vvXFF-333" target="lhZ-Mh_XOBsZGG9vvXFF-336">
          <mxGeometry relative="1" as="geometry" />
        </mxCell>
        <mxCell id="lhZ-Mh_XOBsZGG9vvXFF-333" value="Включен пересчет ячейки-куда" style="shape=parallelogram;perimeter=parallelogramPerimeter;whiteSpace=wrap;html=1;fixedSize=1;" vertex="1" parent="WIyWlLk6GJQsqaUBKTNV-1">
          <mxGeometry x="3620" y="2357.75" width="250" height="41" as="geometry" />
        </mxCell>
        <mxCell id="lhZ-Mh_XOBsZGG9vvXFF-338" style="edgeStyle=orthogonalEdgeStyle;rounded=0;orthogonalLoop=1;jettySize=auto;html=1;entryX=0.5;entryY=0;entryDx=0;entryDy=0;" edge="1" parent="WIyWlLk6GJQsqaUBKTNV-1" source="lhZ-Mh_XOBsZGG9vvXFF-336" target="lhZ-Mh_XOBsZGG9vvXFF-300">
          <mxGeometry relative="1" as="geometry">
            <Array as="points">
              <mxPoint x="3745" y="2520" />
              <mxPoint x="3385" y="2520" />
              <mxPoint x="3385" y="1990" />
              <mxPoint x="2985" y="1990" />
            </Array>
          </mxGeometry>
        </mxCell>
        <mxCell id="lhZ-Mh_XOBsZGG9vvXFF-344" style="edgeStyle=orthogonalEdgeStyle;rounded=0;orthogonalLoop=1;jettySize=auto;html=1;" edge="1" parent="WIyWlLk6GJQsqaUBKTNV-1" source="lhZ-Mh_XOBsZGG9vvXFF-336" target="lhZ-Mh_XOBsZGG9vvXFF-343">
          <mxGeometry relative="1" as="geometry" />
        </mxCell>
        <mxCell id="lhZ-Mh_XOBsZGG9vvXFF-336" value="Приказ корректен" style="shape=parallelogram;perimeter=parallelogramPerimeter;whiteSpace=wrap;html=1;fixedSize=1;fillColor=#fff2cc;strokeColor=#d6b656;" vertex="1" parent="WIyWlLk6GJQsqaUBKTNV-1">
          <mxGeometry x="3657.5" y="2450" width="175" height="40" as="geometry" />
        </mxCell>
        <mxCell id="lhZ-Mh_XOBsZGG9vvXFF-342" style="edgeStyle=orthogonalEdgeStyle;rounded=0;orthogonalLoop=1;jettySize=auto;html=1;" edge="1" parent="WIyWlLk6GJQsqaUBKTNV-1" source="lhZ-Mh_XOBsZGG9vvXFF-340" target="lhZ-Mh_XOBsZGG9vvXFF-280">
          <mxGeometry relative="1" as="geometry" />
        </mxCell>
        <mxCell id="lhZ-Mh_XOBsZGG9vvXFF-340" value="CanRefreshQty = true" style="rounded=0;whiteSpace=wrap;html=1;" vertex="1" parent="WIyWlLk6GJQsqaUBKTNV-1">
          <mxGeometry x="5355.99" y="3320" width="120" height="40" as="geometry" />
        </mxCell>
        <mxCell id="lhZ-Mh_XOBsZGG9vvXFF-345" style="edgeStyle=orthogonalEdgeStyle;rounded=0;orthogonalLoop=1;jettySize=auto;html=1;entryX=0.5;entryY=0;entryDx=0;entryDy=0;" edge="1" parent="WIyWlLk6GJQsqaUBKTNV-1" source="lhZ-Mh_XOBsZGG9vvXFF-343" target="lhZ-Mh_XOBsZGG9vvXFF-293">
          <mxGeometry relative="1" as="geometry">
            <Array as="points">
              <mxPoint x="4410" y="2470" />
              <mxPoint x="4410" y="1770" />
              <mxPoint x="2985" y="1770" />
            </Array>
          </mxGeometry>
        </mxCell>
        <mxCell id="lhZ-Mh_XOBsZGG9vvXFF-347" style="edgeStyle=orthogonalEdgeStyle;rounded=0;orthogonalLoop=1;jettySize=auto;html=1;" edge="1" parent="WIyWlLk6GJQsqaUBKTNV-1" source="lhZ-Mh_XOBsZGG9vvXFF-343" target="lhZ-Mh_XOBsZGG9vvXFF-346">
          <mxGeometry relative="1" as="geometry" />
        </mxCell>
        <mxCell id="lhZ-Mh_XOBsZGG9vvXFF-343" value="SSCC не был сканирован и&amp;nbsp;&lt;div&gt;у приказа нет сканированного SSCC&lt;/div&gt;" style="shape=parallelogram;perimeter=parallelogramPerimeter;whiteSpace=wrap;html=1;fixedSize=1;" vertex="1" parent="WIyWlLk6GJQsqaUBKTNV-1">
          <mxGeometry x="3870" y="2440" width="200" height="60" as="geometry" />
        </mxCell>
        <mxCell id="lhZ-Mh_XOBsZGG9vvXFF-348" style="edgeStyle=orthogonalEdgeStyle;rounded=0;orthogonalLoop=1;jettySize=auto;html=1;entryX=0.5;entryY=0;entryDx=0;entryDy=0;" edge="1" parent="WIyWlLk6GJQsqaUBKTNV-1" source="lhZ-Mh_XOBsZGG9vvXFF-346" target="lhZ-Mh_XOBsZGG9vvXFF-293">
          <mxGeometry relative="1" as="geometry">
            <Array as="points">
              <mxPoint x="4410" y="2558" />
              <mxPoint x="4410" y="1770" />
              <mxPoint x="2985" y="1770" />
            </Array>
          </mxGeometry>
        </mxCell>
        <mxCell id="lhZ-Mh_XOBsZGG9vvXFF-350" style="edgeStyle=orthogonalEdgeStyle;rounded=0;orthogonalLoop=1;jettySize=auto;html=1;" edge="1" parent="WIyWlLk6GJQsqaUBKTNV-1" source="lhZ-Mh_XOBsZGG9vvXFF-346" target="lhZ-Mh_XOBsZGG9vvXFF-349">
          <mxGeometry relative="1" as="geometry" />
        </mxCell>
        <mxCell id="lhZ-Mh_XOBsZGG9vvXFF-346" value="EAN не был сканирован и&amp;nbsp;&lt;div&gt;у приказа нет сканированного товара&lt;/div&gt;" style="shape=parallelogram;perimeter=parallelogramPerimeter;whiteSpace=wrap;html=1;fixedSize=1;" vertex="1" parent="WIyWlLk6GJQsqaUBKTNV-1">
          <mxGeometry x="3875" y="2527.75" width="190" height="60" as="geometry" />
        </mxCell>
        <mxCell id="lhZ-Mh_XOBsZGG9vvXFF-352" style="edgeStyle=orthogonalEdgeStyle;rounded=0;orthogonalLoop=1;jettySize=auto;html=1;" edge="1" parent="WIyWlLk6GJQsqaUBKTNV-1" source="lhZ-Mh_XOBsZGG9vvXFF-349" target="lhZ-Mh_XOBsZGG9vvXFF-363">
          <mxGeometry relative="1" as="geometry">
            <mxPoint x="4130" y="2647.75" as="targetPoint" />
          </mxGeometry>
        </mxCell>
        <mxCell id="lhZ-Mh_XOBsZGG9vvXFF-353" style="edgeStyle=orthogonalEdgeStyle;rounded=0;orthogonalLoop=1;jettySize=auto;html=1;" edge="1" parent="WIyWlLk6GJQsqaUBKTNV-1" source="lhZ-Mh_XOBsZGG9vvXFF-349" target="lhZ-Mh_XOBsZGG9vvXFF-351">
          <mxGeometry relative="1" as="geometry" />
        </mxCell>
        <mxCell id="lhZ-Mh_XOBsZGG9vvXFF-349" value="Режим выбора ячейки-куда оператором ТСД" style="shape=parallelogram;perimeter=parallelogramPerimeter;whiteSpace=wrap;html=1;fixedSize=1;" vertex="1" parent="WIyWlLk6GJQsqaUBKTNV-1">
          <mxGeometry x="3875" y="2617.75" width="190" height="60" as="geometry" />
        </mxCell>
        <mxCell id="lhZ-Mh_XOBsZGG9vvXFF-368" style="edgeStyle=orthogonalEdgeStyle;rounded=0;orthogonalLoop=1;jettySize=auto;html=1;" edge="1" parent="WIyWlLk6GJQsqaUBKTNV-1" source="lhZ-Mh_XOBsZGG9vvXFF-351" target="lhZ-Mh_XOBsZGG9vvXFF-367">
          <mxGeometry relative="1" as="geometry" />
        </mxCell>
        <mxCell id="lhZ-Mh_XOBsZGG9vvXFF-405" style="edgeStyle=orthogonalEdgeStyle;rounded=0;orthogonalLoop=1;jettySize=auto;html=1;" edge="1" parent="WIyWlLk6GJQsqaUBKTNV-1" source="lhZ-Mh_XOBsZGG9vvXFF-351" target="lhZ-Mh_XOBsZGG9vvXFF-293">
          <mxGeometry relative="1" as="geometry">
            <Array as="points">
              <mxPoint x="3970" y="3050" />
              <mxPoint x="2810" y="3050" />
              <mxPoint x="2810" y="1770" />
              <mxPoint x="2985" y="1770" />
            </Array>
          </mxGeometry>
        </mxCell>
        <mxCell id="lhZ-Mh_XOBsZGG9vvXFF-351" value="Совпали по отсканированной ячейке" style="shape=parallelogram;perimeter=parallelogramPerimeter;whiteSpace=wrap;html=1;fixedSize=1;" vertex="1" parent="WIyWlLk6GJQsqaUBKTNV-1">
          <mxGeometry x="3872.5" y="2971.62" width="195" height="52.25" as="geometry" />
        </mxCell>
        <mxCell id="lhZ-Mh_XOBsZGG9vvXFF-354" style="edgeStyle=orthogonalEdgeStyle;rounded=0;orthogonalLoop=1;jettySize=auto;html=1;entryX=0.5;entryY=0;entryDx=0;entryDy=0;" edge="1" source="lhZ-Mh_XOBsZGG9vvXFF-355" target="lhZ-Mh_XOBsZGG9vvXFF-356" parent="WIyWlLk6GJQsqaUBKTNV-1">
          <mxGeometry relative="1" as="geometry" />
        </mxCell>
        <mxCell id="lhZ-Mh_XOBsZGG9vvXFF-355" value="Сообщение об ошибке (Адрес содержит код другого склада. Замена невозможна)" style="rounded=0;whiteSpace=wrap;html=1;" vertex="1" parent="WIyWlLk6GJQsqaUBKTNV-1">
          <mxGeometry x="4590" y="2600.25" width="150" height="95" as="geometry" />
        </mxCell>
        <mxCell id="lhZ-Mh_XOBsZGG9vvXFF-356" value="Завершение работы" style="rounded=1;whiteSpace=wrap;html=1;fillColor=#60a917;strokeColor=#2D7600;fontColor=#ffffff;" vertex="1" parent="WIyWlLk6GJQsqaUBKTNV-1">
          <mxGeometry x="4605" y="2737.75" width="120" height="60" as="geometry" />
        </mxCell>
        <mxCell id="lhZ-Mh_XOBsZGG9vvXFF-357" style="edgeStyle=orthogonalEdgeStyle;rounded=0;orthogonalLoop=1;jettySize=auto;html=1;entryX=0.5;entryY=0;entryDx=0;entryDy=0;" edge="1" source="lhZ-Mh_XOBsZGG9vvXFF-359" target="lhZ-Mh_XOBsZGG9vvXFF-360" parent="WIyWlLk6GJQsqaUBKTNV-1">
          <mxGeometry relative="1" as="geometry" />
        </mxCell>
        <mxCell id="lhZ-Mh_XOBsZGG9vvXFF-358" style="edgeStyle=orthogonalEdgeStyle;rounded=0;orthogonalLoop=1;jettySize=auto;html=1;exitX=1;exitY=0.5;exitDx=0;exitDy=0;entryX=0;entryY=0.5;entryDx=0;entryDy=0;" edge="1" source="lhZ-Mh_XOBsZGG9vvXFF-359" target="lhZ-Mh_XOBsZGG9vvXFF-365" parent="WIyWlLk6GJQsqaUBKTNV-1">
          <mxGeometry relative="1" as="geometry" />
        </mxCell>
        <mxCell id="lhZ-Mh_XOBsZGG9vvXFF-359" value="Вопрос пользователю:&lt;div&gt;Отсканирована ячейка #. Продолжить размещение всех товаров паллеты в ячейку?&lt;br&gt;&lt;/div&gt;" style="shape=parallelogram;perimeter=parallelogramPerimeter;whiteSpace=wrap;html=1;fixedSize=1;" vertex="1" parent="WIyWlLk6GJQsqaUBKTNV-1">
          <mxGeometry x="4125" y="2730.25" width="280" height="90" as="geometry" />
        </mxCell>
        <mxCell id="lhZ-Mh_XOBsZGG9vvXFF-360" value="Завершение работы" style="rounded=1;whiteSpace=wrap;html=1;fillColor=#60a917;strokeColor=#2D7600;fontColor=#ffffff;" vertex="1" parent="WIyWlLk6GJQsqaUBKTNV-1">
          <mxGeometry x="4205" y="2860.25" width="120" height="60" as="geometry" />
        </mxCell>
        <mxCell id="lhZ-Mh_XOBsZGG9vvXFF-361" style="edgeStyle=orthogonalEdgeStyle;rounded=0;orthogonalLoop=1;jettySize=auto;html=1;exitX=1;exitY=0.5;exitDx=0;exitDy=0;entryX=0;entryY=0.5;entryDx=0;entryDy=0;" edge="1" source="lhZ-Mh_XOBsZGG9vvXFF-363" target="lhZ-Mh_XOBsZGG9vvXFF-355" parent="WIyWlLk6GJQsqaUBKTNV-1">
          <mxGeometry relative="1" as="geometry" />
        </mxCell>
        <mxCell id="lhZ-Mh_XOBsZGG9vvXFF-362" style="edgeStyle=orthogonalEdgeStyle;rounded=0;orthogonalLoop=1;jettySize=auto;html=1;entryX=0.5;entryY=0;entryDx=0;entryDy=0;" edge="1" source="lhZ-Mh_XOBsZGG9vvXFF-363" target="lhZ-Mh_XOBsZGG9vvXFF-359" parent="WIyWlLk6GJQsqaUBKTNV-1">
          <mxGeometry relative="1" as="geometry" />
        </mxCell>
        <mxCell id="lhZ-Mh_XOBsZGG9vvXFF-363" value="Сканированные данные содержат код склада и&lt;div&gt;&lt;div&gt;код склада приказа не равен коду из сканированных данных&lt;/div&gt;&lt;/div&gt;" style="shape=parallelogram;perimeter=parallelogramPerimeter;whiteSpace=wrap;html=1;fixedSize=1;" vertex="1" parent="WIyWlLk6GJQsqaUBKTNV-1">
          <mxGeometry x="4105" y="2622.75" width="320" height="50" as="geometry" />
        </mxCell>
        <mxCell id="lhZ-Mh_XOBsZGG9vvXFF-364" style="edgeStyle=orthogonalEdgeStyle;rounded=0;orthogonalLoop=1;jettySize=auto;html=1;entryX=0.5;entryY=0;entryDx=0;entryDy=0;" edge="1" source="lhZ-Mh_XOBsZGG9vvXFF-365" target="lhZ-Mh_XOBsZGG9vvXFF-366" parent="WIyWlLk6GJQsqaUBKTNV-1">
          <mxGeometry relative="1" as="geometry" />
        </mxCell>
        <mxCell id="lhZ-Mh_XOBsZGG9vvXFF-365" value="RecalculateCellTo = true&lt;div&gt;MoveOrder.ChangeCellTo&lt;br&gt;&lt;/div&gt;&lt;div&gt;звук: Ок&lt;/div&gt;&lt;div&gt;сигнал: данные на терминале изменились&lt;/div&gt;" style="rounded=0;whiteSpace=wrap;html=1;" vertex="1" parent="WIyWlLk6GJQsqaUBKTNV-1">
          <mxGeometry x="4425" y="2727.75" width="150" height="95" as="geometry" />
        </mxCell>
        <mxCell id="lhZ-Mh_XOBsZGG9vvXFF-366" value="Завершение работы" style="rounded=1;whiteSpace=wrap;html=1;fillColor=#008a00;strokeColor=#005700;fontColor=#ffffff;" vertex="1" parent="WIyWlLk6GJQsqaUBKTNV-1">
          <mxGeometry x="4440" y="2860.25" width="120" height="60" as="geometry" />
        </mxCell>
        <mxCell id="lhZ-Mh_XOBsZGG9vvXFF-370" style="edgeStyle=orthogonalEdgeStyle;rounded=0;orthogonalLoop=1;jettySize=auto;html=1;" edge="1" parent="WIyWlLk6GJQsqaUBKTNV-1" source="lhZ-Mh_XOBsZGG9vvXFF-367" target="lhZ-Mh_XOBsZGG9vvXFF-369">
          <mxGeometry relative="1" as="geometry" />
        </mxCell>
        <mxCell id="lhZ-Mh_XOBsZGG9vvXFF-367" value="ChooseOrderDirection = false" style="rounded=0;whiteSpace=wrap;html=1;" vertex="1" parent="WIyWlLk6GJQsqaUBKTNV-1">
          <mxGeometry x="4140" y="2967.75" width="200" height="60" as="geometry" />
        </mxCell>
        <mxCell id="lhZ-Mh_XOBsZGG9vvXFF-376" value="" style="edgeStyle=orthogonalEdgeStyle;rounded=0;orthogonalLoop=1;jettySize=auto;html=1;" edge="1" parent="WIyWlLk6GJQsqaUBKTNV-1" source="lhZ-Mh_XOBsZGG9vvXFF-369" target="lhZ-Mh_XOBsZGG9vvXFF-375">
          <mxGeometry relative="1" as="geometry" />
        </mxCell>
        <mxCell id="lhZ-Mh_XOBsZGG9vvXFF-380" value="" style="edgeStyle=orthogonalEdgeStyle;rounded=0;orthogonalLoop=1;jettySize=auto;html=1;" edge="1" parent="WIyWlLk6GJQsqaUBKTNV-1" source="lhZ-Mh_XOBsZGG9vvXFF-369" target="lhZ-Mh_XOBsZGG9vvXFF-379">
          <mxGeometry relative="1" as="geometry" />
        </mxCell>
        <mxCell id="lhZ-Mh_XOBsZGG9vvXFF-369" value="у приказа сканирован SSCC" style="shape=parallelogram;perimeter=parallelogramPerimeter;whiteSpace=wrap;html=1;fixedSize=1;" vertex="1" parent="WIyWlLk6GJQsqaUBKTNV-1">
          <mxGeometry x="4143" y="3060.5" width="195" height="52.25" as="geometry" />
        </mxCell>
        <mxCell id="lhZ-Mh_XOBsZGG9vvXFF-378" value="" style="edgeStyle=orthogonalEdgeStyle;rounded=0;orthogonalLoop=1;jettySize=auto;html=1;" edge="1" parent="WIyWlLk6GJQsqaUBKTNV-1" source="lhZ-Mh_XOBsZGG9vvXFF-375" target="lhZ-Mh_XOBsZGG9vvXFF-377">
          <mxGeometry relative="1" as="geometry" />
        </mxCell>
        <mxCell id="lhZ-Mh_XOBsZGG9vvXFF-375" value="ShowGroupArrangement = false" style="whiteSpace=wrap;html=1;" vertex="1" parent="WIyWlLk6GJQsqaUBKTNV-1">
          <mxGeometry x="4140" y="3301.75" width="200" height="41.12" as="geometry" />
        </mxCell>
        <mxCell id="lhZ-Mh_XOBsZGG9vvXFF-397" style="edgeStyle=orthogonalEdgeStyle;rounded=0;orthogonalLoop=1;jettySize=auto;html=1;" edge="1" parent="WIyWlLk6GJQsqaUBKTNV-1" source="lhZ-Mh_XOBsZGG9vvXFF-377" target="lhZ-Mh_XOBsZGG9vvXFF-396">
          <mxGeometry relative="1" as="geometry" />
        </mxCell>
        <mxCell id="lhZ-Mh_XOBsZGG9vvXFF-399" style="edgeStyle=orthogonalEdgeStyle;rounded=0;orthogonalLoop=1;jettySize=auto;html=1;" edge="1" parent="WIyWlLk6GJQsqaUBKTNV-1" source="lhZ-Mh_XOBsZGG9vvXFF-377" target="lhZ-Mh_XOBsZGG9vvXFF-398">
          <mxGeometry relative="1" as="geometry" />
        </mxCell>
        <mxCell id="lhZ-Mh_XOBsZGG9vvXFF-377" value="Приказ подтвержден" style="shape=parallelogram;perimeter=parallelogramPerimeter;whiteSpace=wrap;html=1;fixedSize=1;" vertex="1" parent="WIyWlLk6GJQsqaUBKTNV-1">
          <mxGeometry x="4140" y="3372.87" width="200" height="30" as="geometry" />
        </mxCell>
        <mxCell id="lhZ-Mh_XOBsZGG9vvXFF-385" style="edgeStyle=orthogonalEdgeStyle;rounded=0;orthogonalLoop=1;jettySize=auto;html=1;" edge="1" parent="WIyWlLk6GJQsqaUBKTNV-1" source="lhZ-Mh_XOBsZGG9vvXFF-379" target="lhZ-Mh_XOBsZGG9vvXFF-383">
          <mxGeometry relative="1" as="geometry" />
        </mxCell>
        <mxCell id="lhZ-Mh_XOBsZGG9vvXFF-390" style="edgeStyle=orthogonalEdgeStyle;rounded=0;orthogonalLoop=1;jettySize=auto;html=1;" edge="1" parent="WIyWlLk6GJQsqaUBKTNV-1" source="lhZ-Mh_XOBsZGG9vvXFF-379" target="lhZ-Mh_XOBsZGG9vvXFF-387">
          <mxGeometry relative="1" as="geometry" />
        </mxCell>
        <mxCell id="lhZ-Mh_XOBsZGG9vvXFF-379" value="Есть миссинг" style="shape=parallelogram;perimeter=parallelogramPerimeter;whiteSpace=wrap;html=1;fixedSize=1;" vertex="1" parent="WIyWlLk6GJQsqaUBKTNV-1">
          <mxGeometry x="4440" y="3069.94" width="120" height="33.37" as="geometry" />
        </mxCell>
        <mxCell id="lhZ-Mh_XOBsZGG9vvXFF-383" value="MoveOrder.MarkAsMissing" style="rounded=0;whiteSpace=wrap;html=1;" vertex="1" parent="WIyWlLk6GJQsqaUBKTNV-1">
          <mxGeometry x="4650" y="3056.63" width="180" height="60" as="geometry" />
        </mxCell>
        <mxCell id="lhZ-Mh_XOBsZGG9vvXFF-386" style="edgeStyle=orthogonalEdgeStyle;rounded=0;orthogonalLoop=1;jettySize=auto;html=1;entryX=0;entryY=0.5;entryDx=0;entryDy=0;" edge="1" source="lhZ-Mh_XOBsZGG9vvXFF-387" target="lhZ-Mh_XOBsZGG9vvXFF-389" parent="WIyWlLk6GJQsqaUBKTNV-1">
          <mxGeometry relative="1" as="geometry" />
        </mxCell>
        <mxCell id="lhZ-Mh_XOBsZGG9vvXFF-394" style="edgeStyle=orthogonalEdgeStyle;rounded=0;orthogonalLoop=1;jettySize=auto;html=1;" edge="1" parent="WIyWlLk6GJQsqaUBKTNV-1" source="lhZ-Mh_XOBsZGG9vvXFF-387" target="lhZ-Mh_XOBsZGG9vvXFF-393">
          <mxGeometry relative="1" as="geometry" />
        </mxCell>
        <mxCell id="lhZ-Mh_XOBsZGG9vvXFF-387" value="Кол-во в приказе изменилось" style="shape=parallelogram;perimeter=parallelogramPerimeter;whiteSpace=wrap;html=1;fixedSize=1;" vertex="1" parent="WIyWlLk6GJQsqaUBKTNV-1">
          <mxGeometry x="4398" y="3157.75" width="205" height="30" as="geometry" />
        </mxCell>
        <mxCell id="lhZ-Mh_XOBsZGG9vvXFF-388" value="" style="endArrow=classic;html=1;rounded=0;entryX=0.5;entryY=0;entryDx=0;entryDy=0;exitX=0.5;exitY=1;exitDx=0;exitDy=0;" edge="1" target="lhZ-Mh_XOBsZGG9vvXFF-387" parent="WIyWlLk6GJQsqaUBKTNV-1">
          <mxGeometry width="50" height="50" relative="1" as="geometry">
            <mxPoint x="4767.25" y="3116.88" as="sourcePoint" />
            <mxPoint x="4192.5" y="3121.63" as="targetPoint" />
          </mxGeometry>
        </mxCell>
        <mxCell id="lhZ-Mh_XOBsZGG9vvXFF-389" value="MoveOrder.SetAimQty&lt;div&gt;EditingCountInitialized&lt;br&gt;&lt;/div&gt;&lt;div&gt;EditingCount&lt;br&gt;&lt;/div&gt;" style="rounded=0;whiteSpace=wrap;html=1;" vertex="1" parent="WIyWlLk6GJQsqaUBKTNV-1">
          <mxGeometry x="4653" y="3147.75" width="185" height="50" as="geometry" />
        </mxCell>
        <mxCell id="lhZ-Mh_XOBsZGG9vvXFF-395" style="edgeStyle=orthogonalEdgeStyle;rounded=0;orthogonalLoop=1;jettySize=auto;html=1;" edge="1" parent="WIyWlLk6GJQsqaUBKTNV-1" source="lhZ-Mh_XOBsZGG9vvXFF-393" target="lhZ-Mh_XOBsZGG9vvXFF-375">
          <mxGeometry relative="1" as="geometry">
            <Array as="points">
              <mxPoint x="4500" y="3290" />
              <mxPoint x="4240" y="3290" />
            </Array>
          </mxGeometry>
        </mxCell>
        <mxCell id="lhZ-Mh_XOBsZGG9vvXFF-393" value="SetWaitingConfirmOrSetConfirmed" style="rounded=1;whiteSpace=wrap;html=1;fillColor=#eeeeee;strokeColor=#36393d;" vertex="1" parent="WIyWlLk6GJQsqaUBKTNV-1">
          <mxGeometry x="4387.5" y="3218.87" width="225" height="65" as="geometry" />
        </mxCell>
        <mxCell id="lhZ-Mh_XOBsZGG9vvXFF-402" style="edgeStyle=orthogonalEdgeStyle;rounded=0;orthogonalLoop=1;jettySize=auto;html=1;" edge="1" parent="WIyWlLk6GJQsqaUBKTNV-1" source="lhZ-Mh_XOBsZGG9vvXFF-396" target="lhZ-Mh_XOBsZGG9vvXFF-400">
          <mxGeometry relative="1" as="geometry">
            <Array as="points">
              <mxPoint x="4448" y="3480" />
              <mxPoint x="4241" y="3480" />
            </Array>
          </mxGeometry>
        </mxCell>
        <mxCell id="lhZ-Mh_XOBsZGG9vvXFF-396" value="Звук: Приказ выполнен" style="rounded=0;whiteSpace=wrap;html=1;" vertex="1" parent="WIyWlLk6GJQsqaUBKTNV-1">
          <mxGeometry x="4387.5" y="3371.81" width="120" height="32.13" as="geometry" />
        </mxCell>
        <mxCell id="lhZ-Mh_XOBsZGG9vvXFF-401" style="edgeStyle=orthogonalEdgeStyle;rounded=0;orthogonalLoop=1;jettySize=auto;html=1;" edge="1" parent="WIyWlLk6GJQsqaUBKTNV-1" source="lhZ-Mh_XOBsZGG9vvXFF-398" target="lhZ-Mh_XOBsZGG9vvXFF-400">
          <mxGeometry relative="1" as="geometry" />
        </mxCell>
        <mxCell id="lhZ-Mh_XOBsZGG9vvXFF-398" value="Звук: Ок" style="rounded=0;whiteSpace=wrap;html=1;" vertex="1" parent="WIyWlLk6GJQsqaUBKTNV-1">
          <mxGeometry x="4180.5" y="3427.87" width="120" height="32.13" as="geometry" />
        </mxCell>
        <mxCell id="lhZ-Mh_XOBsZGG9vvXFF-404" style="edgeStyle=orthogonalEdgeStyle;rounded=0;orthogonalLoop=1;jettySize=auto;html=1;" edge="1" parent="WIyWlLk6GJQsqaUBKTNV-1" source="lhZ-Mh_XOBsZGG9vvXFF-400" target="lhZ-Mh_XOBsZGG9vvXFF-403">
          <mxGeometry relative="1" as="geometry" />
        </mxCell>
        <mxCell id="lhZ-Mh_XOBsZGG9vvXFF-400" value="Сигнал: Данные на терминале были изменены" style="rounded=0;whiteSpace=wrap;html=1;" vertex="1" parent="WIyWlLk6GJQsqaUBKTNV-1">
          <mxGeometry x="4180.5" y="3510" width="120" height="60" as="geometry" />
        </mxCell>
        <mxCell id="lhZ-Mh_XOBsZGG9vvXFF-403" value="Завершение работы" style="rounded=1;whiteSpace=wrap;html=1;fillColor=#60a917;strokeColor=#2D7600;fontColor=#ffffff;gradientColor=default;gradientDirection=west;" vertex="1" parent="WIyWlLk6GJQsqaUBKTNV-1">
          <mxGeometry x="4180" y="3590" width="120" height="60" as="geometry" />
        </mxCell>
        <mxCell id="lhZ-Mh_XOBsZGG9vvXFF-406" value="" style="endArrow=classic;html=1;rounded=0;exitX=1;exitY=0.5;exitDx=0;exitDy=0;entryX=0;entryY=0.5;entryDx=0;entryDy=0;" edge="1" parent="WIyWlLk6GJQsqaUBKTNV-1" source="lhZ-Mh_XOBsZGG9vvXFF-110" target="lhZ-Mh_XOBsZGG9vvXFF-117">
          <mxGeometry relative="1" as="geometry">
            <mxPoint x="770" y="790" as="sourcePoint" />
            <mxPoint x="930" y="790" as="targetPoint" />
          </mxGeometry>
        </mxCell>
        <mxCell id="lhZ-Mh_XOBsZGG9vvXFF-407" value="Label" style="edgeLabel;resizable=0;html=1;;align=center;verticalAlign=middle;" connectable="0" vertex="1" parent="lhZ-Mh_XOBsZGG9vvXFF-406">
          <mxGeometry relative="1" as="geometry" />
        </mxCell>
        <mxCell id="lhZ-Mh_XOBsZGG9vvXFF-408" value="Вроде, не нужно" style="edgeLabel;html=1;align=center;verticalAlign=middle;resizable=0;points=[];" vertex="1" connectable="0" parent="lhZ-Mh_XOBsZGG9vvXFF-406">
          <mxGeometry x="-0.02" y="-4" relative="1" as="geometry">
            <mxPoint as="offset" />
          </mxGeometry>
        </mxCell>
        <mxCell id="lhZ-Mh_XOBsZGG9vvXFF-420" style="edgeStyle=orthogonalEdgeStyle;rounded=0;orthogonalLoop=1;jettySize=auto;html=1;entryX=0;entryY=0.5;entryDx=0;entryDy=0;" edge="1" source="lhZ-Mh_XOBsZGG9vvXFF-421" target="lhZ-Mh_XOBsZGG9vvXFF-423" parent="WIyWlLk6GJQsqaUBKTNV-1">
          <mxGeometry relative="1" as="geometry" />
        </mxCell>
        <mxCell id="lhZ-Mh_XOBsZGG9vvXFF-433" style="edgeStyle=orthogonalEdgeStyle;rounded=0;orthogonalLoop=1;jettySize=auto;html=1;" edge="1" parent="WIyWlLk6GJQsqaUBKTNV-1" source="lhZ-Mh_XOBsZGG9vvXFF-421" target="lhZ-Mh_XOBsZGG9vvXFF-432">
          <mxGeometry relative="1" as="geometry" />
        </mxCell>
        <mxCell id="lhZ-Mh_XOBsZGG9vvXFF-421" value="Отсканированная ячейка является ячейкой перехвата" style="shape=parallelogram;perimeter=parallelogramPerimeter;whiteSpace=wrap;html=1;fixedSize=1;" vertex="1" parent="WIyWlLk6GJQsqaUBKTNV-1">
          <mxGeometry x="320" y="740" width="195" height="80" as="geometry" />
        </mxCell>
        <mxCell id="lhZ-Mh_XOBsZGG9vvXFF-422" style="edgeStyle=orthogonalEdgeStyle;rounded=0;orthogonalLoop=1;jettySize=auto;html=1;entryX=0.5;entryY=0;entryDx=0;entryDy=0;" edge="1" source="lhZ-Mh_XOBsZGG9vvXFF-423" target="lhZ-Mh_XOBsZGG9vvXFF-424" parent="WIyWlLk6GJQsqaUBKTNV-1">
          <mxGeometry relative="1" as="geometry" />
        </mxCell>
        <mxCell id="lhZ-Mh_XOBsZGG9vvXFF-423" value="ChooseOrderDirection = false&lt;div&gt;MoveOrder.SetInterceptCellScanned&lt;br&gt;&lt;/div&gt;&lt;div&gt;ShowGroupArrangement = false&lt;br&gt;&lt;/div&gt;&lt;div&gt;Сигнал: данные на терминале изменились&lt;/div&gt;&lt;div&gt;звук: приказ выполнен&lt;/div&gt;" style="rounded=0;whiteSpace=wrap;html=1;" vertex="1" parent="WIyWlLk6GJQsqaUBKTNV-1">
          <mxGeometry x="582.5" y="730" width="220" height="100" as="geometry" />
        </mxCell>
        <mxCell id="lhZ-Mh_XOBsZGG9vvXFF-424" value="Завершение работы" style="rounded=1;whiteSpace=wrap;html=1;fillColor=#008a00;strokeColor=#005700;fontColor=#ffffff;" vertex="1" parent="WIyWlLk6GJQsqaUBKTNV-1">
          <mxGeometry x="632.5" y="870" width="120" height="60" as="geometry" />
        </mxCell>
        <mxCell id="lhZ-Mh_XOBsZGG9vvXFF-429" style="edgeStyle=orthogonalEdgeStyle;rounded=0;orthogonalLoop=1;jettySize=auto;html=1;" edge="1" parent="WIyWlLk6GJQsqaUBKTNV-1" source="lhZ-Mh_XOBsZGG9vvXFF-426" target="lhZ-Mh_XOBsZGG9vvXFF-428">
          <mxGeometry relative="1" as="geometry" />
        </mxCell>
        <mxCell id="lhZ-Mh_XOBsZGG9vvXFF-426" value="Тип приказа = MO_TYPE_ORDER_MOVING и&lt;div&gt;MoveOrder.IsSSCCScanned и&lt;br&gt;&lt;/div&gt;&lt;div&gt;MoveOrder.IsCheckLot и&lt;br&gt;&lt;/div&gt;&lt;div&gt;(MoveOrder.IsCellFromScanned или&lt;/div&gt;&lt;div&gt;MoveOrder.IsWaitForScanCellTo)&lt;br&gt;&lt;/div&gt;" style="shape=parallelogram;perimeter=parallelogramPerimeter;whiteSpace=wrap;html=1;fixedSize=1;" vertex="1" parent="WIyWlLk6GJQsqaUBKTNV-1">
          <mxGeometry x="620" y="955" width="340" height="80" as="geometry" />
        </mxCell>
        <mxCell id="lhZ-Mh_XOBsZGG9vvXFF-431" style="edgeStyle=orthogonalEdgeStyle;rounded=0;orthogonalLoop=1;jettySize=auto;html=1;" edge="1" parent="WIyWlLk6GJQsqaUBKTNV-1" source="lhZ-Mh_XOBsZGG9vvXFF-428" target="lhZ-Mh_XOBsZGG9vvXFF-430">
          <mxGeometry relative="1" as="geometry" />
        </mxCell>
        <mxCell id="lhZ-Mh_XOBsZGG9vvXFF-436" style="edgeStyle=orthogonalEdgeStyle;rounded=0;orthogonalLoop=1;jettySize=auto;html=1;" edge="1" parent="WIyWlLk6GJQsqaUBKTNV-1" source="lhZ-Mh_XOBsZGG9vvXFF-428" target="lhZ-Mh_XOBsZGG9vvXFF-435">
          <mxGeometry relative="1" as="geometry" />
        </mxCell>
        <mxCell id="lhZ-Mh_XOBsZGG9vvXFF-428" value="&lt;div&gt;Новая версия ЕГАИС&lt;/div&gt;" style="shape=parallelogram;perimeter=parallelogramPerimeter;whiteSpace=wrap;html=1;fixedSize=1;" vertex="1" parent="WIyWlLk6GJQsqaUBKTNV-1">
          <mxGeometry x="970" y="982.5" width="170" height="25" as="geometry" />
        </mxCell>
        <mxCell id="lhZ-Mh_XOBsZGG9vvXFF-439" style="edgeStyle=orthogonalEdgeStyle;rounded=0;orthogonalLoop=1;jettySize=auto;html=1;" edge="1" parent="WIyWlLk6GJQsqaUBKTNV-1" source="lhZ-Mh_XOBsZGG9vvXFF-430" target="lhZ-Mh_XOBsZGG9vvXFF-437">
          <mxGeometry relative="1" as="geometry">
            <Array as="points">
              <mxPoint x="1237" y="1100" />
              <mxPoint x="1055" y="1100" />
            </Array>
          </mxGeometry>
        </mxCell>
        <mxCell id="lhZ-Mh_XOBsZGG9vvXFF-430" value="Сообщение об ошибке (Сканируйте акцизную марку)" style="rounded=0;whiteSpace=wrap;html=1;" vertex="1" parent="WIyWlLk6GJQsqaUBKTNV-1">
          <mxGeometry x="1177.5" y="965" width="120" height="60" as="geometry" />
        </mxCell>
        <mxCell id="lhZ-Mh_XOBsZGG9vvXFF-444" style="edgeStyle=orthogonalEdgeStyle;rounded=0;orthogonalLoop=1;jettySize=auto;html=1;" edge="1" parent="WIyWlLk6GJQsqaUBKTNV-1" source="lhZ-Mh_XOBsZGG9vvXFF-432" target="lhZ-Mh_XOBsZGG9vvXFF-443">
          <mxGeometry relative="1" as="geometry" />
        </mxCell>
        <mxCell id="lhZ-Mh_XOBsZGG9vvXFF-432" value="Сканирована марка" style="shape=parallelogram;perimeter=parallelogramPerimeter;whiteSpace=wrap;html=1;fixedSize=1;" vertex="1" parent="WIyWlLk6GJQsqaUBKTNV-1">
          <mxGeometry x="331.25" y="975" width="172.5" height="40" as="geometry" />
        </mxCell>
        <mxCell id="lhZ-Mh_XOBsZGG9vvXFF-438" style="edgeStyle=orthogonalEdgeStyle;rounded=0;orthogonalLoop=1;jettySize=auto;html=1;" edge="1" parent="WIyWlLk6GJQsqaUBKTNV-1" source="lhZ-Mh_XOBsZGG9vvXFF-435" target="lhZ-Mh_XOBsZGG9vvXFF-437">
          <mxGeometry relative="1" as="geometry" />
        </mxCell>
        <mxCell id="lhZ-Mh_XOBsZGG9vvXFF-435" value="Сообщение об ошибке (Сканируйте короб)" style="rounded=0;whiteSpace=wrap;html=1;" vertex="1" parent="WIyWlLk6GJQsqaUBKTNV-1">
          <mxGeometry x="995" y="1030" width="120" height="60" as="geometry" />
        </mxCell>
        <mxCell id="lhZ-Mh_XOBsZGG9vvXFF-437" value="Завершение работы" style="rounded=1;whiteSpace=wrap;html=1;fillColor=#60a917;strokeColor=#2D7600;fontColor=#ffffff;" vertex="1" parent="WIyWlLk6GJQsqaUBKTNV-1">
          <mxGeometry x="995" y="1120" width="120" height="60" as="geometry" />
        </mxCell>
        <mxCell id="lhZ-Mh_XOBsZGG9vvXFF-440" value="" style="endArrow=classic;html=1;rounded=0;exitX=1;exitY=0.5;exitDx=0;exitDy=0;entryX=0;entryY=0.5;entryDx=0;entryDy=0;" edge="1" parent="WIyWlLk6GJQsqaUBKTNV-1" source="lhZ-Mh_XOBsZGG9vvXFF-432" target="lhZ-Mh_XOBsZGG9vvXFF-426">
          <mxGeometry relative="1" as="geometry">
            <mxPoint x="490" y="1050" as="sourcePoint" />
            <mxPoint x="590" y="1050" as="targetPoint" />
          </mxGeometry>
        </mxCell>
        <mxCell id="lhZ-Mh_XOBsZGG9vvXFF-441" value="Label" style="edgeLabel;resizable=0;html=1;;align=center;verticalAlign=middle;" connectable="0" vertex="1" parent="lhZ-Mh_XOBsZGG9vvXFF-440">
          <mxGeometry relative="1" as="geometry" />
        </mxCell>
        <mxCell id="lhZ-Mh_XOBsZGG9vvXFF-442" value="Вроде, не нужно" style="edgeLabel;html=1;align=center;verticalAlign=middle;resizable=0;points=[];" vertex="1" connectable="0" parent="lhZ-Mh_XOBsZGG9vvXFF-440">
          <mxGeometry x="-0.0696" y="-2" relative="1" as="geometry">
            <mxPoint as="offset" />
          </mxGeometry>
        </mxCell>
        <mxCell id="lhZ-Mh_XOBsZGG9vvXFF-447" style="edgeStyle=orthogonalEdgeStyle;rounded=0;orthogonalLoop=1;jettySize=auto;html=1;" edge="1" parent="WIyWlLk6GJQsqaUBKTNV-1" source="lhZ-Mh_XOBsZGG9vvXFF-443" target="lhZ-Mh_XOBsZGG9vvXFF-445">
          <mxGeometry relative="1" as="geometry" />
        </mxCell>
        <mxCell id="lhZ-Mh_XOBsZGG9vvXFF-450" style="edgeStyle=orthogonalEdgeStyle;rounded=0;orthogonalLoop=1;jettySize=auto;html=1;" edge="1" parent="WIyWlLk6GJQsqaUBKTNV-1" source="lhZ-Mh_XOBsZGG9vvXFF-443" target="lhZ-Mh_XOBsZGG9vvXFF-449">
          <mxGeometry relative="1" as="geometry" />
        </mxCell>
        <mxCell id="lhZ-Mh_XOBsZGG9vvXFF-443" value="MoveOrder.IsRecalculateCellTo" style="shape=parallelogram;perimeter=parallelogramPerimeter;whiteSpace=wrap;html=1;fixedSize=1;" vertex="1" parent="WIyWlLk6GJQsqaUBKTNV-1">
          <mxGeometry x="318.12" y="1065" width="198.75" height="40" as="geometry" />
        </mxCell>
        <mxCell id="lhZ-Mh_XOBsZGG9vvXFF-448" style="edgeStyle=orthogonalEdgeStyle;rounded=0;orthogonalLoop=1;jettySize=auto;html=1;" edge="1" parent="WIyWlLk6GJQsqaUBKTNV-1" source="lhZ-Mh_XOBsZGG9vvXFF-445" target="lhZ-Mh_XOBsZGG9vvXFF-446">
          <mxGeometry relative="1" as="geometry" />
        </mxCell>
        <mxCell id="lhZ-Mh_XOBsZGG9vvXFF-445" value="Сообщение об ошибке (Ждите завершения операции!)" style="rounded=0;whiteSpace=wrap;html=1;" vertex="1" parent="WIyWlLk6GJQsqaUBKTNV-1">
          <mxGeometry x="560" y="1055" width="120" height="60" as="geometry" />
        </mxCell>
        <mxCell id="lhZ-Mh_XOBsZGG9vvXFF-446" value="Завершение работы" style="rounded=1;whiteSpace=wrap;html=1;fillColor=#60a917;strokeColor=#2D7600;fontColor=#ffffff;" vertex="1" parent="WIyWlLk6GJQsqaUBKTNV-1">
          <mxGeometry x="560" y="1140" width="120" height="60" as="geometry" />
        </mxCell>
        <mxCell id="lhZ-Mh_XOBsZGG9vvXFF-456" style="edgeStyle=orthogonalEdgeStyle;rounded=0;orthogonalLoop=1;jettySize=auto;html=1;entryX=0.5;entryY=0;entryDx=0;entryDy=0;" edge="1" parent="WIyWlLk6GJQsqaUBKTNV-1" source="lhZ-Mh_XOBsZGG9vvXFF-449" target="lhZ-Mh_XOBsZGG9vvXFF-455">
          <mxGeometry relative="1" as="geometry" />
        </mxCell>
        <mxCell id="lhZ-Mh_XOBsZGG9vvXFF-449" value="Тип приказа =&amp;nbsp;MO_TYPE_MOVING_FROM_PACKER_OA" style="shape=parallelogram;perimeter=parallelogramPerimeter;whiteSpace=wrap;html=1;fixedSize=1;" vertex="1" parent="WIyWlLk6GJQsqaUBKTNV-1">
          <mxGeometry x="271.55" y="1228" width="291.88" height="32" as="geometry" />
        </mxCell>
        <mxCell id="lhZ-Mh_XOBsZGG9vvXFF-451" value="" style="endArrow=classic;html=1;rounded=0;exitX=1;exitY=0.5;exitDx=0;exitDy=0;entryX=0;entryY=0.5;entryDx=0;entryDy=0;" edge="1" parent="WIyWlLk6GJQsqaUBKTNV-1" source="lhZ-Mh_XOBsZGG9vvXFF-449" target="lhZ-Mh_XOBsZGG9vvXFF-454">
          <mxGeometry relative="1" as="geometry">
            <mxPoint x="570" y="1274.63" as="sourcePoint" />
            <mxPoint x="706" y="1274.63" as="targetPoint" />
          </mxGeometry>
        </mxCell>
        <mxCell id="lhZ-Mh_XOBsZGG9vvXFF-452" value="Label" style="edgeLabel;resizable=0;html=1;;align=center;verticalAlign=middle;" connectable="0" vertex="1" parent="lhZ-Mh_XOBsZGG9vvXFF-451">
          <mxGeometry relative="1" as="geometry" />
        </mxCell>
        <mxCell id="lhZ-Mh_XOBsZGG9vvXFF-453" value="Вроде, не нужно" style="edgeLabel;html=1;align=center;verticalAlign=middle;resizable=0;points=[];" vertex="1" connectable="0" parent="lhZ-Mh_XOBsZGG9vvXFF-451">
          <mxGeometry x="-0.0696" y="-2" relative="1" as="geometry">
            <mxPoint as="offset" />
          </mxGeometry>
        </mxCell>
        <mxCell id="lhZ-Mh_XOBsZGG9vvXFF-454" value="" style="rounded=1;whiteSpace=wrap;html=1;" vertex="1" parent="WIyWlLk6GJQsqaUBKTNV-1">
          <mxGeometry x="710" y="1214" width="120" height="60" as="geometry" />
        </mxCell>
        <mxCell id="lhZ-Mh_XOBsZGG9vvXFF-460" value="" style="edgeStyle=orthogonalEdgeStyle;rounded=0;orthogonalLoop=1;jettySize=auto;html=1;" edge="1" parent="WIyWlLk6GJQsqaUBKTNV-1" source="lhZ-Mh_XOBsZGG9vvXFF-455" target="lhZ-Mh_XOBsZGG9vvXFF-459">
          <mxGeometry relative="1" as="geometry" />
        </mxCell>
        <mxCell id="lhZ-Mh_XOBsZGG9vvXFF-490" value="" style="edgeStyle=orthogonalEdgeStyle;rounded=0;orthogonalLoop=1;jettySize=auto;html=1;" edge="1" parent="WIyWlLk6GJQsqaUBKTNV-1" source="lhZ-Mh_XOBsZGG9vvXFF-455" target="lhZ-Mh_XOBsZGG9vvXFF-489">
          <mxGeometry relative="1" as="geometry" />
        </mxCell>
        <mxCell id="lhZ-Mh_XOBsZGG9vvXFF-455" value="MoveOrder.IsWaitForScanCell или&lt;div&gt;MoveOrder.IsWaitingConfirm&lt;br&gt;&lt;/div&gt;" style="shape=parallelogram;perimeter=parallelogramPerimeter;whiteSpace=wrap;html=1;fixedSize=1;" vertex="1" parent="WIyWlLk6GJQsqaUBKTNV-1">
          <mxGeometry x="272.56" y="1341" width="291.88" height="32" as="geometry" />
        </mxCell>
        <mxCell id="lhZ-Mh_XOBsZGG9vvXFF-463" value="" style="edgeStyle=orthogonalEdgeStyle;rounded=0;orthogonalLoop=1;jettySize=auto;html=1;" edge="1" parent="WIyWlLk6GJQsqaUBKTNV-1" source="lhZ-Mh_XOBsZGG9vvXFF-459" target="lhZ-Mh_XOBsZGG9vvXFF-462">
          <mxGeometry relative="1" as="geometry" />
        </mxCell>
        <mxCell id="lhZ-Mh_XOBsZGG9vvXFF-459" value="Тип приказа = MOVING_TO_OA" style="shape=parallelogram;perimeter=parallelogramPerimeter;whiteSpace=wrap;html=1;fixedSize=1;" vertex="1" parent="WIyWlLk6GJQsqaUBKTNV-1">
          <mxGeometry x="311" y="2821.75" width="214.51" height="22" as="geometry" />
        </mxCell>
        <mxCell id="lhZ-Mh_XOBsZGG9vvXFF-469" value="" style="edgeStyle=orthogonalEdgeStyle;rounded=0;orthogonalLoop=1;jettySize=auto;html=1;" edge="1" parent="WIyWlLk6GJQsqaUBKTNV-1" source="lhZ-Mh_XOBsZGG9vvXFF-462" target="lhZ-Mh_XOBsZGG9vvXFF-468">
          <mxGeometry relative="1" as="geometry" />
        </mxCell>
        <mxCell id="lhZ-Mh_XOBsZGG9vvXFF-486" style="edgeStyle=orthogonalEdgeStyle;rounded=0;orthogonalLoop=1;jettySize=auto;html=1;entryX=0.5;entryY=0;entryDx=0;entryDy=0;" edge="1" parent="WIyWlLk6GJQsqaUBKTNV-1" source="lhZ-Mh_XOBsZGG9vvXFF-462" target="lhZ-Mh_XOBsZGG9vvXFF-485">
          <mxGeometry relative="1" as="geometry" />
        </mxCell>
        <mxCell id="lhZ-Mh_XOBsZGG9vvXFF-462" value="MoveOrder.IsWaitForScanCellTo" style="shape=parallelogram;perimeter=parallelogramPerimeter;whiteSpace=wrap;html=1;fixedSize=1;" vertex="1" parent="WIyWlLk6GJQsqaUBKTNV-1">
          <mxGeometry x="306" y="2909.25" width="224.5" height="29" as="geometry" />
        </mxCell>
        <mxCell id="lhZ-Mh_XOBsZGG9vvXFF-464" value="" style="endArrow=classic;html=1;rounded=0;exitX=1;exitY=0.5;exitDx=0;exitDy=0;entryX=0;entryY=0.5;entryDx=0;entryDy=0;" edge="1" parent="WIyWlLk6GJQsqaUBKTNV-1" source="lhZ-Mh_XOBsZGG9vvXFF-459" target="lhZ-Mh_XOBsZGG9vvXFF-467">
          <mxGeometry relative="1" as="geometry">
            <mxPoint x="552.75" y="2888.75" as="sourcePoint" />
            <mxPoint x="689.75" y="2833.75" as="targetPoint" />
          </mxGeometry>
        </mxCell>
        <mxCell id="lhZ-Mh_XOBsZGG9vvXFF-465" value="Label" style="edgeLabel;resizable=0;html=1;;align=center;verticalAlign=middle;" connectable="0" vertex="1" parent="lhZ-Mh_XOBsZGG9vvXFF-464">
          <mxGeometry relative="1" as="geometry" />
        </mxCell>
        <mxCell id="lhZ-Mh_XOBsZGG9vvXFF-466" value="Вроде, не нужно" style="edgeLabel;html=1;align=center;verticalAlign=middle;resizable=0;points=[];" vertex="1" connectable="0" parent="lhZ-Mh_XOBsZGG9vvXFF-464">
          <mxGeometry x="-0.0696" y="-2" relative="1" as="geometry">
            <mxPoint as="offset" />
          </mxGeometry>
        </mxCell>
        <mxCell id="lhZ-Mh_XOBsZGG9vvXFF-467" value="" style="rounded=1;whiteSpace=wrap;html=1;" vertex="1" parent="WIyWlLk6GJQsqaUBKTNV-1">
          <mxGeometry x="919.75" y="2802.75" width="122" height="60" as="geometry" />
        </mxCell>
        <mxCell id="lhZ-Mh_XOBsZGG9vvXFF-473" value="" style="edgeStyle=orthogonalEdgeStyle;rounded=0;orthogonalLoop=1;jettySize=auto;html=1;" edge="1" parent="WIyWlLk6GJQsqaUBKTNV-1" source="lhZ-Mh_XOBsZGG9vvXFF-468" target="lhZ-Mh_XOBsZGG9vvXFF-472">
          <mxGeometry relative="1" as="geometry" />
        </mxCell>
        <mxCell id="lhZ-Mh_XOBsZGG9vvXFF-475" value="" style="edgeStyle=orthogonalEdgeStyle;rounded=0;orthogonalLoop=1;jettySize=auto;html=1;" edge="1" parent="WIyWlLk6GJQsqaUBKTNV-1" source="lhZ-Mh_XOBsZGG9vvXFF-468" target="lhZ-Mh_XOBsZGG9vvXFF-474">
          <mxGeometry relative="1" as="geometry" />
        </mxCell>
        <mxCell id="lhZ-Mh_XOBsZGG9vvXFF-468" value="MoveOrder.EANList = NULL" style="shape=parallelogram;perimeter=parallelogramPerimeter;whiteSpace=wrap;html=1;fixedSize=1;" vertex="1" parent="WIyWlLk6GJQsqaUBKTNV-1">
          <mxGeometry x="569.75" y="2911.5" width="212" height="24.5" as="geometry" />
        </mxCell>
        <mxCell id="lhZ-Mh_XOBsZGG9vvXFF-483" style="edgeStyle=orthogonalEdgeStyle;rounded=0;orthogonalLoop=1;jettySize=auto;html=1;entryX=0.5;entryY=0;entryDx=0;entryDy=0;" edge="1" parent="WIyWlLk6GJQsqaUBKTNV-1" source="lhZ-Mh_XOBsZGG9vvXFF-472" target="lhZ-Mh_XOBsZGG9vvXFF-480">
          <mxGeometry relative="1" as="geometry">
            <mxPoint x="1059.75" y="3243.75" as="targetPoint" />
            <Array as="points">
              <mxPoint x="1109.75" y="3143.75" />
              <mxPoint x="674.75" y="3143.75" />
            </Array>
          </mxGeometry>
        </mxCell>
        <mxCell id="lhZ-Mh_XOBsZGG9vvXFF-472" value="Сообщение об ошибке (FirstGoodsEAN)" style="whiteSpace=wrap;html=1;" vertex="1" parent="WIyWlLk6GJQsqaUBKTNV-1">
          <mxGeometry x="1049.75" y="2893.75" width="122" height="60" as="geometry" />
        </mxCell>
        <mxCell id="lhZ-Mh_XOBsZGG9vvXFF-477" style="edgeStyle=orthogonalEdgeStyle;rounded=0;orthogonalLoop=1;jettySize=auto;html=1;entryX=0;entryY=0.5;entryDx=0;entryDy=0;" edge="1" parent="WIyWlLk6GJQsqaUBKTNV-1" source="lhZ-Mh_XOBsZGG9vvXFF-474" target="lhZ-Mh_XOBsZGG9vvXFF-476">
          <mxGeometry relative="1" as="geometry" />
        </mxCell>
        <mxCell id="lhZ-Mh_XOBsZGG9vvXFF-479" style="edgeStyle=orthogonalEdgeStyle;rounded=0;orthogonalLoop=1;jettySize=auto;html=1;entryX=0.5;entryY=0;entryDx=0;entryDy=0;" edge="1" parent="WIyWlLk6GJQsqaUBKTNV-1" source="lhZ-Mh_XOBsZGG9vvXFF-474" target="lhZ-Mh_XOBsZGG9vvXFF-478">
          <mxGeometry relative="1" as="geometry" />
        </mxCell>
        <mxCell id="lhZ-Mh_XOBsZGG9vvXFF-474" value="MoveOrder.FirstSSCC= NULL" style="shape=parallelogram;perimeter=parallelogramPerimeter;whiteSpace=wrap;html=1;fixedSize=1;" vertex="1" parent="WIyWlLk6GJQsqaUBKTNV-1">
          <mxGeometry x="569.75" y="2981.5" width="212" height="24.5" as="geometry" />
        </mxCell>
        <mxCell id="lhZ-Mh_XOBsZGG9vvXFF-482" style="edgeStyle=orthogonalEdgeStyle;rounded=0;orthogonalLoop=1;jettySize=auto;html=1;entryX=0.5;entryY=0;entryDx=0;entryDy=0;" edge="1" parent="WIyWlLk6GJQsqaUBKTNV-1" source="lhZ-Mh_XOBsZGG9vvXFF-476" target="lhZ-Mh_XOBsZGG9vvXFF-480">
          <mxGeometry relative="1" as="geometry">
            <Array as="points">
              <mxPoint x="949.75" y="3143.75" />
              <mxPoint x="674.75" y="3143.75" />
            </Array>
          </mxGeometry>
        </mxCell>
        <mxCell id="lhZ-Mh_XOBsZGG9vvXFF-476" value="Сообщение об ошибке (FirstGoodsEAN)" style="whiteSpace=wrap;html=1;" vertex="1" parent="WIyWlLk6GJQsqaUBKTNV-1">
          <mxGeometry x="889.75" y="2963.75" width="122" height="60" as="geometry" />
        </mxCell>
        <mxCell id="lhZ-Mh_XOBsZGG9vvXFF-481" style="edgeStyle=orthogonalEdgeStyle;rounded=0;orthogonalLoop=1;jettySize=auto;html=1;entryX=0.5;entryY=0;entryDx=0;entryDy=0;" edge="1" parent="WIyWlLk6GJQsqaUBKTNV-1" source="lhZ-Mh_XOBsZGG9vvXFF-478" target="lhZ-Mh_XOBsZGG9vvXFF-480">
          <mxGeometry relative="1" as="geometry" />
        </mxCell>
        <mxCell id="lhZ-Mh_XOBsZGG9vvXFF-478" value="Сообщение об ошибке (Отсутствует информация о штрих-коде товара в приказе)" style="whiteSpace=wrap;html=1;" vertex="1" parent="WIyWlLk6GJQsqaUBKTNV-1">
          <mxGeometry x="607.25" y="3052.75" width="137" height="71" as="geometry" />
        </mxCell>
        <mxCell id="lhZ-Mh_XOBsZGG9vvXFF-480" value="Завершение работы" style="rounded=1;whiteSpace=wrap;html=1;fillColor=#60a917;strokeColor=#2D7600;fontColor=#ffffff;" vertex="1" parent="WIyWlLk6GJQsqaUBKTNV-1">
          <mxGeometry x="614.75" y="3172.5" width="122" height="60" as="geometry" />
        </mxCell>
        <mxCell id="lhZ-Mh_XOBsZGG9vvXFF-488" style="edgeStyle=orthogonalEdgeStyle;rounded=0;orthogonalLoop=1;jettySize=auto;html=1;entryX=0.5;entryY=0;entryDx=0;entryDy=0;" edge="1" parent="WIyWlLk6GJQsqaUBKTNV-1" source="lhZ-Mh_XOBsZGG9vvXFF-485" target="lhZ-Mh_XOBsZGG9vvXFF-487">
          <mxGeometry relative="1" as="geometry" />
        </mxCell>
        <mxCell id="lhZ-Mh_XOBsZGG9vvXFF-485" value="Сообщение об ошибке" style="whiteSpace=wrap;html=1;" vertex="1" parent="WIyWlLk6GJQsqaUBKTNV-1">
          <mxGeometry x="357.24" y="2981.5" width="122" height="60" as="geometry" />
        </mxCell>
        <mxCell id="lhZ-Mh_XOBsZGG9vvXFF-487" value="Завершение работы" style="rounded=1;whiteSpace=wrap;html=1;fillColor=#60a917;strokeColor=#2D7600;fontColor=#ffffff;" vertex="1" parent="WIyWlLk6GJQsqaUBKTNV-1">
          <mxGeometry x="357.24" y="3078.75" width="122" height="60" as="geometry" />
        </mxCell>
        <mxCell id="lhZ-Mh_XOBsZGG9vvXFF-492" style="edgeStyle=orthogonalEdgeStyle;rounded=0;orthogonalLoop=1;jettySize=auto;html=1;entryX=0;entryY=0.5;entryDx=0;entryDy=0;" edge="1" parent="WIyWlLk6GJQsqaUBKTNV-1" source="lhZ-Mh_XOBsZGG9vvXFF-489" target="lhZ-Mh_XOBsZGG9vvXFF-491">
          <mxGeometry relative="1" as="geometry" />
        </mxCell>
        <mxCell id="lhZ-Mh_XOBsZGG9vvXFF-547" style="edgeStyle=orthogonalEdgeStyle;rounded=0;orthogonalLoop=1;jettySize=auto;html=1;entryX=0.5;entryY=0;entryDx=0;entryDy=0;" edge="1" parent="WIyWlLk6GJQsqaUBKTNV-1" source="lhZ-Mh_XOBsZGG9vvXFF-489" target="lhZ-Mh_XOBsZGG9vvXFF-545">
          <mxGeometry relative="1" as="geometry" />
        </mxCell>
        <mxCell id="lhZ-Mh_XOBsZGG9vvXFF-489" value="Отсканирована не ячейка-куда или&lt;div&gt;(приказ является приемкой или перемещением&lt;span style=&quot;background-color: initial;&quot;&gt;) и&amp;nbsp;&lt;/span&gt;&lt;/div&gt;&lt;div&gt;(MoveOrder.ChooseCellAnswer != 0 или&lt;/div&gt;&lt;div&gt;IsEnableTrainingMode и&lt;br&gt;&lt;/div&gt;&lt;div&gt;!MoveOrder.CompareCellToNoStrictly)&lt;br&gt;&lt;/div&gt;" style="shape=parallelogram;perimeter=parallelogramPerimeter;whiteSpace=wrap;html=1;fixedSize=1;" vertex="1" parent="WIyWlLk6GJQsqaUBKTNV-1">
          <mxGeometry x="680" y="1300" width="270.63" height="114" as="geometry" />
        </mxCell>
        <mxCell id="lhZ-Mh_XOBsZGG9vvXFF-507" style="edgeStyle=orthogonalEdgeStyle;rounded=0;orthogonalLoop=1;jettySize=auto;html=1;entryX=0;entryY=0.5;entryDx=0;entryDy=0;" edge="1" parent="WIyWlLk6GJQsqaUBKTNV-1" source="lhZ-Mh_XOBsZGG9vvXFF-491" target="lhZ-Mh_XOBsZGG9vvXFF-495">
          <mxGeometry relative="1" as="geometry" />
        </mxCell>
        <mxCell id="lhZ-Mh_XOBsZGG9vvXFF-523" style="edgeStyle=orthogonalEdgeStyle;rounded=0;orthogonalLoop=1;jettySize=auto;html=1;entryX=0.5;entryY=0;entryDx=0;entryDy=0;" edge="1" parent="WIyWlLk6GJQsqaUBKTNV-1" source="lhZ-Mh_XOBsZGG9vvXFF-491" target="lhZ-Mh_XOBsZGG9vvXFF-522">
          <mxGeometry relative="1" as="geometry" />
        </mxCell>
        <mxCell id="lhZ-Mh_XOBsZGG9vvXFF-491" value="&lt;div&gt;(Приказ является приемкой или&lt;/div&gt;&lt;div&gt;перемещением или&lt;/div&gt;&lt;div&gt;пополнением пикинга) и&lt;/div&gt;&lt;div&gt;(MoveOrder.ChooseCellAnswer != 0 или&lt;br&gt;&lt;/div&gt;&lt;div&gt;IsEnableTrainingMode)&lt;/div&gt;" style="shape=parallelogram;perimeter=parallelogramPerimeter;whiteSpace=wrap;html=1;fixedSize=1;" vertex="1" parent="WIyWlLk6GJQsqaUBKTNV-1">
          <mxGeometry x="1520" y="1314" width="270.63" height="86" as="geometry" />
        </mxCell>
        <mxCell id="lhZ-Mh_XOBsZGG9vvXFF-493" style="edgeStyle=orthogonalEdgeStyle;rounded=0;orthogonalLoop=1;jettySize=auto;html=1;entryX=0;entryY=0.5;entryDx=0;entryDy=0;" edge="1" source="lhZ-Mh_XOBsZGG9vvXFF-495" target="lhZ-Mh_XOBsZGG9vvXFF-497" parent="WIyWlLk6GJQsqaUBKTNV-1">
          <mxGeometry relative="1" as="geometry" />
        </mxCell>
        <mxCell id="lhZ-Mh_XOBsZGG9vvXFF-511" value="" style="edgeStyle=orthogonalEdgeStyle;rounded=0;orthogonalLoop=1;jettySize=auto;html=1;" edge="1" parent="WIyWlLk6GJQsqaUBKTNV-1" source="lhZ-Mh_XOBsZGG9vvXFF-495" target="lhZ-Mh_XOBsZGG9vvXFF-510">
          <mxGeometry relative="1" as="geometry" />
        </mxCell>
        <mxCell id="lhZ-Mh_XOBsZGG9vvXFF-495" value="Сканированные данные содержат код склада и&lt;div&gt;&lt;div&gt;код склада приказа не равен коду из сканированных данных&lt;/div&gt;&lt;/div&gt;" style="shape=parallelogram;perimeter=parallelogramPerimeter;whiteSpace=wrap;html=1;fixedSize=1;" vertex="1" parent="WIyWlLk6GJQsqaUBKTNV-1">
          <mxGeometry x="2250" y="1332" width="320" height="50" as="geometry" />
        </mxCell>
        <mxCell id="lhZ-Mh_XOBsZGG9vvXFF-496" style="edgeStyle=orthogonalEdgeStyle;rounded=0;orthogonalLoop=1;jettySize=auto;html=1;entryX=0.5;entryY=0;entryDx=0;entryDy=0;" edge="1" source="lhZ-Mh_XOBsZGG9vvXFF-497" target="lhZ-Mh_XOBsZGG9vvXFF-498" parent="WIyWlLk6GJQsqaUBKTNV-1">
          <mxGeometry relative="1" as="geometry" />
        </mxCell>
        <mxCell id="lhZ-Mh_XOBsZGG9vvXFF-497" value="Сообщение об ошибке (Адрес содержит код другого склада. Замена невозможна)" style="rounded=0;whiteSpace=wrap;html=1;" vertex="1" parent="WIyWlLk6GJQsqaUBKTNV-1">
          <mxGeometry x="2617.5" y="1309" width="150" height="95" as="geometry" />
        </mxCell>
        <mxCell id="lhZ-Mh_XOBsZGG9vvXFF-498" value="Завершение работы" style="rounded=1;whiteSpace=wrap;html=1;fillColor=#60a917;strokeColor=#2D7600;fontColor=#ffffff;" vertex="1" parent="WIyWlLk6GJQsqaUBKTNV-1">
          <mxGeometry x="2632.5" y="1439" width="120" height="60" as="geometry" />
        </mxCell>
        <mxCell id="lhZ-Mh_XOBsZGG9vvXFF-499" style="edgeStyle=orthogonalEdgeStyle;rounded=0;orthogonalLoop=1;jettySize=auto;html=1;entryX=0.5;entryY=0;entryDx=0;entryDy=0;" edge="1" source="lhZ-Mh_XOBsZGG9vvXFF-501" target="lhZ-Mh_XOBsZGG9vvXFF-502" parent="WIyWlLk6GJQsqaUBKTNV-1">
          <mxGeometry relative="1" as="geometry" />
        </mxCell>
        <mxCell id="lhZ-Mh_XOBsZGG9vvXFF-520" style="edgeStyle=orthogonalEdgeStyle;rounded=0;orthogonalLoop=1;jettySize=auto;html=1;entryX=0;entryY=0.5;entryDx=0;entryDy=0;" edge="1" parent="WIyWlLk6GJQsqaUBKTNV-1" source="lhZ-Mh_XOBsZGG9vvXFF-501" target="lhZ-Mh_XOBsZGG9vvXFF-518">
          <mxGeometry relative="1" as="geometry" />
        </mxCell>
        <mxCell id="lhZ-Mh_XOBsZGG9vvXFF-501" value="Вопрос пользователю:&lt;div&gt;Отсканирована ячейка #. Продолжить размещение всех товаров паллеты в ячейку?&lt;br&gt;&lt;/div&gt;" style="shape=parallelogram;perimeter=parallelogramPerimeter;whiteSpace=wrap;html=1;fixedSize=1;" vertex="1" parent="WIyWlLk6GJQsqaUBKTNV-1">
          <mxGeometry x="2270" y="1746.25" width="280" height="52.75" as="geometry" />
        </mxCell>
        <mxCell id="lhZ-Mh_XOBsZGG9vvXFF-502" value="Завершение работы" style="rounded=1;whiteSpace=wrap;html=1;fillColor=#60a917;strokeColor=#2D7600;fontColor=#ffffff;" vertex="1" parent="WIyWlLk6GJQsqaUBKTNV-1">
          <mxGeometry x="2350" y="1839" width="120" height="60" as="geometry" />
        </mxCell>
        <mxCell id="lhZ-Mh_XOBsZGG9vvXFF-515" style="edgeStyle=orthogonalEdgeStyle;rounded=0;orthogonalLoop=1;jettySize=auto;html=1;entryX=0;entryY=0.5;entryDx=0;entryDy=0;" edge="1" parent="WIyWlLk6GJQsqaUBKTNV-1" source="lhZ-Mh_XOBsZGG9vvXFF-510" target="lhZ-Mh_XOBsZGG9vvXFF-513">
          <mxGeometry relative="1" as="geometry" />
        </mxCell>
        <mxCell id="lhZ-Mh_XOBsZGG9vvXFF-517" style="edgeStyle=orthogonalEdgeStyle;rounded=0;orthogonalLoop=1;jettySize=auto;html=1;entryX=0.5;entryY=0;entryDx=0;entryDy=0;" edge="1" parent="WIyWlLk6GJQsqaUBKTNV-1" source="lhZ-Mh_XOBsZGG9vvXFF-510" target="lhZ-Mh_XOBsZGG9vvXFF-501">
          <mxGeometry relative="1" as="geometry" />
        </mxCell>
        <mxCell id="lhZ-Mh_XOBsZGG9vvXFF-510" value="приказ является перемещением и&lt;div&gt;MoveOrder.CompareCellNoStrictly&lt;br&gt;&lt;/div&gt;" style="shape=parallelogram;perimeter=parallelogramPerimeter;whiteSpace=wrap;html=1;fixedSize=1;" vertex="1" parent="WIyWlLk6GJQsqaUBKTNV-1">
          <mxGeometry x="2300" y="1541" width="220" height="53" as="geometry" />
        </mxCell>
        <mxCell id="lhZ-Mh_XOBsZGG9vvXFF-512" style="edgeStyle=orthogonalEdgeStyle;rounded=0;orthogonalLoop=1;jettySize=auto;html=1;entryX=0.5;entryY=0;entryDx=0;entryDy=0;" edge="1" source="lhZ-Mh_XOBsZGG9vvXFF-513" target="lhZ-Mh_XOBsZGG9vvXFF-514" parent="WIyWlLk6GJQsqaUBKTNV-1">
          <mxGeometry relative="1" as="geometry" />
        </mxCell>
        <mxCell id="lhZ-Mh_XOBsZGG9vvXFF-513" value="Сообщение об ошибке (Ячейка-откуда и ячейка-куда совпадают. Замена невозможна)" style="rounded=0;whiteSpace=wrap;html=1;" vertex="1" parent="WIyWlLk6GJQsqaUBKTNV-1">
          <mxGeometry x="2617.5" y="1520" width="150" height="95" as="geometry" />
        </mxCell>
        <mxCell id="lhZ-Mh_XOBsZGG9vvXFF-514" value="Завершение работы" style="rounded=1;whiteSpace=wrap;html=1;fillColor=#60a917;strokeColor=#2D7600;fontColor=#ffffff;" vertex="1" parent="WIyWlLk6GJQsqaUBKTNV-1">
          <mxGeometry x="2632.5" y="1650" width="120" height="60" as="geometry" />
        </mxCell>
        <mxCell id="lhZ-Mh_XOBsZGG9vvXFF-521" style="edgeStyle=orthogonalEdgeStyle;rounded=0;orthogonalLoop=1;jettySize=auto;html=1;entryX=0.5;entryY=0;entryDx=0;entryDy=0;" edge="1" parent="WIyWlLk6GJQsqaUBKTNV-1" source="lhZ-Mh_XOBsZGG9vvXFF-518" target="lhZ-Mh_XOBsZGG9vvXFF-519">
          <mxGeometry relative="1" as="geometry" />
        </mxCell>
        <mxCell id="lhZ-Mh_XOBsZGG9vvXFF-518" value="RecalculateCellTo = true&lt;div&gt;MoveOrder.ChangeCellTo&lt;br&gt;&lt;/div&gt;&lt;div&gt;звук: Ок&lt;/div&gt;&lt;div&gt;сигнал: данные на терминале изменились&lt;/div&gt;" style="rounded=0;whiteSpace=wrap;html=1;" vertex="1" parent="WIyWlLk6GJQsqaUBKTNV-1">
          <mxGeometry x="2617.5" y="1725.5" width="150" height="95" as="geometry" />
        </mxCell>
        <mxCell id="lhZ-Mh_XOBsZGG9vvXFF-519" value="Завершение работы" style="rounded=1;whiteSpace=wrap;html=1;fillColor=#008a00;strokeColor=#005700;fontColor=#ffffff;" vertex="1" parent="WIyWlLk6GJQsqaUBKTNV-1">
          <mxGeometry x="2632.5" y="1858" width="120" height="60" as="geometry" />
        </mxCell>
        <mxCell id="lhZ-Mh_XOBsZGG9vvXFF-525" style="edgeStyle=orthogonalEdgeStyle;rounded=0;orthogonalLoop=1;jettySize=auto;html=1;entryX=0;entryY=0.5;entryDx=0;entryDy=0;" edge="1" parent="WIyWlLk6GJQsqaUBKTNV-1" source="lhZ-Mh_XOBsZGG9vvXFF-522" target="lhZ-Mh_XOBsZGG9vvXFF-524">
          <mxGeometry relative="1" as="geometry" />
        </mxCell>
        <mxCell id="lhZ-Mh_XOBsZGG9vvXFF-527" value="" style="edgeStyle=orthogonalEdgeStyle;rounded=0;orthogonalLoop=1;jettySize=auto;html=1;" edge="1" parent="WIyWlLk6GJQsqaUBKTNV-1" source="lhZ-Mh_XOBsZGG9vvXFF-522" target="lhZ-Mh_XOBsZGG9vvXFF-526">
          <mxGeometry relative="1" as="geometry" />
        </mxCell>
        <mxCell id="lhZ-Mh_XOBsZGG9vvXFF-522" value="&lt;div&gt;Отсканирована ячейка перехвата и&lt;/div&gt;&lt;div&gt;IsVirtualCellsTaken&lt;/div&gt;" style="shape=parallelogram;perimeter=parallelogramPerimeter;whiteSpace=wrap;html=1;fixedSize=1;" vertex="1" parent="WIyWlLk6GJQsqaUBKTNV-1">
          <mxGeometry x="1520" y="1440" width="270.63" height="40" as="geometry" />
        </mxCell>
        <mxCell id="lhZ-Mh_XOBsZGG9vvXFF-541" style="edgeStyle=orthogonalEdgeStyle;rounded=0;orthogonalLoop=1;jettySize=auto;html=1;" edge="1" parent="WIyWlLk6GJQsqaUBKTNV-1" source="lhZ-Mh_XOBsZGG9vvXFF-524">
          <mxGeometry relative="1" as="geometry">
            <mxPoint x="1948.13" y="1520" as="targetPoint" />
          </mxGeometry>
        </mxCell>
        <mxCell id="lhZ-Mh_XOBsZGG9vvXFF-524" value="Сообщение об ошибке (Ждите завершения загрузки данных (ячейки перехвата).)" style="rounded=0;whiteSpace=wrap;html=1;" vertex="1" parent="WIyWlLk6GJQsqaUBKTNV-1">
          <mxGeometry x="1873.13" y="1431" width="150" height="57.5" as="geometry" />
        </mxCell>
        <mxCell id="lhZ-Mh_XOBsZGG9vvXFF-529" style="edgeStyle=orthogonalEdgeStyle;rounded=0;orthogonalLoop=1;jettySize=auto;html=1;entryX=0;entryY=0.5;entryDx=0;entryDy=0;" edge="1" parent="WIyWlLk6GJQsqaUBKTNV-1" source="lhZ-Mh_XOBsZGG9vvXFF-526" target="lhZ-Mh_XOBsZGG9vvXFF-528">
          <mxGeometry relative="1" as="geometry" />
        </mxCell>
        <mxCell id="lhZ-Mh_XOBsZGG9vvXFF-531" value="" style="edgeStyle=orthogonalEdgeStyle;rounded=0;orthogonalLoop=1;jettySize=auto;html=1;" edge="1" parent="WIyWlLk6GJQsqaUBKTNV-1" source="lhZ-Mh_XOBsZGG9vvXFF-526" target="lhZ-Mh_XOBsZGG9vvXFF-530">
          <mxGeometry relative="1" as="geometry" />
        </mxCell>
        <mxCell id="lhZ-Mh_XOBsZGG9vvXFF-526" value="&lt;div&gt;Отсканирована ячейка перехвата и&lt;/div&gt;&lt;div&gt;LoaderType = LDRT_VNA&lt;/div&gt;" style="shape=parallelogram;perimeter=parallelogramPerimeter;whiteSpace=wrap;html=1;fixedSize=1;" vertex="1" parent="WIyWlLk6GJQsqaUBKTNV-1">
          <mxGeometry x="1520" y="1539.75" width="270.63" height="40" as="geometry" />
        </mxCell>
        <mxCell id="lhZ-Mh_XOBsZGG9vvXFF-542" style="edgeStyle=orthogonalEdgeStyle;rounded=0;orthogonalLoop=1;jettySize=auto;html=1;" edge="1" parent="WIyWlLk6GJQsqaUBKTNV-1" source="lhZ-Mh_XOBsZGG9vvXFF-528">
          <mxGeometry relative="1" as="geometry">
            <mxPoint x="1948.13" y="1630" as="targetPoint" />
          </mxGeometry>
        </mxCell>
        <mxCell id="lhZ-Mh_XOBsZGG9vvXFF-528" value="Сообщение об ошибке (ячейку перехвата)" style="rounded=0;whiteSpace=wrap;html=1;" vertex="1" parent="WIyWlLk6GJQsqaUBKTNV-1">
          <mxGeometry x="1873.13" y="1539.75" width="150" height="40" as="geometry" />
        </mxCell>
        <mxCell id="lhZ-Mh_XOBsZGG9vvXFF-533" style="edgeStyle=orthogonalEdgeStyle;rounded=0;orthogonalLoop=1;jettySize=auto;html=1;entryX=0;entryY=0.5;entryDx=0;entryDy=0;" edge="1" parent="WIyWlLk6GJQsqaUBKTNV-1" source="lhZ-Mh_XOBsZGG9vvXFF-530" target="lhZ-Mh_XOBsZGG9vvXFF-532">
          <mxGeometry relative="1" as="geometry" />
        </mxCell>
        <mxCell id="lhZ-Mh_XOBsZGG9vvXFF-535" style="edgeStyle=orthogonalEdgeStyle;rounded=0;orthogonalLoop=1;jettySize=auto;html=1;entryX=0.5;entryY=0;entryDx=0;entryDy=0;" edge="1" parent="WIyWlLk6GJQsqaUBKTNV-1" source="lhZ-Mh_XOBsZGG9vvXFF-530" target="lhZ-Mh_XOBsZGG9vvXFF-534">
          <mxGeometry relative="1" as="geometry" />
        </mxCell>
        <mxCell id="lhZ-Mh_XOBsZGG9vvXFF-530" value="&lt;div&gt;Ожидание сканирования ворот&lt;/div&gt;" style="shape=parallelogram;perimeter=parallelogramPerimeter;whiteSpace=wrap;html=1;fixedSize=1;" vertex="1" parent="WIyWlLk6GJQsqaUBKTNV-1">
          <mxGeometry x="1520" y="1652" width="270.63" height="26" as="geometry" />
        </mxCell>
        <mxCell id="lhZ-Mh_XOBsZGG9vvXFF-543" style="edgeStyle=orthogonalEdgeStyle;rounded=0;orthogonalLoop=1;jettySize=auto;html=1;" edge="1" parent="WIyWlLk6GJQsqaUBKTNV-1" source="lhZ-Mh_XOBsZGG9vvXFF-532">
          <mxGeometry relative="1" as="geometry">
            <mxPoint x="1948.13" y="1740" as="targetPoint" />
          </mxGeometry>
        </mxCell>
        <mxCell id="lhZ-Mh_XOBsZGG9vvXFF-532" value="Сообщение об ошибке (код склады и код ворот)" style="rounded=0;whiteSpace=wrap;html=1;" vertex="1" parent="WIyWlLk6GJQsqaUBKTNV-1">
          <mxGeometry x="1873.13" y="1645" width="150" height="40" as="geometry" />
        </mxCell>
        <mxCell id="lhZ-Mh_XOBsZGG9vvXFF-537" value="" style="edgeStyle=orthogonalEdgeStyle;rounded=0;orthogonalLoop=1;jettySize=auto;html=1;" edge="1" parent="WIyWlLk6GJQsqaUBKTNV-1" source="lhZ-Mh_XOBsZGG9vvXFF-534" target="lhZ-Mh_XOBsZGG9vvXFF-536">
          <mxGeometry relative="1" as="geometry" />
        </mxCell>
        <mxCell id="lhZ-Mh_XOBsZGG9vvXFF-539" style="edgeStyle=orthogonalEdgeStyle;rounded=0;orthogonalLoop=1;jettySize=auto;html=1;entryX=0.5;entryY=0;entryDx=0;entryDy=0;" edge="1" parent="WIyWlLk6GJQsqaUBKTNV-1" source="lhZ-Mh_XOBsZGG9vvXFF-534" target="lhZ-Mh_XOBsZGG9vvXFF-538">
          <mxGeometry relative="1" as="geometry" />
        </mxCell>
        <mxCell id="lhZ-Mh_XOBsZGG9vvXFF-534" value="&lt;div&gt;Приказ является перемещением из зоны упаковки&lt;/div&gt;" style="shape=parallelogram;perimeter=parallelogramPerimeter;whiteSpace=wrap;html=1;fixedSize=1;" vertex="1" parent="WIyWlLk6GJQsqaUBKTNV-1">
          <mxGeometry x="1520" y="1770.5" width="270.63" height="40" as="geometry" />
        </mxCell>
        <mxCell id="lhZ-Mh_XOBsZGG9vvXFF-544" style="edgeStyle=orthogonalEdgeStyle;rounded=0;orthogonalLoop=1;jettySize=auto;html=1;" edge="1" parent="WIyWlLk6GJQsqaUBKTNV-1" source="lhZ-Mh_XOBsZGG9vvXFF-536">
          <mxGeometry relative="1" as="geometry">
            <mxPoint x="1943.125" y="1860" as="targetPoint" />
          </mxGeometry>
        </mxCell>
        <mxCell id="lhZ-Mh_XOBsZGG9vvXFF-536" value="Сообщение об ошибке (Ячейку ОА в стеллаже)" style="whiteSpace=wrap;html=1;" vertex="1" parent="WIyWlLk6GJQsqaUBKTNV-1">
          <mxGeometry x="1883.125" y="1760.5" width="120" height="60" as="geometry" />
        </mxCell>
        <mxCell id="lhZ-Mh_XOBsZGG9vvXFF-540" style="edgeStyle=orthogonalEdgeStyle;rounded=0;orthogonalLoop=1;jettySize=auto;html=1;" edge="1" parent="WIyWlLk6GJQsqaUBKTNV-1" source="lhZ-Mh_XOBsZGG9vvXFF-538">
          <mxGeometry relative="1" as="geometry">
            <mxPoint x="1659.9999999999995" y="2000" as="targetPoint" />
          </mxGeometry>
        </mxCell>
        <mxCell id="lhZ-Mh_XOBsZGG9vvXFF-538" value="Сообщение об ошибке (код склада и код ячейки)" style="whiteSpace=wrap;html=1;" vertex="1" parent="WIyWlLk6GJQsqaUBKTNV-1">
          <mxGeometry x="1595.315" y="1858" width="120" height="60" as="geometry" />
        </mxCell>
        <mxCell id="lhZ-Mh_XOBsZGG9vvXFF-548" style="edgeStyle=orthogonalEdgeStyle;rounded=0;orthogonalLoop=1;jettySize=auto;html=1;entryX=0;entryY=0.5;entryDx=0;entryDy=0;" edge="1" parent="WIyWlLk6GJQsqaUBKTNV-1" source="lhZ-Mh_XOBsZGG9vvXFF-545" target="lhZ-Mh_XOBsZGG9vvXFF-546">
          <mxGeometry relative="1" as="geometry" />
        </mxCell>
        <mxCell id="lhZ-Mh_XOBsZGG9vvXFF-550" value="" style="edgeStyle=orthogonalEdgeStyle;rounded=0;orthogonalLoop=1;jettySize=auto;html=1;" edge="1" parent="WIyWlLk6GJQsqaUBKTNV-1" source="lhZ-Mh_XOBsZGG9vvXFF-545" target="lhZ-Mh_XOBsZGG9vvXFF-549">
          <mxGeometry relative="1" as="geometry" />
        </mxCell>
        <mxCell id="lhZ-Mh_XOBsZGG9vvXFF-545" value="Кол-во в приказе изменилось" style="shape=parallelogram;perimeter=parallelogramPerimeter;whiteSpace=wrap;html=1;fixedSize=1;" vertex="1" parent="WIyWlLk6GJQsqaUBKTNV-1">
          <mxGeometry x="712.81" y="1445" width="205" height="30" as="geometry" />
        </mxCell>
        <mxCell id="lhZ-Mh_XOBsZGG9vvXFF-553" style="edgeStyle=orthogonalEdgeStyle;rounded=0;orthogonalLoop=1;jettySize=auto;html=1;entryX=0.5;entryY=0;entryDx=0;entryDy=0;" edge="1" parent="WIyWlLk6GJQsqaUBKTNV-1" source="lhZ-Mh_XOBsZGG9vvXFF-546" target="lhZ-Mh_XOBsZGG9vvXFF-549">
          <mxGeometry relative="1" as="geometry" />
        </mxCell>
        <mxCell id="lhZ-Mh_XOBsZGG9vvXFF-546" value="MoveOrder.SetAimQty&lt;div&gt;EditingCountInitialized&lt;br&gt;&lt;/div&gt;&lt;div&gt;EditingCount&lt;br&gt;&lt;/div&gt;" style="rounded=0;whiteSpace=wrap;html=1;" vertex="1" parent="WIyWlLk6GJQsqaUBKTNV-1">
          <mxGeometry x="970" y="1435" width="185" height="50" as="geometry" />
        </mxCell>
        <mxCell id="lhZ-Mh_XOBsZGG9vvXFF-552" value="" style="edgeStyle=orthogonalEdgeStyle;rounded=0;orthogonalLoop=1;jettySize=auto;html=1;" edge="1" parent="WIyWlLk6GJQsqaUBKTNV-1" source="lhZ-Mh_XOBsZGG9vvXFF-549" target="lhZ-Mh_XOBsZGG9vvXFF-551">
          <mxGeometry relative="1" as="geometry" />
        </mxCell>
        <mxCell id="lhZ-Mh_XOBsZGG9vvXFF-549" value="ChooseOrderDirection = false&lt;div&gt;double minimumQty:&lt;br&gt;&lt;/div&gt;&lt;div&gt;Если приказ приемка, то&amp;nbsp;&lt;span style=&quot;background-color: initial;&quot;&gt;minimumQty&lt;/span&gt;&lt;span style=&quot;background-color: initial;&quot;&gt;&amp;nbsp;=&amp;nbsp;&lt;/span&gt;&lt;span style=&quot;background-color: initial;&quot;&gt;AimQty приказа&lt;/span&gt;&lt;/div&gt;&lt;div&gt;&lt;span style=&quot;background-color: initial;&quot;&gt;Иначе,&amp;nbsp;&lt;/span&gt;&lt;span style=&quot;background-color: initial;&quot;&gt;minimumQty =&lt;/span&gt;&lt;span style=&quot;background-color: initial;&quot;&gt;&amp;nbsp;&lt;/span&gt;&lt;span style=&quot;background-color: initial;&quot;&gt;AllAimQty приказа&lt;/span&gt;&lt;/div&gt;&lt;div&gt;&lt;span style=&quot;background-color: initial;&quot;&gt;&lt;br&gt;&lt;/span&gt;&lt;/div&gt;&lt;div&gt;double maximumQty = AllGoodsQty приказа&lt;br&gt;&lt;/div&gt;&lt;div&gt;string MUName = ЕИ базовое, если стоит настройка у приказа, иначе ЕИ приказа&lt;/div&gt;" style="whiteSpace=wrap;html=1;" vertex="1" parent="WIyWlLk6GJQsqaUBKTNV-1">
          <mxGeometry x="572.9699999999999" y="1539.75" width="484.69" height="130" as="geometry" />
        </mxCell>
        <mxCell id="lhZ-Mh_XOBsZGG9vvXFF-555" style="edgeStyle=orthogonalEdgeStyle;rounded=0;orthogonalLoop=1;jettySize=auto;html=1;entryX=0;entryY=0.5;entryDx=0;entryDy=0;" edge="1" parent="WIyWlLk6GJQsqaUBKTNV-1" source="lhZ-Mh_XOBsZGG9vvXFF-551" target="lhZ-Mh_XOBsZGG9vvXFF-554">
          <mxGeometry relative="1" as="geometry" />
        </mxCell>
        <mxCell id="lhZ-Mh_XOBsZGG9vvXFF-557" value="" style="edgeStyle=orthogonalEdgeStyle;rounded=0;orthogonalLoop=1;jettySize=auto;html=1;" edge="1" parent="WIyWlLk6GJQsqaUBKTNV-1" source="lhZ-Mh_XOBsZGG9vvXFF-551" target="lhZ-Mh_XOBsZGG9vvXFF-556">
          <mxGeometry relative="1" as="geometry" />
        </mxCell>
        <mxCell id="lhZ-Mh_XOBsZGG9vvXFF-551" value="minimumQty &amp;lt; maximumQty&amp;nbsp; и нет миссинга" style="shape=parallelogram;perimeter=parallelogramPerimeter;whiteSpace=wrap;html=1;fixedSize=1;" vertex="1" parent="WIyWlLk6GJQsqaUBKTNV-1">
          <mxGeometry x="701.49" y="1746.25" width="227.66" height="35.25" as="geometry" />
        </mxCell>
        <mxCell id="lhZ-Mh_XOBsZGG9vvXFF-565" style="edgeStyle=orthogonalEdgeStyle;rounded=0;orthogonalLoop=1;jettySize=auto;html=1;entryX=0.5;entryY=0;entryDx=0;entryDy=0;" edge="1" parent="WIyWlLk6GJQsqaUBKTNV-1" source="lhZ-Mh_XOBsZGG9vvXFF-554" target="lhZ-Mh_XOBsZGG9vvXFF-563">
          <mxGeometry relative="1" as="geometry">
            <Array as="points">
              <mxPoint x="1063" y="1820" />
              <mxPoint x="1120" y="1820" />
              <mxPoint x="1120" y="2050" />
              <mxPoint x="815" y="2050" />
            </Array>
          </mxGeometry>
        </mxCell>
        <mxCell id="lhZ-Mh_XOBsZGG9vvXFF-554" value="Сообщение об ошибке (Поместите остаток (%1 %2) в %3 и сканируйте ячейку)" style="rounded=0;whiteSpace=wrap;html=1;" vertex="1" parent="WIyWlLk6GJQsqaUBKTNV-1">
          <mxGeometry x="987.5000000000001" y="1735.1200000000001" width="150" height="57.5" as="geometry" />
        </mxCell>
        <mxCell id="lhZ-Mh_XOBsZGG9vvXFF-559" value="" style="edgeStyle=orthogonalEdgeStyle;rounded=0;orthogonalLoop=1;jettySize=auto;html=1;" edge="1" parent="WIyWlLk6GJQsqaUBKTNV-1" source="lhZ-Mh_XOBsZGG9vvXFF-556" target="lhZ-Mh_XOBsZGG9vvXFF-558">
          <mxGeometry relative="1" as="geometry" />
        </mxCell>
        <mxCell id="lhZ-Mh_XOBsZGG9vvXFF-561" value="" style="edgeStyle=orthogonalEdgeStyle;rounded=0;orthogonalLoop=1;jettySize=auto;html=1;" edge="1" parent="WIyWlLk6GJQsqaUBKTNV-1" source="lhZ-Mh_XOBsZGG9vvXFF-556" target="lhZ-Mh_XOBsZGG9vvXFF-560">
          <mxGeometry relative="1" as="geometry" />
        </mxCell>
        <mxCell id="lhZ-Mh_XOBsZGG9vvXFF-556" value="Есть миссинг" style="shape=parallelogram;perimeter=parallelogramPerimeter;whiteSpace=wrap;html=1;fixedSize=1;fillColor=#fff2cc;strokeColor=#d6b656;" vertex="1" parent="WIyWlLk6GJQsqaUBKTNV-1">
          <mxGeometry x="722.97" y="1861.5" width="184.69" height="35.25" as="geometry" />
        </mxCell>
        <mxCell id="lhZ-Mh_XOBsZGG9vvXFF-562" style="edgeStyle=orthogonalEdgeStyle;rounded=0;orthogonalLoop=1;jettySize=auto;html=1;" edge="1" parent="WIyWlLk6GJQsqaUBKTNV-1" source="lhZ-Mh_XOBsZGG9vvXFF-558" target="lhZ-Mh_XOBsZGG9vvXFF-560">
          <mxGeometry relative="1" as="geometry">
            <Array as="points">
              <mxPoint x="1026" y="1930" />
              <mxPoint x="815" y="1930" />
            </Array>
          </mxGeometry>
        </mxCell>
        <mxCell id="lhZ-Mh_XOBsZGG9vvXFF-558" value="MoveOrder.MarkAsMissing" style="whiteSpace=wrap;html=1;fillColor=#fff2cc;strokeColor=#d6b656;" vertex="1" parent="WIyWlLk6GJQsqaUBKTNV-1">
          <mxGeometry x="950.63" y="1849.1200000000001" width="150.01" height="60" as="geometry" />
        </mxCell>
        <mxCell id="lhZ-Mh_XOBsZGG9vvXFF-564" value="" style="edgeStyle=orthogonalEdgeStyle;rounded=0;orthogonalLoop=1;jettySize=auto;html=1;" edge="1" parent="WIyWlLk6GJQsqaUBKTNV-1" source="lhZ-Mh_XOBsZGG9vvXFF-560" target="lhZ-Mh_XOBsZGG9vvXFF-563">
          <mxGeometry relative="1" as="geometry" />
        </mxCell>
        <mxCell id="lhZ-Mh_XOBsZGG9vvXFF-560" value="MoveOrder.SetCellReturnScanned" style="whiteSpace=wrap;html=1;" vertex="1" parent="WIyWlLk6GJQsqaUBKTNV-1">
          <mxGeometry x="717.66" y="1969" width="195.32" height="45.62" as="geometry" />
        </mxCell>
        <mxCell id="lhZ-Mh_XOBsZGG9vvXFF-567" value="" style="edgeStyle=orthogonalEdgeStyle;rounded=0;orthogonalLoop=1;jettySize=auto;html=1;" edge="1" parent="WIyWlLk6GJQsqaUBKTNV-1" source="lhZ-Mh_XOBsZGG9vvXFF-563" target="lhZ-Mh_XOBsZGG9vvXFF-566">
          <mxGeometry relative="1" as="geometry" />
        </mxCell>
        <mxCell id="lhZ-Mh_XOBsZGG9vvXFF-569" value="" style="edgeStyle=orthogonalEdgeStyle;rounded=0;orthogonalLoop=1;jettySize=auto;html=1;" edge="1" parent="WIyWlLk6GJQsqaUBKTNV-1" source="lhZ-Mh_XOBsZGG9vvXFF-563" target="lhZ-Mh_XOBsZGG9vvXFF-568">
          <mxGeometry relative="1" as="geometry" />
        </mxCell>
        <mxCell id="lhZ-Mh_XOBsZGG9vvXFF-563" value="MoveOrder.IsNeedInaccurate" style="shape=parallelogram;perimeter=parallelogramPerimeter;whiteSpace=wrap;html=1;fixedSize=1;" vertex="1" parent="WIyWlLk6GJQsqaUBKTNV-1">
          <mxGeometry x="722.97" y="2107.75" width="185.32" height="60" as="geometry" />
        </mxCell>
        <mxCell id="lhZ-Mh_XOBsZGG9vvXFF-572" style="edgeStyle=orthogonalEdgeStyle;rounded=0;orthogonalLoop=1;jettySize=auto;html=1;entryX=0.5;entryY=0;entryDx=0;entryDy=0;" edge="1" parent="WIyWlLk6GJQsqaUBKTNV-1" source="lhZ-Mh_XOBsZGG9vvXFF-566" target="lhZ-Mh_XOBsZGG9vvXFF-570">
          <mxGeometry relative="1" as="geometry">
            <Array as="points">
              <mxPoint x="1056" y="2280" />
              <mxPoint x="816" y="2280" />
            </Array>
          </mxGeometry>
        </mxCell>
        <mxCell id="lhZ-Mh_XOBsZGG9vvXFF-566" value="MoveOrder.SetInaccurateQty&lt;div&gt;MoveOrder.SetCellToScanned&lt;br&gt;&lt;/div&gt;" style="whiteSpace=wrap;html=1;fillColor=#ffe6cc;strokeColor=#d79b00;" vertex="1" parent="WIyWlLk6GJQsqaUBKTNV-1">
          <mxGeometry x="970" y="2107.75" width="170.95" height="60" as="geometry" />
        </mxCell>
        <mxCell id="lhZ-Mh_XOBsZGG9vvXFF-571" value="" style="edgeStyle=orthogonalEdgeStyle;rounded=0;orthogonalLoop=1;jettySize=auto;html=1;" edge="1" parent="WIyWlLk6GJQsqaUBKTNV-1" source="lhZ-Mh_XOBsZGG9vvXFF-568" target="lhZ-Mh_XOBsZGG9vvXFF-570">
          <mxGeometry relative="1" as="geometry" />
        </mxCell>
        <mxCell id="lhZ-Mh_XOBsZGG9vvXFF-568" value="MoveOrder.SetCellToScanned" style="whiteSpace=wrap;html=1;fillColor=#ffe6cc;strokeColor=#d79b00;" vertex="1" parent="WIyWlLk6GJQsqaUBKTNV-1">
          <mxGeometry x="732.82" y="2217.75" width="165.63" height="30" as="geometry" />
        </mxCell>
        <mxCell id="lhZ-Mh_XOBsZGG9vvXFF-575" style="edgeStyle=orthogonalEdgeStyle;rounded=0;orthogonalLoop=1;jettySize=auto;html=1;entryX=0.5;entryY=0;entryDx=0;entryDy=0;" edge="1" parent="WIyWlLk6GJQsqaUBKTNV-1" source="lhZ-Mh_XOBsZGG9vvXFF-570" target="lhZ-Mh_XOBsZGG9vvXFF-573">
          <mxGeometry relative="1" as="geometry" />
        </mxCell>
        <mxCell id="lhZ-Mh_XOBsZGG9vvXFF-570" value="ScannedStampsCount = 0&lt;div&gt;ScannedBox = 0&lt;br&gt;&lt;/div&gt;&lt;div&gt;ScannedPDF417Count = 0&lt;br&gt;&lt;/div&gt;&lt;div&gt;listScannedPDF417.clear()&lt;/div&gt;&lt;div&gt;Dialog-&amp;gt;GoodsScanInfo-&amp;gt;hide()&lt;br&gt;&lt;/div&gt;" style="whiteSpace=wrap;html=1;" vertex="1" parent="WIyWlLk6GJQsqaUBKTNV-1">
          <mxGeometry x="718.61" y="2312.75" width="194.37" height="77.25" as="geometry" />
        </mxCell>
        <mxCell id="lhZ-Mh_XOBsZGG9vvXFF-576" style="edgeStyle=orthogonalEdgeStyle;rounded=0;orthogonalLoop=1;jettySize=auto;html=1;entryX=0;entryY=0.5;entryDx=0;entryDy=0;" edge="1" parent="WIyWlLk6GJQsqaUBKTNV-1" source="lhZ-Mh_XOBsZGG9vvXFF-573" target="lhZ-Mh_XOBsZGG9vvXFF-574">
          <mxGeometry relative="1" as="geometry" />
        </mxCell>
        <mxCell id="lhZ-Mh_XOBsZGG9vvXFF-585" style="edgeStyle=orthogonalEdgeStyle;rounded=0;orthogonalLoop=1;jettySize=auto;html=1;entryX=0.5;entryY=0;entryDx=0;entryDy=0;" edge="1" parent="WIyWlLk6GJQsqaUBKTNV-1" source="lhZ-Mh_XOBsZGG9vvXFF-573" target="lhZ-Mh_XOBsZGG9vvXFF-580">
          <mxGeometry relative="1" as="geometry" />
        </mxCell>
        <mxCell id="lhZ-Mh_XOBsZGG9vvXFF-573" value="Есть миссинг" style="shape=parallelogram;perimeter=parallelogramPerimeter;whiteSpace=wrap;html=1;fixedSize=1;" vertex="1" parent="WIyWlLk6GJQsqaUBKTNV-1">
          <mxGeometry x="722.97" y="2417.75" width="184.69" height="35.25" as="geometry" />
        </mxCell>
        <mxCell id="lhZ-Mh_XOBsZGG9vvXFF-574" value="MoveOrder.MarkAsMissing" style="whiteSpace=wrap;html=1;" vertex="1" parent="WIyWlLk6GJQsqaUBKTNV-1">
          <mxGeometry x="980.47" y="2405.38" width="150.01" height="60" as="geometry" />
        </mxCell>
        <mxCell id="lhZ-Mh_XOBsZGG9vvXFF-588" style="edgeStyle=orthogonalEdgeStyle;rounded=0;orthogonalLoop=1;jettySize=auto;html=1;entryX=0.5;entryY=0;entryDx=0;entryDy=0;" edge="1" parent="WIyWlLk6GJQsqaUBKTNV-1" source="lhZ-Mh_XOBsZGG9vvXFF-577" target="lhZ-Mh_XOBsZGG9vvXFF-586">
          <mxGeometry relative="1" as="geometry">
            <Array as="points">
              <mxPoint x="1028" y="2630" />
              <mxPoint x="815" y="2630" />
            </Array>
          </mxGeometry>
        </mxCell>
        <mxCell id="lhZ-Mh_XOBsZGG9vvXFF-577" value="звук: приказ выполнен" style="rounded=0;whiteSpace=wrap;html=1;" vertex="1" parent="WIyWlLk6GJQsqaUBKTNV-1">
          <mxGeometry x="967.5" y="2497.75" width="120" height="60" as="geometry" />
        </mxCell>
        <mxCell id="lhZ-Mh_XOBsZGG9vvXFF-578" style="edgeStyle=orthogonalEdgeStyle;rounded=0;orthogonalLoop=1;jettySize=auto;html=1;entryX=0;entryY=0.5;entryDx=0;entryDy=0;" edge="1" parent="WIyWlLk6GJQsqaUBKTNV-1" source="lhZ-Mh_XOBsZGG9vvXFF-580" target="lhZ-Mh_XOBsZGG9vvXFF-577">
          <mxGeometry relative="1" as="geometry" />
        </mxCell>
        <mxCell id="lhZ-Mh_XOBsZGG9vvXFF-579" style="edgeStyle=orthogonalEdgeStyle;rounded=0;orthogonalLoop=1;jettySize=auto;html=1;entryX=0.5;entryY=0;entryDx=0;entryDy=0;" edge="1" parent="WIyWlLk6GJQsqaUBKTNV-1" source="lhZ-Mh_XOBsZGG9vvXFF-580" target="lhZ-Mh_XOBsZGG9vvXFF-582">
          <mxGeometry relative="1" as="geometry" />
        </mxCell>
        <mxCell id="lhZ-Mh_XOBsZGG9vvXFF-580" value="Приказ подтвержден" style="shape=parallelogram;perimeter=parallelogramPerimeter;whiteSpace=wrap;html=1;fixedSize=1;" vertex="1" parent="WIyWlLk6GJQsqaUBKTNV-1">
          <mxGeometry x="741.42" y="2510" width="148.74" height="40" as="geometry" />
        </mxCell>
        <mxCell id="lhZ-Mh_XOBsZGG9vvXFF-587" style="edgeStyle=orthogonalEdgeStyle;rounded=0;orthogonalLoop=1;jettySize=auto;html=1;entryX=0.5;entryY=0;entryDx=0;entryDy=0;" edge="1" parent="WIyWlLk6GJQsqaUBKTNV-1" source="lhZ-Mh_XOBsZGG9vvXFF-582" target="lhZ-Mh_XOBsZGG9vvXFF-586">
          <mxGeometry relative="1" as="geometry" />
        </mxCell>
        <mxCell id="lhZ-Mh_XOBsZGG9vvXFF-582" value="звук: Ок" style="rounded=0;whiteSpace=wrap;html=1;" vertex="1" parent="WIyWlLk6GJQsqaUBKTNV-1">
          <mxGeometry x="755.1599999999997" y="2580" width="120" height="40" as="geometry" />
        </mxCell>
        <mxCell id="lhZ-Mh_XOBsZGG9vvXFF-583" value="Завершение работы" style="rounded=1;whiteSpace=wrap;html=1;fillColor=#008a00;strokeColor=#005700;fontColor=#ffffff;" vertex="1" parent="WIyWlLk6GJQsqaUBKTNV-1">
          <mxGeometry x="755.7999999999997" y="2727.75" width="120" height="60" as="geometry" />
        </mxCell>
        <mxCell id="lhZ-Mh_XOBsZGG9vvXFF-589" style="edgeStyle=orthogonalEdgeStyle;rounded=0;orthogonalLoop=1;jettySize=auto;html=1;entryX=0.5;entryY=0;entryDx=0;entryDy=0;" edge="1" parent="WIyWlLk6GJQsqaUBKTNV-1" source="lhZ-Mh_XOBsZGG9vvXFF-586" target="lhZ-Mh_XOBsZGG9vvXFF-583">
          <mxGeometry relative="1" as="geometry" />
        </mxCell>
        <mxCell id="lhZ-Mh_XOBsZGG9vvXFF-586" value="Заполнить поля диалога" style="rounded=0;whiteSpace=wrap;html=1;" vertex="1" parent="WIyWlLk6GJQsqaUBKTNV-1">
          <mxGeometry x="755.16" y="2647.75" width="120" height="60" as="geometry" />
        </mxCell>
      </root>
    </mxGraphModel>
  </diagram>
</mxfile>
